%TF.GenerationSoftware,KiCad,Pcbnew,7.0.6*%
%TF.CreationDate,2023-07-20T15:13:03+09:00*%
%TF.ProjectId,esp32c3_test,65737033-3263-4335-9f74-6573742e6b69,rev?*%
%TF.SameCoordinates,PX7f2c270PY70a3730*%
%TF.FileFunction,Soldermask,Top*%
%TF.FilePolarity,Negative*%
%FSLAX46Y46*%
G04 Gerber Fmt 4.6, Leading zero omitted, Abs format (unit mm)*
G04 Created by KiCad (PCBNEW 7.0.6) date 2023-07-20 15:13:03*
%MOMM*%
%LPD*%
G01*
G04 APERTURE LIST*
G04 Aperture macros list*
%AMRoundRect*
0 Rectangle with rounded corners*
0 $1 Rounding radius*
0 $2 $3 $4 $5 $6 $7 $8 $9 X,Y pos of 4 corners*
0 Add a 4 corners polygon primitive as box body*
4,1,4,$2,$3,$4,$5,$6,$7,$8,$9,$2,$3,0*
0 Add four circle primitives for the rounded corners*
1,1,$1+$1,$2,$3*
1,1,$1+$1,$4,$5*
1,1,$1+$1,$6,$7*
1,1,$1+$1,$8,$9*
0 Add four rect primitives between the rounded corners*
20,1,$1+$1,$2,$3,$4,$5,0*
20,1,$1+$1,$4,$5,$6,$7,0*
20,1,$1+$1,$6,$7,$8,$9,0*
20,1,$1+$1,$8,$9,$2,$3,0*%
G04 Aperture macros list end*
%ADD10C,2.200000*%
%ADD11RoundRect,0.100000X0.350000X0.350000X-0.350000X0.350000X-0.350000X-0.350000X0.350000X-0.350000X0*%
%ADD12RoundRect,0.100000X0.750000X0.450000X-0.750000X0.450000X-0.750000X-0.450000X0.750000X-0.450000X0*%
%ADD13RoundRect,0.100000X-0.750000X-0.450000X0.750000X-0.450000X0.750000X0.450000X-0.750000X0.450000X0*%
G04 APERTURE END LIST*
D10*
%TO.C,J2*%
X5080000Y22860000D03*
X5080000Y20320000D03*
X5080000Y17780000D03*
X5080000Y15240000D03*
X5080000Y12700000D03*
X5080000Y10160000D03*
X5080000Y7620000D03*
X5080000Y5080000D03*
X5080000Y2540000D03*
%TD*%
%TO.C,J1*%
X17780000Y22860000D03*
X17780000Y20320000D03*
X17780000Y17780000D03*
X17780000Y15240000D03*
X17780000Y12700000D03*
X17780000Y10160000D03*
X17780000Y7620000D03*
X17780000Y5080000D03*
X17780000Y2540000D03*
%TD*%
D11*
%TO.C,U1*%
X13555000Y32235000D03*
X13555000Y33335000D03*
X13555000Y34435000D03*
X12405000Y32235000D03*
X12405000Y33335000D03*
X12405000Y34435000D03*
X11355000Y32235000D03*
X11355000Y33335000D03*
X11355000Y34435000D03*
D12*
X20245000Y39535000D03*
X20245000Y38035000D03*
X20245000Y36535000D03*
X20245000Y35035000D03*
X20245000Y33535000D03*
X20245000Y32035000D03*
X20245000Y30535000D03*
X20245000Y29035000D03*
X20245000Y27535000D03*
D13*
X2745000Y27535000D03*
X2745000Y29035000D03*
X2745000Y30535000D03*
X2745000Y32035000D03*
X2745000Y33535000D03*
X2745000Y35035000D03*
X2745000Y36535000D03*
X2745000Y38035000D03*
X2745000Y39535000D03*
%TD*%
M02*
