%TF.GenerationSoftware,KiCad,Pcbnew,7.0.6*%
%TF.CreationDate,2023-07-20T15:13:03+09:00*%
%TF.ProjectId,esp32c3_test,65737033-3263-4335-9f74-6573742e6b69,rev?*%
%TF.SameCoordinates,PX7f2c270PY70a3730*%
%TF.FileFunction,Legend,Top*%
%TF.FilePolarity,Positive*%
%FSLAX46Y46*%
G04 Gerber Fmt 4.6, Leading zero omitted, Abs format (unit mm)*
G04 Created by KiCad (PCBNEW 7.0.6) date 2023-07-20 15:13:03*
%MOMM*%
%LPD*%
G01*
G04 APERTURE LIST*
%ADD10C,0.150000*%
%ADD11C,0.120000*%
G04 APERTURE END LIST*
D10*
X6686779Y4575181D02*
X6686779Y5575181D01*
X7353445Y5575181D02*
X7543921Y5575181D01*
X7543921Y5575181D02*
X7639159Y5527562D01*
X7639159Y5527562D02*
X7734397Y5432324D01*
X7734397Y5432324D02*
X7782016Y5241848D01*
X7782016Y5241848D02*
X7782016Y4908515D01*
X7782016Y4908515D02*
X7734397Y4718039D01*
X7734397Y4718039D02*
X7639159Y4622800D01*
X7639159Y4622800D02*
X7543921Y4575181D01*
X7543921Y4575181D02*
X7353445Y4575181D01*
X7353445Y4575181D02*
X7258207Y4622800D01*
X7258207Y4622800D02*
X7162969Y4718039D01*
X7162969Y4718039D02*
X7115350Y4908515D01*
X7115350Y4908515D02*
X7115350Y5241848D01*
X7115350Y5241848D02*
X7162969Y5432324D01*
X7162969Y5432324D02*
X7258207Y5527562D01*
X7258207Y5527562D02*
X7353445Y5575181D01*
X8258207Y4575181D02*
X8448683Y4575181D01*
X8448683Y4575181D02*
X8543921Y4622800D01*
X8543921Y4622800D02*
X8591540Y4670420D01*
X8591540Y4670420D02*
X8686778Y4813277D01*
X8686778Y4813277D02*
X8734397Y5003753D01*
X8734397Y5003753D02*
X8734397Y5384705D01*
X8734397Y5384705D02*
X8686778Y5479943D01*
X8686778Y5479943D02*
X8639159Y5527562D01*
X8639159Y5527562D02*
X8543921Y5575181D01*
X8543921Y5575181D02*
X8353445Y5575181D01*
X8353445Y5575181D02*
X8258207Y5527562D01*
X8258207Y5527562D02*
X8210588Y5479943D01*
X8210588Y5479943D02*
X8162969Y5384705D01*
X8162969Y5384705D02*
X8162969Y5146610D01*
X8162969Y5146610D02*
X8210588Y5051372D01*
X8210588Y5051372D02*
X8258207Y5003753D01*
X8258207Y5003753D02*
X8353445Y4956134D01*
X8353445Y4956134D02*
X8543921Y4956134D01*
X8543921Y4956134D02*
X8639159Y5003753D01*
X8639159Y5003753D02*
X8686778Y5051372D01*
X8686778Y5051372D02*
X8734397Y5146610D01*
X6686779Y7115181D02*
X6686779Y8115181D01*
X7353445Y8115181D02*
X7543921Y8115181D01*
X7543921Y8115181D02*
X7639159Y8067562D01*
X7639159Y8067562D02*
X7734397Y7972324D01*
X7734397Y7972324D02*
X7782016Y7781848D01*
X7782016Y7781848D02*
X7782016Y7448515D01*
X7782016Y7448515D02*
X7734397Y7258039D01*
X7734397Y7258039D02*
X7639159Y7162800D01*
X7639159Y7162800D02*
X7543921Y7115181D01*
X7543921Y7115181D02*
X7353445Y7115181D01*
X7353445Y7115181D02*
X7258207Y7162800D01*
X7258207Y7162800D02*
X7162969Y7258039D01*
X7162969Y7258039D02*
X7115350Y7448515D01*
X7115350Y7448515D02*
X7115350Y7781848D01*
X7115350Y7781848D02*
X7162969Y7972324D01*
X7162969Y7972324D02*
X7258207Y8067562D01*
X7258207Y8067562D02*
X7353445Y8115181D01*
X8353445Y7686610D02*
X8258207Y7734229D01*
X8258207Y7734229D02*
X8210588Y7781848D01*
X8210588Y7781848D02*
X8162969Y7877086D01*
X8162969Y7877086D02*
X8162969Y7924705D01*
X8162969Y7924705D02*
X8210588Y8019943D01*
X8210588Y8019943D02*
X8258207Y8067562D01*
X8258207Y8067562D02*
X8353445Y8115181D01*
X8353445Y8115181D02*
X8543921Y8115181D01*
X8543921Y8115181D02*
X8639159Y8067562D01*
X8639159Y8067562D02*
X8686778Y8019943D01*
X8686778Y8019943D02*
X8734397Y7924705D01*
X8734397Y7924705D02*
X8734397Y7877086D01*
X8734397Y7877086D02*
X8686778Y7781848D01*
X8686778Y7781848D02*
X8639159Y7734229D01*
X8639159Y7734229D02*
X8543921Y7686610D01*
X8543921Y7686610D02*
X8353445Y7686610D01*
X8353445Y7686610D02*
X8258207Y7638991D01*
X8258207Y7638991D02*
X8210588Y7591372D01*
X8210588Y7591372D02*
X8162969Y7496134D01*
X8162969Y7496134D02*
X8162969Y7305658D01*
X8162969Y7305658D02*
X8210588Y7210420D01*
X8210588Y7210420D02*
X8258207Y7162800D01*
X8258207Y7162800D02*
X8353445Y7115181D01*
X8353445Y7115181D02*
X8543921Y7115181D01*
X8543921Y7115181D02*
X8639159Y7162800D01*
X8639159Y7162800D02*
X8686778Y7210420D01*
X8686778Y7210420D02*
X8734397Y7305658D01*
X8734397Y7305658D02*
X8734397Y7496134D01*
X8734397Y7496134D02*
X8686778Y7591372D01*
X8686778Y7591372D02*
X8639159Y7638991D01*
X8639159Y7638991D02*
X8543921Y7686610D01*
X6686779Y9655181D02*
X6686779Y10655181D01*
X7353445Y10655181D02*
X7543921Y10655181D01*
X7543921Y10655181D02*
X7639159Y10607562D01*
X7639159Y10607562D02*
X7734397Y10512324D01*
X7734397Y10512324D02*
X7782016Y10321848D01*
X7782016Y10321848D02*
X7782016Y9988515D01*
X7782016Y9988515D02*
X7734397Y9798039D01*
X7734397Y9798039D02*
X7639159Y9702800D01*
X7639159Y9702800D02*
X7543921Y9655181D01*
X7543921Y9655181D02*
X7353445Y9655181D01*
X7353445Y9655181D02*
X7258207Y9702800D01*
X7258207Y9702800D02*
X7162969Y9798039D01*
X7162969Y9798039D02*
X7115350Y9988515D01*
X7115350Y9988515D02*
X7115350Y10321848D01*
X7115350Y10321848D02*
X7162969Y10512324D01*
X7162969Y10512324D02*
X7258207Y10607562D01*
X7258207Y10607562D02*
X7353445Y10655181D01*
X8115350Y10655181D02*
X8782016Y10655181D01*
X8782016Y10655181D02*
X8353445Y9655181D01*
X6686779Y12195181D02*
X6686779Y13195181D01*
X7353445Y13195181D02*
X7543921Y13195181D01*
X7543921Y13195181D02*
X7639159Y13147562D01*
X7639159Y13147562D02*
X7734397Y13052324D01*
X7734397Y13052324D02*
X7782016Y12861848D01*
X7782016Y12861848D02*
X7782016Y12528515D01*
X7782016Y12528515D02*
X7734397Y12338039D01*
X7734397Y12338039D02*
X7639159Y12242800D01*
X7639159Y12242800D02*
X7543921Y12195181D01*
X7543921Y12195181D02*
X7353445Y12195181D01*
X7353445Y12195181D02*
X7258207Y12242800D01*
X7258207Y12242800D02*
X7162969Y12338039D01*
X7162969Y12338039D02*
X7115350Y12528515D01*
X7115350Y12528515D02*
X7115350Y12861848D01*
X7115350Y12861848D02*
X7162969Y13052324D01*
X7162969Y13052324D02*
X7258207Y13147562D01*
X7258207Y13147562D02*
X7353445Y13195181D01*
X8639159Y13195181D02*
X8448683Y13195181D01*
X8448683Y13195181D02*
X8353445Y13147562D01*
X8353445Y13147562D02*
X8305826Y13099943D01*
X8305826Y13099943D02*
X8210588Y12957086D01*
X8210588Y12957086D02*
X8162969Y12766610D01*
X8162969Y12766610D02*
X8162969Y12385658D01*
X8162969Y12385658D02*
X8210588Y12290420D01*
X8210588Y12290420D02*
X8258207Y12242800D01*
X8258207Y12242800D02*
X8353445Y12195181D01*
X8353445Y12195181D02*
X8543921Y12195181D01*
X8543921Y12195181D02*
X8639159Y12242800D01*
X8639159Y12242800D02*
X8686778Y12290420D01*
X8686778Y12290420D02*
X8734397Y12385658D01*
X8734397Y12385658D02*
X8734397Y12623753D01*
X8734397Y12623753D02*
X8686778Y12718991D01*
X8686778Y12718991D02*
X8639159Y12766610D01*
X8639159Y12766610D02*
X8543921Y12814229D01*
X8543921Y12814229D02*
X8353445Y12814229D01*
X8353445Y12814229D02*
X8258207Y12766610D01*
X8258207Y12766610D02*
X8210588Y12718991D01*
X8210588Y12718991D02*
X8162969Y12623753D01*
X6686779Y14735181D02*
X6686779Y15735181D01*
X7353445Y15735181D02*
X7543921Y15735181D01*
X7543921Y15735181D02*
X7639159Y15687562D01*
X7639159Y15687562D02*
X7734397Y15592324D01*
X7734397Y15592324D02*
X7782016Y15401848D01*
X7782016Y15401848D02*
X7782016Y15068515D01*
X7782016Y15068515D02*
X7734397Y14878039D01*
X7734397Y14878039D02*
X7639159Y14782800D01*
X7639159Y14782800D02*
X7543921Y14735181D01*
X7543921Y14735181D02*
X7353445Y14735181D01*
X7353445Y14735181D02*
X7258207Y14782800D01*
X7258207Y14782800D02*
X7162969Y14878039D01*
X7162969Y14878039D02*
X7115350Y15068515D01*
X7115350Y15068515D02*
X7115350Y15401848D01*
X7115350Y15401848D02*
X7162969Y15592324D01*
X7162969Y15592324D02*
X7258207Y15687562D01*
X7258207Y15687562D02*
X7353445Y15735181D01*
X8686778Y15735181D02*
X8210588Y15735181D01*
X8210588Y15735181D02*
X8162969Y15258991D01*
X8162969Y15258991D02*
X8210588Y15306610D01*
X8210588Y15306610D02*
X8305826Y15354229D01*
X8305826Y15354229D02*
X8543921Y15354229D01*
X8543921Y15354229D02*
X8639159Y15306610D01*
X8639159Y15306610D02*
X8686778Y15258991D01*
X8686778Y15258991D02*
X8734397Y15163753D01*
X8734397Y15163753D02*
X8734397Y14925658D01*
X8734397Y14925658D02*
X8686778Y14830420D01*
X8686778Y14830420D02*
X8639159Y14782800D01*
X8639159Y14782800D02*
X8543921Y14735181D01*
X8543921Y14735181D02*
X8305826Y14735181D01*
X8305826Y14735181D02*
X8210588Y14782800D01*
X8210588Y14782800D02*
X8162969Y14830420D01*
X6686779Y17275181D02*
X6686779Y18275181D01*
X7353445Y18275181D02*
X7543921Y18275181D01*
X7543921Y18275181D02*
X7639159Y18227562D01*
X7639159Y18227562D02*
X7734397Y18132324D01*
X7734397Y18132324D02*
X7782016Y17941848D01*
X7782016Y17941848D02*
X7782016Y17608515D01*
X7782016Y17608515D02*
X7734397Y17418039D01*
X7734397Y17418039D02*
X7639159Y17322800D01*
X7639159Y17322800D02*
X7543921Y17275181D01*
X7543921Y17275181D02*
X7353445Y17275181D01*
X7353445Y17275181D02*
X7258207Y17322800D01*
X7258207Y17322800D02*
X7162969Y17418039D01*
X7162969Y17418039D02*
X7115350Y17608515D01*
X7115350Y17608515D02*
X7115350Y17941848D01*
X7115350Y17941848D02*
X7162969Y18132324D01*
X7162969Y18132324D02*
X7258207Y18227562D01*
X7258207Y18227562D02*
X7353445Y18275181D01*
X8639159Y17941848D02*
X8639159Y17275181D01*
X8401064Y18322800D02*
X8162969Y17608515D01*
X8162969Y17608515D02*
X8782016Y17608515D01*
X13036779Y2035181D02*
X13036779Y3035181D01*
X13703445Y3035181D02*
X13893921Y3035181D01*
X13893921Y3035181D02*
X13989159Y2987562D01*
X13989159Y2987562D02*
X14084397Y2892324D01*
X14084397Y2892324D02*
X14132016Y2701848D01*
X14132016Y2701848D02*
X14132016Y2368515D01*
X14132016Y2368515D02*
X14084397Y2178039D01*
X14084397Y2178039D02*
X13989159Y2082800D01*
X13989159Y2082800D02*
X13893921Y2035181D01*
X13893921Y2035181D02*
X13703445Y2035181D01*
X13703445Y2035181D02*
X13608207Y2082800D01*
X13608207Y2082800D02*
X13512969Y2178039D01*
X13512969Y2178039D02*
X13465350Y2368515D01*
X13465350Y2368515D02*
X13465350Y2701848D01*
X13465350Y2701848D02*
X13512969Y2892324D01*
X13512969Y2892324D02*
X13608207Y2987562D01*
X13608207Y2987562D02*
X13703445Y3035181D01*
X15084397Y2035181D02*
X14512969Y2035181D01*
X14798683Y2035181D02*
X14798683Y3035181D01*
X14798683Y3035181D02*
X14703445Y2892324D01*
X14703445Y2892324D02*
X14608207Y2797086D01*
X14608207Y2797086D02*
X14512969Y2749467D01*
X15703445Y3035181D02*
X15798683Y3035181D01*
X15798683Y3035181D02*
X15893921Y2987562D01*
X15893921Y2987562D02*
X15941540Y2939943D01*
X15941540Y2939943D02*
X15989159Y2844705D01*
X15989159Y2844705D02*
X16036778Y2654229D01*
X16036778Y2654229D02*
X16036778Y2416134D01*
X16036778Y2416134D02*
X15989159Y2225658D01*
X15989159Y2225658D02*
X15941540Y2130420D01*
X15941540Y2130420D02*
X15893921Y2082800D01*
X15893921Y2082800D02*
X15798683Y2035181D01*
X15798683Y2035181D02*
X15703445Y2035181D01*
X15703445Y2035181D02*
X15608207Y2082800D01*
X15608207Y2082800D02*
X15560588Y2130420D01*
X15560588Y2130420D02*
X15512969Y2225658D01*
X15512969Y2225658D02*
X15465350Y2416134D01*
X15465350Y2416134D02*
X15465350Y2654229D01*
X15465350Y2654229D02*
X15512969Y2844705D01*
X15512969Y2844705D02*
X15560588Y2939943D01*
X15560588Y2939943D02*
X15608207Y2987562D01*
X15608207Y2987562D02*
X15703445Y3035181D01*
X13671779Y14735181D02*
X13671779Y15735181D01*
X14338445Y15735181D02*
X14528921Y15735181D01*
X14528921Y15735181D02*
X14624159Y15687562D01*
X14624159Y15687562D02*
X14719397Y15592324D01*
X14719397Y15592324D02*
X14767016Y15401848D01*
X14767016Y15401848D02*
X14767016Y15068515D01*
X14767016Y15068515D02*
X14719397Y14878039D01*
X14719397Y14878039D02*
X14624159Y14782800D01*
X14624159Y14782800D02*
X14528921Y14735181D01*
X14528921Y14735181D02*
X14338445Y14735181D01*
X14338445Y14735181D02*
X14243207Y14782800D01*
X14243207Y14782800D02*
X14147969Y14878039D01*
X14147969Y14878039D02*
X14100350Y15068515D01*
X14100350Y15068515D02*
X14100350Y15401848D01*
X14100350Y15401848D02*
X14147969Y15592324D01*
X14147969Y15592324D02*
X14243207Y15687562D01*
X14243207Y15687562D02*
X14338445Y15735181D01*
X15100350Y15735181D02*
X15719397Y15735181D01*
X15719397Y15735181D02*
X15386064Y15354229D01*
X15386064Y15354229D02*
X15528921Y15354229D01*
X15528921Y15354229D02*
X15624159Y15306610D01*
X15624159Y15306610D02*
X15671778Y15258991D01*
X15671778Y15258991D02*
X15719397Y15163753D01*
X15719397Y15163753D02*
X15719397Y14925658D01*
X15719397Y14925658D02*
X15671778Y14830420D01*
X15671778Y14830420D02*
X15624159Y14782800D01*
X15624159Y14782800D02*
X15528921Y14735181D01*
X15528921Y14735181D02*
X15243207Y14735181D01*
X15243207Y14735181D02*
X15147969Y14782800D01*
X15147969Y14782800D02*
X15100350Y14830420D01*
X13671779Y17275181D02*
X13671779Y18275181D01*
X14338445Y18275181D02*
X14528921Y18275181D01*
X14528921Y18275181D02*
X14624159Y18227562D01*
X14624159Y18227562D02*
X14719397Y18132324D01*
X14719397Y18132324D02*
X14767016Y17941848D01*
X14767016Y17941848D02*
X14767016Y17608515D01*
X14767016Y17608515D02*
X14719397Y17418039D01*
X14719397Y17418039D02*
X14624159Y17322800D01*
X14624159Y17322800D02*
X14528921Y17275181D01*
X14528921Y17275181D02*
X14338445Y17275181D01*
X14338445Y17275181D02*
X14243207Y17322800D01*
X14243207Y17322800D02*
X14147969Y17418039D01*
X14147969Y17418039D02*
X14100350Y17608515D01*
X14100350Y17608515D02*
X14100350Y17941848D01*
X14100350Y17941848D02*
X14147969Y18132324D01*
X14147969Y18132324D02*
X14243207Y18227562D01*
X14243207Y18227562D02*
X14338445Y18275181D01*
X15147969Y18179943D02*
X15195588Y18227562D01*
X15195588Y18227562D02*
X15290826Y18275181D01*
X15290826Y18275181D02*
X15528921Y18275181D01*
X15528921Y18275181D02*
X15624159Y18227562D01*
X15624159Y18227562D02*
X15671778Y18179943D01*
X15671778Y18179943D02*
X15719397Y18084705D01*
X15719397Y18084705D02*
X15719397Y17989467D01*
X15719397Y17989467D02*
X15671778Y17846610D01*
X15671778Y17846610D02*
X15100350Y17275181D01*
X15100350Y17275181D02*
X15719397Y17275181D01*
X13671779Y19815181D02*
X13671779Y20815181D01*
X14338445Y20815181D02*
X14528921Y20815181D01*
X14528921Y20815181D02*
X14624159Y20767562D01*
X14624159Y20767562D02*
X14719397Y20672324D01*
X14719397Y20672324D02*
X14767016Y20481848D01*
X14767016Y20481848D02*
X14767016Y20148515D01*
X14767016Y20148515D02*
X14719397Y19958039D01*
X14719397Y19958039D02*
X14624159Y19862800D01*
X14624159Y19862800D02*
X14528921Y19815181D01*
X14528921Y19815181D02*
X14338445Y19815181D01*
X14338445Y19815181D02*
X14243207Y19862800D01*
X14243207Y19862800D02*
X14147969Y19958039D01*
X14147969Y19958039D02*
X14100350Y20148515D01*
X14100350Y20148515D02*
X14100350Y20481848D01*
X14100350Y20481848D02*
X14147969Y20672324D01*
X14147969Y20672324D02*
X14243207Y20767562D01*
X14243207Y20767562D02*
X14338445Y20815181D01*
X15719397Y19815181D02*
X15147969Y19815181D01*
X15433683Y19815181D02*
X15433683Y20815181D01*
X15433683Y20815181D02*
X15338445Y20672324D01*
X15338445Y20672324D02*
X15243207Y20577086D01*
X15243207Y20577086D02*
X15147969Y20529467D01*
X13671779Y22355181D02*
X13671779Y23355181D01*
X14338445Y23355181D02*
X14528921Y23355181D01*
X14528921Y23355181D02*
X14624159Y23307562D01*
X14624159Y23307562D02*
X14719397Y23212324D01*
X14719397Y23212324D02*
X14767016Y23021848D01*
X14767016Y23021848D02*
X14767016Y22688515D01*
X14767016Y22688515D02*
X14719397Y22498039D01*
X14719397Y22498039D02*
X14624159Y22402800D01*
X14624159Y22402800D02*
X14528921Y22355181D01*
X14528921Y22355181D02*
X14338445Y22355181D01*
X14338445Y22355181D02*
X14243207Y22402800D01*
X14243207Y22402800D02*
X14147969Y22498039D01*
X14147969Y22498039D02*
X14100350Y22688515D01*
X14100350Y22688515D02*
X14100350Y23021848D01*
X14100350Y23021848D02*
X14147969Y23212324D01*
X14147969Y23212324D02*
X14243207Y23307562D01*
X14243207Y23307562D02*
X14338445Y23355181D01*
X15386064Y23355181D02*
X15481302Y23355181D01*
X15481302Y23355181D02*
X15576540Y23307562D01*
X15576540Y23307562D02*
X15624159Y23259943D01*
X15624159Y23259943D02*
X15671778Y23164705D01*
X15671778Y23164705D02*
X15719397Y22974229D01*
X15719397Y22974229D02*
X15719397Y22736134D01*
X15719397Y22736134D02*
X15671778Y22545658D01*
X15671778Y22545658D02*
X15624159Y22450420D01*
X15624159Y22450420D02*
X15576540Y22402800D01*
X15576540Y22402800D02*
X15481302Y22355181D01*
X15481302Y22355181D02*
X15386064Y22355181D01*
X15386064Y22355181D02*
X15290826Y22402800D01*
X15290826Y22402800D02*
X15243207Y22450420D01*
X15243207Y22450420D02*
X15195588Y22545658D01*
X15195588Y22545658D02*
X15147969Y22736134D01*
X15147969Y22736134D02*
X15147969Y22974229D01*
X15147969Y22974229D02*
X15195588Y23164705D01*
X15195588Y23164705D02*
X15243207Y23259943D01*
X15243207Y23259943D02*
X15290826Y23307562D01*
X15290826Y23307562D02*
X15386064Y23355181D01*
X12290588Y12195181D02*
X11719160Y12195181D01*
X12004874Y12195181D02*
X12004874Y13195181D01*
X12004874Y13195181D02*
X11909636Y13052324D01*
X11909636Y13052324D02*
X11814398Y12957086D01*
X11814398Y12957086D02*
X11719160Y12909467D01*
X12766779Y12195181D02*
X12957255Y12195181D01*
X12957255Y12195181D02*
X13052493Y12242800D01*
X13052493Y12242800D02*
X13100112Y12290420D01*
X13100112Y12290420D02*
X13195350Y12433277D01*
X13195350Y12433277D02*
X13242969Y12623753D01*
X13242969Y12623753D02*
X13242969Y13004705D01*
X13242969Y13004705D02*
X13195350Y13099943D01*
X13195350Y13099943D02*
X13147731Y13147562D01*
X13147731Y13147562D02*
X13052493Y13195181D01*
X13052493Y13195181D02*
X12862017Y13195181D01*
X12862017Y13195181D02*
X12766779Y13147562D01*
X12766779Y13147562D02*
X12719160Y13099943D01*
X12719160Y13099943D02*
X12671541Y13004705D01*
X12671541Y13004705D02*
X12671541Y12766610D01*
X12671541Y12766610D02*
X12719160Y12671372D01*
X12719160Y12671372D02*
X12766779Y12623753D01*
X12766779Y12623753D02*
X12862017Y12576134D01*
X12862017Y12576134D02*
X13052493Y12576134D01*
X13052493Y12576134D02*
X13147731Y12623753D01*
X13147731Y12623753D02*
X13195350Y12671372D01*
X13195350Y12671372D02*
X13242969Y12766610D01*
X14385826Y13242800D02*
X13528684Y11957086D01*
X14719160Y12195181D02*
X14719160Y13195181D01*
X14719160Y13195181D02*
X14957255Y13195181D01*
X14957255Y13195181D02*
X15100112Y13147562D01*
X15100112Y13147562D02*
X15195350Y13052324D01*
X15195350Y13052324D02*
X15242969Y12957086D01*
X15242969Y12957086D02*
X15290588Y12766610D01*
X15290588Y12766610D02*
X15290588Y12623753D01*
X15290588Y12623753D02*
X15242969Y12433277D01*
X15242969Y12433277D02*
X15195350Y12338039D01*
X15195350Y12338039D02*
X15100112Y12242800D01*
X15100112Y12242800D02*
X14957255Y12195181D01*
X14957255Y12195181D02*
X14719160Y12195181D01*
X15719160Y12576134D02*
X16481065Y12576134D01*
X16100112Y12195181D02*
X16100112Y12957086D01*
X12290588Y9655181D02*
X11719160Y9655181D01*
X12004874Y9655181D02*
X12004874Y10655181D01*
X12004874Y10655181D02*
X11909636Y10512324D01*
X11909636Y10512324D02*
X11814398Y10417086D01*
X11814398Y10417086D02*
X11719160Y10369467D01*
X12862017Y10226610D02*
X12766779Y10274229D01*
X12766779Y10274229D02*
X12719160Y10321848D01*
X12719160Y10321848D02*
X12671541Y10417086D01*
X12671541Y10417086D02*
X12671541Y10464705D01*
X12671541Y10464705D02*
X12719160Y10559943D01*
X12719160Y10559943D02*
X12766779Y10607562D01*
X12766779Y10607562D02*
X12862017Y10655181D01*
X12862017Y10655181D02*
X13052493Y10655181D01*
X13052493Y10655181D02*
X13147731Y10607562D01*
X13147731Y10607562D02*
X13195350Y10559943D01*
X13195350Y10559943D02*
X13242969Y10464705D01*
X13242969Y10464705D02*
X13242969Y10417086D01*
X13242969Y10417086D02*
X13195350Y10321848D01*
X13195350Y10321848D02*
X13147731Y10274229D01*
X13147731Y10274229D02*
X13052493Y10226610D01*
X13052493Y10226610D02*
X12862017Y10226610D01*
X12862017Y10226610D02*
X12766779Y10178991D01*
X12766779Y10178991D02*
X12719160Y10131372D01*
X12719160Y10131372D02*
X12671541Y10036134D01*
X12671541Y10036134D02*
X12671541Y9845658D01*
X12671541Y9845658D02*
X12719160Y9750420D01*
X12719160Y9750420D02*
X12766779Y9702800D01*
X12766779Y9702800D02*
X12862017Y9655181D01*
X12862017Y9655181D02*
X13052493Y9655181D01*
X13052493Y9655181D02*
X13147731Y9702800D01*
X13147731Y9702800D02*
X13195350Y9750420D01*
X13195350Y9750420D02*
X13242969Y9845658D01*
X13242969Y9845658D02*
X13242969Y10036134D01*
X13242969Y10036134D02*
X13195350Y10131372D01*
X13195350Y10131372D02*
X13147731Y10178991D01*
X13147731Y10178991D02*
X13052493Y10226610D01*
X14385826Y10702800D02*
X13528684Y9417086D01*
X14719160Y9655181D02*
X14719160Y10655181D01*
X14719160Y10655181D02*
X14957255Y10655181D01*
X14957255Y10655181D02*
X15100112Y10607562D01*
X15100112Y10607562D02*
X15195350Y10512324D01*
X15195350Y10512324D02*
X15242969Y10417086D01*
X15242969Y10417086D02*
X15290588Y10226610D01*
X15290588Y10226610D02*
X15290588Y10083753D01*
X15290588Y10083753D02*
X15242969Y9893277D01*
X15242969Y9893277D02*
X15195350Y9798039D01*
X15195350Y9798039D02*
X15100112Y9702800D01*
X15100112Y9702800D02*
X14957255Y9655181D01*
X14957255Y9655181D02*
X14719160Y9655181D01*
X15719160Y10036134D02*
X16481065Y10036134D01*
X14243207Y4575181D02*
X13909874Y5051372D01*
X13671779Y4575181D02*
X13671779Y5575181D01*
X13671779Y5575181D02*
X14052731Y5575181D01*
X14052731Y5575181D02*
X14147969Y5527562D01*
X14147969Y5527562D02*
X14195588Y5479943D01*
X14195588Y5479943D02*
X14243207Y5384705D01*
X14243207Y5384705D02*
X14243207Y5241848D01*
X14243207Y5241848D02*
X14195588Y5146610D01*
X14195588Y5146610D02*
X14147969Y5098991D01*
X14147969Y5098991D02*
X14052731Y5051372D01*
X14052731Y5051372D02*
X13671779Y5051372D01*
X14576541Y5575181D02*
X15243207Y4575181D01*
X15243207Y5575181D02*
X14576541Y4575181D01*
X15624160Y4575181D02*
X15624160Y5575181D01*
X15624160Y5575181D02*
X15862255Y5575181D01*
X15862255Y5575181D02*
X16005112Y5527562D01*
X16005112Y5527562D02*
X16100350Y5432324D01*
X16100350Y5432324D02*
X16147969Y5337086D01*
X16147969Y5337086D02*
X16195588Y5146610D01*
X16195588Y5146610D02*
X16195588Y5003753D01*
X16195588Y5003753D02*
X16147969Y4813277D01*
X16147969Y4813277D02*
X16100350Y4718039D01*
X16100350Y4718039D02*
X16005112Y4622800D01*
X16005112Y4622800D02*
X15862255Y4575181D01*
X15862255Y4575181D02*
X15624160Y4575181D01*
X13528922Y8115181D02*
X14100350Y8115181D01*
X13814636Y7115181D02*
X13814636Y8115181D01*
X14338446Y8115181D02*
X15005112Y7115181D01*
X15005112Y8115181D02*
X14338446Y7115181D01*
X15386065Y7115181D02*
X15386065Y8115181D01*
X15386065Y8115181D02*
X15624160Y8115181D01*
X15624160Y8115181D02*
X15767017Y8067562D01*
X15767017Y8067562D02*
X15862255Y7972324D01*
X15862255Y7972324D02*
X15909874Y7877086D01*
X15909874Y7877086D02*
X15957493Y7686610D01*
X15957493Y7686610D02*
X15957493Y7543753D01*
X15957493Y7543753D02*
X15909874Y7353277D01*
X15909874Y7353277D02*
X15862255Y7258039D01*
X15862255Y7258039D02*
X15767017Y7162800D01*
X15767017Y7162800D02*
X15624160Y7115181D01*
X15624160Y7115181D02*
X15386065Y7115181D01*
X7210588Y2987562D02*
X7115350Y3035181D01*
X7115350Y3035181D02*
X6972493Y3035181D01*
X6972493Y3035181D02*
X6829636Y2987562D01*
X6829636Y2987562D02*
X6734398Y2892324D01*
X6734398Y2892324D02*
X6686779Y2797086D01*
X6686779Y2797086D02*
X6639160Y2606610D01*
X6639160Y2606610D02*
X6639160Y2463753D01*
X6639160Y2463753D02*
X6686779Y2273277D01*
X6686779Y2273277D02*
X6734398Y2178039D01*
X6734398Y2178039D02*
X6829636Y2082800D01*
X6829636Y2082800D02*
X6972493Y2035181D01*
X6972493Y2035181D02*
X7067731Y2035181D01*
X7067731Y2035181D02*
X7210588Y2082800D01*
X7210588Y2082800D02*
X7258207Y2130420D01*
X7258207Y2130420D02*
X7258207Y2463753D01*
X7258207Y2463753D02*
X7067731Y2463753D01*
X7686779Y2035181D02*
X7686779Y3035181D01*
X7686779Y3035181D02*
X8258207Y2035181D01*
X8258207Y2035181D02*
X8258207Y3035181D01*
X8734398Y2035181D02*
X8734398Y3035181D01*
X8734398Y3035181D02*
X8972493Y3035181D01*
X8972493Y3035181D02*
X9115350Y2987562D01*
X9115350Y2987562D02*
X9210588Y2892324D01*
X9210588Y2892324D02*
X9258207Y2797086D01*
X9258207Y2797086D02*
X9305826Y2606610D01*
X9305826Y2606610D02*
X9305826Y2463753D01*
X9305826Y2463753D02*
X9258207Y2273277D01*
X9258207Y2273277D02*
X9210588Y2178039D01*
X9210588Y2178039D02*
X9115350Y2082800D01*
X9115350Y2082800D02*
X8972493Y2035181D01*
X8972493Y2035181D02*
X8734398Y2035181D01*
X6686779Y20338991D02*
X7020112Y20338991D01*
X7162969Y19815181D02*
X6686779Y19815181D01*
X6686779Y19815181D02*
X6686779Y20815181D01*
X6686779Y20815181D02*
X7162969Y20815181D01*
X7591541Y19815181D02*
X7591541Y20815181D01*
X7591541Y20815181D02*
X8162969Y19815181D01*
X8162969Y19815181D02*
X8162969Y20815181D01*
X6591541Y23355181D02*
X7210588Y23355181D01*
X7210588Y23355181D02*
X6877255Y22974229D01*
X6877255Y22974229D02*
X7020112Y22974229D01*
X7020112Y22974229D02*
X7115350Y22926610D01*
X7115350Y22926610D02*
X7162969Y22878991D01*
X7162969Y22878991D02*
X7210588Y22783753D01*
X7210588Y22783753D02*
X7210588Y22545658D01*
X7210588Y22545658D02*
X7162969Y22450420D01*
X7162969Y22450420D02*
X7115350Y22402800D01*
X7115350Y22402800D02*
X7020112Y22355181D01*
X7020112Y22355181D02*
X6734398Y22355181D01*
X6734398Y22355181D02*
X6639160Y22402800D01*
X6639160Y22402800D02*
X6591541Y22450420D01*
X7496303Y23355181D02*
X7829636Y22355181D01*
X7829636Y22355181D02*
X8162969Y23355181D01*
X8401065Y23355181D02*
X9020112Y23355181D01*
X9020112Y23355181D02*
X8686779Y22974229D01*
X8686779Y22974229D02*
X8829636Y22974229D01*
X8829636Y22974229D02*
X8924874Y22926610D01*
X8924874Y22926610D02*
X8972493Y22878991D01*
X8972493Y22878991D02*
X9020112Y22783753D01*
X9020112Y22783753D02*
X9020112Y22545658D01*
X9020112Y22545658D02*
X8972493Y22450420D01*
X8972493Y22450420D02*
X8924874Y22402800D01*
X8924874Y22402800D02*
X8829636Y22355181D01*
X8829636Y22355181D02*
X8543922Y22355181D01*
X8543922Y22355181D02*
X8448684Y22402800D01*
X8448684Y22402800D02*
X8401065Y22450420D01*
X4746666Y23905181D02*
X4746666Y23190896D01*
X4746666Y23190896D02*
X4699047Y23048039D01*
X4699047Y23048039D02*
X4603809Y22952800D01*
X4603809Y22952800D02*
X4460952Y22905181D01*
X4460952Y22905181D02*
X4365714Y22905181D01*
X5175238Y23809943D02*
X5222857Y23857562D01*
X5222857Y23857562D02*
X5318095Y23905181D01*
X5318095Y23905181D02*
X5556190Y23905181D01*
X5556190Y23905181D02*
X5651428Y23857562D01*
X5651428Y23857562D02*
X5699047Y23809943D01*
X5699047Y23809943D02*
X5746666Y23714705D01*
X5746666Y23714705D02*
X5746666Y23619467D01*
X5746666Y23619467D02*
X5699047Y23476610D01*
X5699047Y23476610D02*
X5127619Y22905181D01*
X5127619Y22905181D02*
X5746666Y22905181D01*
X17446666Y23905181D02*
X17446666Y23190896D01*
X17446666Y23190896D02*
X17399047Y23048039D01*
X17399047Y23048039D02*
X17303809Y22952800D01*
X17303809Y22952800D02*
X17160952Y22905181D01*
X17160952Y22905181D02*
X17065714Y22905181D01*
X18446666Y22905181D02*
X17875238Y22905181D01*
X18160952Y22905181D02*
X18160952Y23905181D01*
X18160952Y23905181D02*
X18065714Y23762324D01*
X18065714Y23762324D02*
X17970476Y23667086D01*
X17970476Y23667086D02*
X17875238Y23619467D01*
X10733095Y48930181D02*
X10733095Y48120658D01*
X10733095Y48120658D02*
X10780714Y48025420D01*
X10780714Y48025420D02*
X10828333Y47977800D01*
X10828333Y47977800D02*
X10923571Y47930181D01*
X10923571Y47930181D02*
X11114047Y47930181D01*
X11114047Y47930181D02*
X11209285Y47977800D01*
X11209285Y47977800D02*
X11256904Y48025420D01*
X11256904Y48025420D02*
X11304523Y48120658D01*
X11304523Y48120658D02*
X11304523Y48930181D01*
X12304523Y47930181D02*
X11733095Y47930181D01*
X12018809Y47930181D02*
X12018809Y48930181D01*
X12018809Y48930181D02*
X11923571Y48787324D01*
X11923571Y48787324D02*
X11828333Y48692086D01*
X11828333Y48692086D02*
X11733095Y48644467D01*
X6733094Y43865896D02*
X7209284Y43865896D01*
X6637856Y43580181D02*
X6971189Y44580181D01*
X6971189Y44580181D02*
X7304522Y43580181D01*
X7637856Y44246848D02*
X7637856Y43580181D01*
X7637856Y44151610D02*
X7685475Y44199229D01*
X7685475Y44199229D02*
X7780713Y44246848D01*
X7780713Y44246848D02*
X7923570Y44246848D01*
X7923570Y44246848D02*
X8018808Y44199229D01*
X8018808Y44199229D02*
X8066427Y44103991D01*
X8066427Y44103991D02*
X8066427Y43580181D01*
X8399761Y44246848D02*
X8780713Y44246848D01*
X8542618Y44580181D02*
X8542618Y43723039D01*
X8542618Y43723039D02*
X8590237Y43627800D01*
X8590237Y43627800D02*
X8685475Y43580181D01*
X8685475Y43580181D02*
X8780713Y43580181D01*
X9494999Y43627800D02*
X9399761Y43580181D01*
X9399761Y43580181D02*
X9209285Y43580181D01*
X9209285Y43580181D02*
X9114047Y43627800D01*
X9114047Y43627800D02*
X9066428Y43723039D01*
X9066428Y43723039D02*
X9066428Y44103991D01*
X9066428Y44103991D02*
X9114047Y44199229D01*
X9114047Y44199229D02*
X9209285Y44246848D01*
X9209285Y44246848D02*
X9399761Y44246848D01*
X9399761Y44246848D02*
X9494999Y44199229D01*
X9494999Y44199229D02*
X9542618Y44103991D01*
X9542618Y44103991D02*
X9542618Y44008753D01*
X9542618Y44008753D02*
X9066428Y43913515D01*
X9971190Y44246848D02*
X9971190Y43580181D01*
X9971190Y44151610D02*
X10018809Y44199229D01*
X10018809Y44199229D02*
X10114047Y44246848D01*
X10114047Y44246848D02*
X10256904Y44246848D01*
X10256904Y44246848D02*
X10352142Y44199229D01*
X10352142Y44199229D02*
X10399761Y44103991D01*
X10399761Y44103991D02*
X10399761Y43580181D01*
X10875952Y44246848D02*
X10875952Y43580181D01*
X10875952Y44151610D02*
X10923571Y44199229D01*
X10923571Y44199229D02*
X11018809Y44246848D01*
X11018809Y44246848D02*
X11161666Y44246848D01*
X11161666Y44246848D02*
X11256904Y44199229D01*
X11256904Y44199229D02*
X11304523Y44103991D01*
X11304523Y44103991D02*
X11304523Y43580181D01*
X12209285Y43580181D02*
X12209285Y44103991D01*
X12209285Y44103991D02*
X12161666Y44199229D01*
X12161666Y44199229D02*
X12066428Y44246848D01*
X12066428Y44246848D02*
X11875952Y44246848D01*
X11875952Y44246848D02*
X11780714Y44199229D01*
X12209285Y43627800D02*
X12114047Y43580181D01*
X12114047Y43580181D02*
X11875952Y43580181D01*
X11875952Y43580181D02*
X11780714Y43627800D01*
X11780714Y43627800D02*
X11733095Y43723039D01*
X11733095Y43723039D02*
X11733095Y43818277D01*
X11733095Y43818277D02*
X11780714Y43913515D01*
X11780714Y43913515D02*
X11875952Y43961134D01*
X11875952Y43961134D02*
X12114047Y43961134D01*
X12114047Y43961134D02*
X12209285Y44008753D01*
X13399762Y43865896D02*
X13875952Y43865896D01*
X13304524Y43580181D02*
X13637857Y44580181D01*
X13637857Y44580181D02*
X13971190Y43580181D01*
X14304524Y43580181D02*
X14304524Y44246848D01*
X14304524Y44056372D02*
X14352143Y44151610D01*
X14352143Y44151610D02*
X14399762Y44199229D01*
X14399762Y44199229D02*
X14495000Y44246848D01*
X14495000Y44246848D02*
X14590238Y44246848D01*
X15304524Y43627800D02*
X15209286Y43580181D01*
X15209286Y43580181D02*
X15018810Y43580181D01*
X15018810Y43580181D02*
X14923572Y43627800D01*
X14923572Y43627800D02*
X14875953Y43723039D01*
X14875953Y43723039D02*
X14875953Y44103991D01*
X14875953Y44103991D02*
X14923572Y44199229D01*
X14923572Y44199229D02*
X15018810Y44246848D01*
X15018810Y44246848D02*
X15209286Y44246848D01*
X15209286Y44246848D02*
X15304524Y44199229D01*
X15304524Y44199229D02*
X15352143Y44103991D01*
X15352143Y44103991D02*
X15352143Y44008753D01*
X15352143Y44008753D02*
X14875953Y43913515D01*
X16209286Y43580181D02*
X16209286Y44103991D01*
X16209286Y44103991D02*
X16161667Y44199229D01*
X16161667Y44199229D02*
X16066429Y44246848D01*
X16066429Y44246848D02*
X15875953Y44246848D01*
X15875953Y44246848D02*
X15780715Y44199229D01*
X16209286Y43627800D02*
X16114048Y43580181D01*
X16114048Y43580181D02*
X15875953Y43580181D01*
X15875953Y43580181D02*
X15780715Y43627800D01*
X15780715Y43627800D02*
X15733096Y43723039D01*
X15733096Y43723039D02*
X15733096Y43818277D01*
X15733096Y43818277D02*
X15780715Y43913515D01*
X15780715Y43913515D02*
X15875953Y43961134D01*
X15875953Y43961134D02*
X16114048Y43961134D01*
X16114048Y43961134D02*
X16209286Y44008753D01*
D11*
%TO.C,U1*%
X20495000Y26635000D02*
X2495000Y26635000D01*
X20495000Y26885000D02*
X20495000Y26635000D01*
X20495000Y40635000D02*
X2545000Y40635000D01*
X20495000Y46635000D02*
X20495000Y40135000D01*
X2495000Y26635000D02*
X2495000Y26885000D01*
X2495000Y46635000D02*
X20495000Y46635000D01*
X2495000Y46635000D02*
X2495000Y40135000D01*
%TD*%
M02*
