%TF.GenerationSoftware,KiCad,Pcbnew,7.0.6*%
%TF.CreationDate,2023-07-20T15:13:03+09:00*%
%TF.ProjectId,esp32c3_test,65737033-3263-4335-9f74-6573742e6b69,rev?*%
%TF.SameCoordinates,PX7f2c270PY70a3730*%
%TF.FileFunction,Copper,L1,Top*%
%TF.FilePolarity,Positive*%
%FSLAX46Y46*%
G04 Gerber Fmt 4.6, Leading zero omitted, Abs format (unit mm)*
G04 Created by KiCad (PCBNEW 7.0.6) date 2023-07-20 15:13:03*
%MOMM*%
%LPD*%
G01*
G04 APERTURE LIST*
%TA.AperFunction,ComponentPad*%
%ADD10C,2.000000*%
%TD*%
%TA.AperFunction,SMDPad,CuDef*%
%ADD11R,0.700000X0.700000*%
%TD*%
%TA.AperFunction,SMDPad,CuDef*%
%ADD12R,1.500000X0.900000*%
%TD*%
%TA.AperFunction,ViaPad*%
%ADD13C,0.800000*%
%TD*%
%TA.AperFunction,Conductor*%
%ADD14C,0.250000*%
%TD*%
G04 APERTURE END LIST*
D10*
%TO.P,J2,1,Pin_1*%
%TO.N,+3.3V*%
X5080000Y22860000D03*
%TO.P,J2,2,Pin_2*%
%TO.N,Net-(J2-Pin_2)*%
X5080000Y20320000D03*
%TO.P,J2,3,Pin_3*%
%TO.N,Net-(J2-Pin_3)*%
X5080000Y17780000D03*
%TO.P,J2,4,Pin_4*%
%TO.N,Net-(J2-Pin_4)*%
X5080000Y15240000D03*
%TO.P,J2,5,Pin_5*%
%TO.N,Net-(J2-Pin_5)*%
X5080000Y12700000D03*
%TO.P,J2,6,Pin_6*%
%TO.N,Net-(J2-Pin_6)*%
X5080000Y10160000D03*
%TO.P,J2,7,Pin_7*%
%TO.N,Net-(J2-Pin_7)*%
X5080000Y7620000D03*
%TO.P,J2,8,Pin_8*%
%TO.N,Net-(J2-Pin_8)*%
X5080000Y5080000D03*
%TO.P,J2,9,Pin_9*%
%TO.N,GND*%
X5080000Y2540000D03*
%TD*%
%TO.P,J1,1,Pin_1*%
%TO.N,Net-(J1-Pin_1)*%
X17780000Y22860000D03*
%TO.P,J1,2,Pin_2*%
%TO.N,Net-(J1-Pin_2)*%
X17780000Y20320000D03*
%TO.P,J1,3,Pin_3*%
%TO.N,Net-(J1-Pin_3)*%
X17780000Y17780000D03*
%TO.P,J1,4,Pin_4*%
%TO.N,Net-(J1-Pin_4)*%
X17780000Y15240000D03*
%TO.P,J1,5,Pin_5*%
%TO.N,Net-(J1-Pin_5)*%
X17780000Y12700000D03*
%TO.P,J1,6,Pin_6*%
%TO.N,Net-(J1-Pin_6)*%
X17780000Y10160000D03*
%TO.P,J1,7,Pin_7*%
%TO.N,Net-(J1-Pin_7)*%
X17780000Y7620000D03*
%TO.P,J1,8,Pin_8*%
%TO.N,Net-(J1-Pin_8)*%
X17780000Y5080000D03*
%TO.P,J1,9,Pin_9*%
%TO.N,Net-(J1-Pin_9)*%
X17780000Y2540000D03*
%TD*%
D11*
%TO.P,U1,19,GND*%
%TO.N,GND*%
X13555000Y32235000D03*
X13555000Y33335000D03*
X13555000Y34435000D03*
X12405000Y32235000D03*
X12405000Y33335000D03*
X12405000Y34435000D03*
X11355000Y32235000D03*
X11355000Y33335000D03*
X11355000Y34435000D03*
D12*
%TO.P,U1,18,GPIO0/ADC1_CH0/XTAL_32K_P*%
%TO.N,Net-(J1-Pin_1)*%
X20245000Y39535000D03*
%TO.P,U1,17,GPIO1/ADC1_CH1/XTAL_32K_N*%
%TO.N,Net-(J1-Pin_2)*%
X20245000Y38035000D03*
%TO.P,U1,16,GPIO2/ADC1_CH2*%
%TO.N,Net-(J1-Pin_3)*%
X20245000Y36535000D03*
%TO.P,U1,15,GPIO3/ADC1_CH3*%
%TO.N,Net-(J1-Pin_4)*%
X20245000Y35035000D03*
%TO.P,U1,14,GPIO19/USB_D+*%
%TO.N,Net-(J1-Pin_5)*%
X20245000Y33535000D03*
%TO.P,U1,13,GPIO18/USB_D-*%
%TO.N,Net-(J1-Pin_6)*%
X20245000Y32035000D03*
%TO.P,U1,12,GPIO21/U0TXD*%
%TO.N,Net-(J1-Pin_7)*%
X20245000Y30535000D03*
%TO.P,U1,11,GPIO20/U0RXD*%
%TO.N,Net-(J1-Pin_8)*%
X20245000Y29035000D03*
%TO.P,U1,10,GPIO10*%
%TO.N,Net-(J1-Pin_9)*%
X20245000Y27535000D03*
%TO.P,U1,9,GND*%
%TO.N,GND*%
X2745000Y27535000D03*
%TO.P,U1,8,GPIO9*%
%TO.N,Net-(J2-Pin_8)*%
X2745000Y29035000D03*
%TO.P,U1,7,GPIO8*%
%TO.N,Net-(J2-Pin_7)*%
X2745000Y30535000D03*
%TO.P,U1,6,GPIO7*%
%TO.N,Net-(J2-Pin_6)*%
X2745000Y32035000D03*
%TO.P,U1,5,GPIO6*%
%TO.N,Net-(J2-Pin_5)*%
X2745000Y33535000D03*
%TO.P,U1,4,GPIO5/ADC2_CH0*%
%TO.N,Net-(J2-Pin_4)*%
X2745000Y35035000D03*
%TO.P,U1,3,GPIO4/ADC1_CH4*%
%TO.N,Net-(J2-Pin_3)*%
X2745000Y36535000D03*
%TO.P,U1,2,EN/CHIP_PU*%
%TO.N,Net-(J2-Pin_2)*%
X2745000Y38035000D03*
%TO.P,U1,1,3V3*%
%TO.N,+3.3V*%
X2745000Y39535000D03*
%TD*%
D13*
%TO.N,GND*%
X10795000Y4445000D03*
X10795000Y5715000D03*
X12065000Y5715000D03*
X12065000Y4445000D03*
X12700000Y3810000D03*
X11430000Y3810000D03*
X10160000Y3810000D03*
X10160000Y5080000D03*
X11430000Y5080000D03*
X12700000Y5080000D03*
X12700000Y6350000D03*
X11430000Y6350000D03*
X10160000Y6350000D03*
X5715000Y26670000D03*
X6350000Y27305000D03*
X6350000Y26035000D03*
X5080000Y26035000D03*
X5080000Y27305000D03*
%TO.N,Net-(J2-Pin_8)*%
X11280000Y11485000D03*
X6730000Y29110000D03*
%TO.N,Net-(J2-Pin_7)*%
X11380000Y13910000D03*
X6730000Y30660000D03*
%TO.N,Net-(J2-Pin_6)*%
X11405000Y16610000D03*
X6680000Y32010000D03*
%TO.N,Net-(J2-Pin_5)*%
X11634366Y19410998D03*
X6680000Y33360000D03*
%TO.N,Net-(J2-Pin_4)*%
X11555000Y21660000D03*
X6730000Y34860000D03*
%TO.N,Net-(J2-Pin_3)*%
X11505000Y22760000D03*
X6680000Y36610000D03*
%TO.N,Net-(J2-Pin_2)*%
X6730000Y38160000D03*
X11505000Y23960000D03*
%TO.N,+3.3V*%
X11505000Y25085000D03*
X5905000Y39560000D03*
%TO.N,Net-(J1-Pin_9)*%
X12555000Y8785000D03*
X17930000Y27510000D03*
%TO.N,Net-(J1-Pin_8)*%
X12480000Y11535000D03*
X17280000Y29110000D03*
%TO.N,Net-(J1-Pin_7)*%
X12630000Y13935000D03*
X17205000Y30560000D03*
%TO.N,Net-(J1-Pin_6)*%
X12630000Y16560000D03*
X17205000Y32160000D03*
%TO.N,Net-(J1-Pin_5)*%
X12632701Y19362701D03*
X17130000Y33610000D03*
%TO.N,Net-(J1-Pin_4)*%
X12580000Y21635000D03*
X17105000Y35085000D03*
%TO.N,Net-(J1-Pin_3)*%
X12555000Y22860000D03*
X17030000Y36485000D03*
%TO.N,Net-(J1-Pin_2)*%
X12556189Y24061809D03*
X17017299Y38022701D03*
%TO.N,Net-(J1-Pin_1)*%
X17555000Y39585000D03*
X12505000Y25060000D03*
%TD*%
D14*
%TO.N,+3.3V*%
X11505000Y25085000D02*
X11405000Y24985000D01*
X11405000Y24985000D02*
X7105000Y24985000D01*
X7105000Y24985000D02*
X7105000Y24885000D01*
X7105000Y24885000D02*
X5080000Y22860000D01*
%TO.N,Net-(J2-Pin_8)*%
X11280000Y11280000D02*
X5080000Y5080000D01*
X11280000Y11485000D02*
X11280000Y11280000D01*
X6655000Y29035000D02*
X6730000Y29110000D01*
X2745000Y29035000D02*
X6655000Y29035000D01*
%TO.N,Net-(J2-Pin_7)*%
X11370000Y13910000D02*
X5080000Y7620000D01*
X11380000Y13910000D02*
X11370000Y13910000D01*
X6605000Y30535000D02*
X6730000Y30660000D01*
X2745000Y30535000D02*
X6605000Y30535000D01*
%TO.N,Net-(J2-Pin_6)*%
X11405000Y16485000D02*
X5080000Y10160000D01*
X11405000Y16610000D02*
X11405000Y16485000D01*
X6655000Y32035000D02*
X6680000Y32010000D01*
X2745000Y32035000D02*
X6655000Y32035000D01*
%TO.N,Net-(J2-Pin_5)*%
X11634366Y19254366D02*
X5080000Y12700000D01*
X11634366Y19410998D02*
X11634366Y19254366D01*
X6505000Y33535000D02*
X6680000Y33360000D01*
X2745000Y33535000D02*
X6505000Y33535000D01*
%TO.N,Net-(J2-Pin_4)*%
X11500000Y21660000D02*
X5080000Y15240000D01*
X11555000Y21660000D02*
X11500000Y21660000D01*
X6555000Y35035000D02*
X6730000Y34860000D01*
X2745000Y35035000D02*
X6555000Y35035000D01*
%TO.N,Net-(J2-Pin_3)*%
X6525000Y17780000D02*
X5080000Y17780000D01*
X11505000Y22760000D02*
X6525000Y17780000D01*
X6605000Y36535000D02*
X6680000Y36610000D01*
X2745000Y36535000D02*
X6605000Y36535000D01*
%TO.N,Net-(J2-Pin_2)*%
X7865000Y20320000D02*
X5080000Y20320000D01*
X11505000Y23960000D02*
X7865000Y20320000D01*
X6605000Y38035000D02*
X6730000Y38160000D01*
X2745000Y38035000D02*
X6605000Y38035000D01*
%TO.N,+3.3V*%
X5880000Y39535000D02*
X5905000Y39560000D01*
X2745000Y39535000D02*
X5880000Y39535000D01*
%TO.N,Net-(J1-Pin_9)*%
X12555000Y7765000D02*
X17780000Y2540000D01*
X12555000Y8785000D02*
X12555000Y7765000D01*
X17955000Y27535000D02*
X17930000Y27510000D01*
X20245000Y27535000D02*
X17955000Y27535000D01*
%TO.N,Net-(J1-Pin_8)*%
X12480000Y10380000D02*
X17780000Y5080000D01*
X12480000Y11535000D02*
X12480000Y10380000D01*
X17355000Y29035000D02*
X17280000Y29110000D01*
X20245000Y29035000D02*
X17355000Y29035000D01*
%TO.N,Net-(J1-Pin_7)*%
X12630000Y12770000D02*
X17780000Y7620000D01*
X17230000Y30535000D02*
X17205000Y30560000D01*
X20245000Y30535000D02*
X17230000Y30535000D01*
X12630000Y13935000D02*
X12630000Y12770000D01*
%TO.N,Net-(J1-Pin_6)*%
X12630000Y15310000D02*
X17780000Y10160000D01*
X12630000Y16560000D02*
X12630000Y15310000D01*
X17330000Y32035000D02*
X17205000Y32160000D01*
X20245000Y32035000D02*
X17330000Y32035000D01*
%TO.N,Net-(J1-Pin_5)*%
X12632701Y17847299D02*
X17780000Y12700000D01*
X12632701Y19362701D02*
X12632701Y17847299D01*
X17205000Y33535000D02*
X17130000Y33610000D01*
X20245000Y33535000D02*
X17205000Y33535000D01*
%TO.N,Net-(J1-Pin_4)*%
X12580000Y20440000D02*
X17780000Y15240000D01*
X12580000Y21635000D02*
X12580000Y20440000D01*
X17155000Y35035000D02*
X17105000Y35085000D01*
X20245000Y35035000D02*
X17155000Y35035000D01*
%TO.N,Net-(J1-Pin_3)*%
X12555000Y22860000D02*
X12700000Y22860000D01*
X12700000Y22860000D02*
X17780000Y17780000D01*
X17080000Y36535000D02*
X17030000Y36485000D01*
X20245000Y36535000D02*
X17080000Y36535000D01*
%TO.N,Net-(J1-Pin_2)*%
X16297998Y20320000D02*
X17780000Y20320000D01*
X12556189Y24061809D02*
X16297998Y20320000D01*
X17029598Y38035000D02*
X17017299Y38022701D01*
X20245000Y38035000D02*
X17029598Y38035000D01*
%TO.N,Net-(J1-Pin_1)*%
X12505000Y25060000D02*
X15580000Y25060000D01*
X17605000Y39535000D02*
X17555000Y39585000D01*
X15580000Y25060000D02*
X17780000Y22860000D01*
X20245000Y39535000D02*
X17605000Y39535000D01*
%TD*%
%TA.AperFunction,Conductor*%
%TO.N,GND*%
G36*
X11804591Y10644739D02*
G01*
X11841804Y10585604D01*
X11846500Y10551803D01*
X11846500Y10463634D01*
X11844761Y10447887D01*
X11845032Y10447861D01*
X11844298Y10440095D01*
X11846500Y10370043D01*
X11846500Y10340141D01*
X11847384Y10333144D01*
X11847842Y10327321D01*
X11849326Y10280111D01*
X11849327Y10280109D01*
X11855022Y10260505D01*
X11858967Y10241458D01*
X11861526Y10221203D01*
X11861527Y10221200D01*
X11861528Y10221197D01*
X11878914Y10177284D01*
X11880806Y10171756D01*
X11893981Y10126408D01*
X11904372Y10108838D01*
X11912932Y10091365D01*
X11920447Y10072383D01*
X11948209Y10034173D01*
X11951416Y10029290D01*
X11975458Y9988638D01*
X11975462Y9988634D01*
X11989889Y9974207D01*
X12002526Y9959412D01*
X12014528Y9942893D01*
X12050931Y9912778D01*
X12055231Y9908865D01*
X12171143Y9792953D01*
X12171144Y9792952D01*
X12204629Y9731629D01*
X12199645Y9661937D01*
X12157773Y9606004D01*
X12133901Y9591993D01*
X12098250Y9576120D01*
X12098248Y9576119D01*
X11943745Y9463865D01*
X11815959Y9321943D01*
X11720473Y9156557D01*
X11720470Y9156550D01*
X11666972Y8991898D01*
X11661458Y8974928D01*
X11641496Y8785000D01*
X11661458Y8595072D01*
X11661459Y8595069D01*
X11720470Y8413451D01*
X11720473Y8413444D01*
X11815960Y8248056D01*
X11889649Y8166216D01*
X11919880Y8103225D01*
X11921500Y8083244D01*
X11921500Y7848634D01*
X11919761Y7832887D01*
X11920032Y7832861D01*
X11919298Y7825095D01*
X11921500Y7755043D01*
X11921500Y7725141D01*
X11922384Y7718144D01*
X11922842Y7712321D01*
X11924326Y7665111D01*
X11924327Y7665109D01*
X11930022Y7645505D01*
X11933967Y7626458D01*
X11936526Y7606203D01*
X11936527Y7606200D01*
X11936528Y7606197D01*
X11953914Y7562284D01*
X11955806Y7556756D01*
X11968981Y7511408D01*
X11979372Y7493838D01*
X11987932Y7476365D01*
X11995447Y7457383D01*
X12023209Y7419173D01*
X12026416Y7414290D01*
X12050458Y7373638D01*
X12050462Y7373634D01*
X12064889Y7359207D01*
X12077526Y7344412D01*
X12089528Y7327893D01*
X12125931Y7297778D01*
X12130231Y7293865D01*
X15389336Y4034759D01*
X16306428Y3117667D01*
X16339913Y3056344D01*
X16339321Y3001039D01*
X16285465Y2776715D01*
X16266835Y2540000D01*
X16285465Y2303286D01*
X16340895Y2072405D01*
X16340895Y2072403D01*
X16431757Y1853041D01*
X16431759Y1853038D01*
X16555820Y1650590D01*
X16555821Y1650587D01*
X16706187Y1474532D01*
X16734758Y1410770D01*
X16724321Y1341685D01*
X16678190Y1289209D01*
X16611897Y1270000D01*
X6047809Y1270000D01*
X5980770Y1289685D01*
X5960128Y1306319D01*
X5212533Y2053914D01*
X5222315Y2055320D01*
X5353100Y2115048D01*
X5461761Y2209202D01*
X5539493Y2330156D01*
X5563076Y2410476D01*
X6303434Y1670118D01*
X6403731Y1823631D01*
X6503587Y2051283D01*
X6564612Y2292262D01*
X6564614Y2292271D01*
X6585141Y2539995D01*
X6585141Y2540006D01*
X6564614Y2787730D01*
X6564612Y2787739D01*
X6503587Y3028718D01*
X6403731Y3256370D01*
X6303434Y3409884D01*
X5563076Y2669525D01*
X5539493Y2749844D01*
X5461761Y2870798D01*
X5353100Y2964952D01*
X5222315Y3024680D01*
X5212534Y3026087D01*
X5950056Y3763610D01*
X5949430Y3773702D01*
X5964922Y3841832D01*
X5992658Y3875675D01*
X6149969Y4010031D01*
X6304176Y4190584D01*
X6428240Y4393037D01*
X6519105Y4612406D01*
X6574535Y4843289D01*
X6593165Y5080000D01*
X6574535Y5316711D01*
X6520678Y5541042D01*
X6524169Y5610823D01*
X6553569Y5657667D01*
X11472594Y10576691D01*
X11533915Y10610174D01*
X11534493Y10610298D01*
X11540230Y10611518D01*
X11562288Y10616206D01*
X11672066Y10665083D01*
X11741314Y10674367D01*
X11804591Y10644739D01*
G37*
%TD.AperFunction*%
%TA.AperFunction,Conductor*%
G36*
X4014528Y4006190D02*
G01*
X4167340Y3875677D01*
X4205532Y3817171D01*
X4210569Y3773703D01*
X4209942Y3763610D01*
X4947466Y3026087D01*
X4937685Y3024680D01*
X4806900Y2964952D01*
X4698239Y2870798D01*
X4620507Y2749844D01*
X4596923Y2669525D01*
X3846319Y3420129D01*
X3812834Y3481452D01*
X3810000Y3507810D01*
X3810000Y3911898D01*
X3829685Y3978937D01*
X3882489Y4024692D01*
X3951647Y4034636D01*
X4014528Y4006190D01*
G37*
%TD.AperFunction*%
%TA.AperFunction,Conductor*%
G36*
X17163372Y40615315D02*
G01*
X17209127Y40562511D01*
X17219071Y40493353D01*
X17190046Y40429797D01*
X17146769Y40397721D01*
X17098248Y40376119D01*
X16943745Y40263865D01*
X16815959Y40121943D01*
X16720473Y39956557D01*
X16720470Y39956550D01*
X16661459Y39774932D01*
X16661458Y39774928D01*
X16641496Y39585000D01*
X16661458Y39395072D01*
X16661459Y39395069D01*
X16720470Y39213451D01*
X16720475Y39213439D01*
X16802721Y39070984D01*
X16819194Y39003084D01*
X16796341Y38937057D01*
X16741420Y38893867D01*
X16735631Y38891772D01*
X16560543Y38813817D01*
X16406044Y38701566D01*
X16278258Y38559644D01*
X16182772Y38394258D01*
X16182769Y38394251D01*
X16123758Y38212633D01*
X16123757Y38212629D01*
X16103795Y38022701D01*
X16123757Y37832773D01*
X16123758Y37832770D01*
X16182769Y37651152D01*
X16182772Y37651145D01*
X16278259Y37485757D01*
X16332105Y37425955D01*
X16406044Y37343836D01*
X16410400Y37339914D01*
X16447049Y37280428D01*
X16445720Y37210571D01*
X16419579Y37164791D01*
X16290959Y37021943D01*
X16195473Y36856557D01*
X16195470Y36856550D01*
X16136459Y36674932D01*
X16136458Y36674928D01*
X16116496Y36485000D01*
X16136458Y36295072D01*
X16136459Y36295069D01*
X16195470Y36113451D01*
X16195473Y36113444D01*
X16290960Y35948056D01*
X16376115Y35853482D01*
X16400567Y35826325D01*
X16430797Y35763334D01*
X16422172Y35693998D01*
X16400568Y35660382D01*
X16365963Y35621950D01*
X16365958Y35621943D01*
X16270473Y35456557D01*
X16270470Y35456550D01*
X16212650Y35278597D01*
X16211458Y35274928D01*
X16191496Y35085000D01*
X16211458Y34895072D01*
X16211459Y34895069D01*
X16270470Y34713451D01*
X16270473Y34713444D01*
X16365959Y34548057D01*
X16484332Y34416589D01*
X16514562Y34353597D01*
X16505936Y34284262D01*
X16484332Y34250645D01*
X16390959Y34146943D01*
X16295473Y33981557D01*
X16295470Y33981550D01*
X16236459Y33799932D01*
X16236458Y33799928D01*
X16216496Y33610000D01*
X16236458Y33420072D01*
X16236459Y33420069D01*
X16295470Y33238451D01*
X16295473Y33238444D01*
X16390960Y33073056D01*
X16451784Y33005504D01*
X16523077Y32926324D01*
X16553307Y32863332D01*
X16544681Y32793997D01*
X16523078Y32760381D01*
X16465958Y32696943D01*
X16370473Y32531557D01*
X16370470Y32531550D01*
X16311459Y32349932D01*
X16311458Y32349928D01*
X16291496Y32160000D01*
X16311458Y31970072D01*
X16311459Y31970069D01*
X16370470Y31788451D01*
X16370473Y31788444D01*
X16465960Y31623056D01*
X16593747Y31481134D01*
X16622398Y31460318D01*
X16665063Y31404987D01*
X16671042Y31335374D01*
X16638436Y31273579D01*
X16622398Y31259682D01*
X16593745Y31238865D01*
X16465959Y31096943D01*
X16370473Y30931557D01*
X16370470Y30931550D01*
X16343950Y30849928D01*
X16311458Y30749928D01*
X16291496Y30560000D01*
X16311458Y30370072D01*
X16311459Y30370069D01*
X16370470Y30188451D01*
X16370473Y30188444D01*
X16465960Y30023056D01*
X16526784Y29955504D01*
X16598077Y29876324D01*
X16628307Y29813332D01*
X16619681Y29743997D01*
X16598078Y29710381D01*
X16540958Y29646943D01*
X16445473Y29481557D01*
X16445470Y29481550D01*
X16386459Y29299932D01*
X16386458Y29299928D01*
X16366496Y29110000D01*
X16386458Y28920072D01*
X16386459Y28920069D01*
X16445470Y28738451D01*
X16445473Y28738444D01*
X16540960Y28573056D01*
X16668747Y28431134D01*
X16823248Y28318882D01*
X16997712Y28241206D01*
X16997714Y28241206D01*
X16997715Y28241205D01*
X17040072Y28232202D01*
X17102792Y28218871D01*
X17164273Y28185679D01*
X17198050Y28124516D01*
X17193398Y28054802D01*
X17184399Y28035582D01*
X17095472Y27881554D01*
X17095470Y27881550D01*
X17036459Y27699932D01*
X17036458Y27699928D01*
X17016496Y27510000D01*
X17036458Y27320072D01*
X17036459Y27320069D01*
X17095470Y27138451D01*
X17095473Y27138444D01*
X17190960Y26973056D01*
X17259332Y26897121D01*
X17308146Y26842907D01*
X17318747Y26831134D01*
X17473248Y26718882D01*
X17647712Y26641206D01*
X17834513Y26601500D01*
X18025487Y26601500D01*
X18212288Y26641206D01*
X18386752Y26718882D01*
X18541253Y26831134D01*
X18541258Y26831139D01*
X18567670Y26860472D01*
X18627157Y26897121D01*
X18659820Y26901500D01*
X18936299Y26901500D01*
X19003338Y26881815D01*
X19037608Y26845008D01*
X19038796Y26845896D01*
X19044110Y26838797D01*
X19044111Y26838796D01*
X19131739Y26721739D01*
X19248796Y26634111D01*
X19336229Y26601500D01*
X19380463Y26585001D01*
X19385799Y26583011D01*
X19413050Y26580082D01*
X19446345Y26576501D01*
X19446362Y26576500D01*
X20831000Y26576500D01*
X20898039Y26556815D01*
X20943794Y26504011D01*
X20955000Y26452500D01*
X20955000Y26159000D01*
X20935315Y26091961D01*
X20882511Y26046206D01*
X20831000Y26035000D01*
X19050000Y26035000D01*
X19050000Y24028103D01*
X19030315Y23961064D01*
X18977511Y23915309D01*
X18908353Y23905365D01*
X18845468Y23933813D01*
X18669413Y24084179D01*
X18669410Y24084180D01*
X18466962Y24208241D01*
X18466959Y24208243D01*
X18247596Y24299105D01*
X18016714Y24354535D01*
X17839177Y24368508D01*
X17780000Y24373165D01*
X17779999Y24373165D01*
X17543285Y24354535D01*
X17318960Y24300679D01*
X17249177Y24304170D01*
X17202332Y24333572D01*
X16087088Y25448817D01*
X16077184Y25461181D01*
X16076974Y25461006D01*
X16072001Y25467017D01*
X16061370Y25477000D01*
X16020920Y25514984D01*
X16010346Y25525559D01*
X15999773Y25536133D01*
X15999770Y25536135D01*
X15994188Y25540466D01*
X15989751Y25544256D01*
X15955322Y25576586D01*
X15955319Y25576588D01*
X15937431Y25586422D01*
X15921170Y25597103D01*
X15905039Y25609616D01*
X15861693Y25628373D01*
X15856445Y25630944D01*
X15829251Y25645894D01*
X15815060Y25653695D01*
X15811660Y25654568D01*
X15795287Y25658772D01*
X15776881Y25665074D01*
X15758144Y25673182D01*
X15758146Y25673182D01*
X15711496Y25680570D01*
X15705781Y25681754D01*
X15685612Y25686932D01*
X15660032Y25693500D01*
X15660030Y25693500D01*
X15639616Y25693500D01*
X15620217Y25695027D01*
X15600058Y25698220D01*
X15600057Y25698220D01*
X15553034Y25693775D01*
X15547196Y25693500D01*
X13212309Y25693500D01*
X13145270Y25713185D01*
X13120160Y25734527D01*
X13116254Y25738865D01*
X13081844Y25763866D01*
X12961752Y25851118D01*
X12787288Y25928794D01*
X12787286Y25928795D01*
X12600487Y25968500D01*
X12409513Y25968500D01*
X12222714Y25928795D01*
X12081354Y25865858D01*
X12012104Y25856574D01*
X11968359Y25874570D01*
X11967378Y25872870D01*
X11961752Y25876119D01*
X11829480Y25935009D01*
X11787288Y25953794D01*
X11787286Y25953795D01*
X11600487Y25993500D01*
X11409513Y25993500D01*
X11222714Y25953795D01*
X11048246Y25876117D01*
X10893745Y25763865D01*
X10818747Y25680570D01*
X10801306Y25661199D01*
X10799801Y25659528D01*
X10740315Y25622879D01*
X10707651Y25618500D01*
X7176605Y25618500D01*
X7153374Y25620696D01*
X7145096Y25622275D01*
X7145092Y25622275D01*
X7136042Y25621706D01*
X7087019Y25618622D01*
X7083147Y25618500D01*
X7065144Y25618500D01*
X7061601Y25618053D01*
X7047280Y25616245D01*
X7043408Y25615879D01*
X6985351Y25612226D01*
X6985349Y25612225D01*
X6977329Y25609619D01*
X6954563Y25604531D01*
X6952776Y25604305D01*
X6946206Y25603475D01*
X6946203Y25603475D01*
X6946203Y25603474D01*
X6932694Y25598126D01*
X6892129Y25582066D01*
X6888467Y25580748D01*
X6833129Y25562766D01*
X6833119Y25562761D01*
X6826003Y25558245D01*
X6805221Y25547656D01*
X6797383Y25544552D01*
X6797380Y25544551D01*
X6797378Y25544549D01*
X6750330Y25510368D01*
X6747111Y25508180D01*
X6697986Y25477004D01*
X6697978Y25476997D01*
X6692207Y25470851D01*
X6674710Y25455425D01*
X6667893Y25450473D01*
X6667893Y25450472D01*
X6630811Y25405649D01*
X6628236Y25402728D01*
X6588416Y25360325D01*
X6588413Y25360321D01*
X6584355Y25352938D01*
X6571241Y25333642D01*
X6565866Y25327145D01*
X6541097Y25274509D01*
X6539330Y25271041D01*
X6511305Y25220061D01*
X6511302Y25220055D01*
X6509207Y25211893D01*
X6501304Y25189943D01*
X6499203Y25185478D01*
X6474685Y25150592D01*
X5657666Y24333573D01*
X5596343Y24300088D01*
X5541038Y24300680D01*
X5316714Y24354535D01*
X5080000Y24373165D01*
X4843285Y24354535D01*
X4612404Y24299105D01*
X4612402Y24299105D01*
X4393040Y24208243D01*
X4393037Y24208241D01*
X4190589Y24084180D01*
X4190586Y24084179D01*
X4014532Y23933813D01*
X3950770Y23905242D01*
X3881685Y23915679D01*
X3829209Y23961810D01*
X3810000Y24028103D01*
X3810000Y26035000D01*
X2029000Y26035000D01*
X1961961Y26054685D01*
X1916206Y26107489D01*
X1905000Y26159000D01*
X1905000Y26461000D01*
X1924685Y26528039D01*
X1977489Y26573794D01*
X2029000Y26585000D01*
X2495000Y26585000D01*
X2495000Y27285000D01*
X2995000Y27285000D01*
X2995000Y26585000D01*
X3542828Y26585000D01*
X3542844Y26585001D01*
X3602372Y26591402D01*
X3602379Y26591404D01*
X3737086Y26641646D01*
X3737093Y26641650D01*
X3852187Y26727810D01*
X3852190Y26727813D01*
X3938350Y26842907D01*
X3938354Y26842914D01*
X3988596Y26977621D01*
X3988598Y26977628D01*
X3994999Y27037156D01*
X3995000Y27037173D01*
X3995000Y27285000D01*
X2995000Y27285000D01*
X2495000Y27285000D01*
X2495000Y27661000D01*
X2514685Y27728039D01*
X2567489Y27773794D01*
X2619000Y27785000D01*
X3995000Y27785000D01*
X3995000Y28032828D01*
X3994999Y28032845D01*
X3988598Y28092373D01*
X3988597Y28092377D01*
X3936445Y28232202D01*
X3931461Y28301894D01*
X3943808Y28334987D01*
X3944881Y28336951D01*
X3994298Y28386346D01*
X4053700Y28401500D01*
X6119244Y28401500D01*
X6186283Y28381815D01*
X6192129Y28377818D01*
X6273243Y28318885D01*
X6273245Y28318884D01*
X6273248Y28318882D01*
X6447712Y28241206D01*
X6634513Y28201500D01*
X6825487Y28201500D01*
X7012288Y28241206D01*
X7186752Y28318882D01*
X7341253Y28431134D01*
X7469040Y28573056D01*
X7564527Y28738444D01*
X7623542Y28920072D01*
X7643504Y29110000D01*
X7623542Y29299928D01*
X7564527Y29481556D01*
X7469040Y29646944D01*
X7341253Y29788866D01*
X7341252Y29788867D01*
X7336835Y29792844D01*
X7300182Y29852328D01*
X7301507Y29922185D01*
X7336835Y29977156D01*
X7341246Y29981130D01*
X7341253Y29981134D01*
X7469040Y30123056D01*
X7564527Y30288444D01*
X7623542Y30470072D01*
X7643504Y30660000D01*
X7623542Y30849928D01*
X7564527Y31031556D01*
X7469040Y31196944D01*
X7394442Y31279794D01*
X7364212Y31342786D01*
X7372838Y31412121D01*
X7394443Y31445739D01*
X7419040Y31473056D01*
X7514527Y31638444D01*
X7573542Y31820072D01*
X7590876Y31985000D01*
X10505000Y31985000D01*
X10505000Y31837156D01*
X10511401Y31777628D01*
X10511403Y31777621D01*
X10561645Y31642914D01*
X10561649Y31642907D01*
X10647809Y31527813D01*
X10647812Y31527810D01*
X10762906Y31441650D01*
X10762913Y31441646D01*
X10897620Y31391404D01*
X10897627Y31391402D01*
X10957155Y31385001D01*
X10957172Y31385000D01*
X11105000Y31385000D01*
X11105000Y31985000D01*
X11605000Y31985000D01*
X11605000Y31385000D01*
X11752828Y31385000D01*
X11752844Y31385001D01*
X11812372Y31391402D01*
X11812375Y31391403D01*
X11836665Y31400462D01*
X11906356Y31405448D01*
X11923335Y31400462D01*
X11947624Y31391403D01*
X11947627Y31391402D01*
X12007155Y31385001D01*
X12007172Y31385000D01*
X12155000Y31385000D01*
X12155000Y31985000D01*
X12655000Y31985000D01*
X12655000Y31385000D01*
X12802828Y31385000D01*
X12802844Y31385001D01*
X12862371Y31391402D01*
X12936666Y31419112D01*
X13006358Y31424096D01*
X13023334Y31419112D01*
X13097628Y31391402D01*
X13097627Y31391402D01*
X13157155Y31385001D01*
X13157172Y31385000D01*
X13305000Y31385000D01*
X13305000Y31985000D01*
X13805000Y31985000D01*
X13805000Y31385000D01*
X13952828Y31385000D01*
X13952844Y31385001D01*
X14012372Y31391402D01*
X14012379Y31391404D01*
X14147086Y31441646D01*
X14147093Y31441650D01*
X14262187Y31527810D01*
X14262190Y31527813D01*
X14348350Y31642907D01*
X14348354Y31642914D01*
X14398596Y31777621D01*
X14398598Y31777628D01*
X14404999Y31837156D01*
X14405000Y31837173D01*
X14405000Y31985000D01*
X13805000Y31985000D01*
X13305000Y31985000D01*
X12655000Y31985000D01*
X12155000Y31985000D01*
X11605000Y31985000D01*
X11105000Y31985000D01*
X10505000Y31985000D01*
X7590876Y31985000D01*
X7593504Y32010000D01*
X7573542Y32199928D01*
X7514527Y32381556D01*
X7419040Y32546944D01*
X7369441Y32602029D01*
X7339212Y32665018D01*
X7347836Y32734354D01*
X7369440Y32767971D01*
X7419040Y32823056D01*
X7514527Y32988444D01*
X7545900Y33085000D01*
X10505000Y33085000D01*
X10505000Y32937156D01*
X10511401Y32877628D01*
X10511403Y32877620D01*
X10529786Y32828333D01*
X10534770Y32758641D01*
X10529786Y32741667D01*
X10511403Y32692381D01*
X10511401Y32692373D01*
X10505000Y32632845D01*
X10505000Y32485000D01*
X11105000Y32485000D01*
X11105000Y33085000D01*
X11605000Y33085000D01*
X11605000Y32485000D01*
X12155000Y32485000D01*
X12155000Y33085000D01*
X12655000Y33085000D01*
X12655000Y32485000D01*
X13305000Y32485000D01*
X13305000Y33085000D01*
X13805000Y33085000D01*
X13805000Y32485000D01*
X14405000Y32485000D01*
X14405000Y32632828D01*
X14404999Y32632845D01*
X14398597Y32692378D01*
X14398597Y32692380D01*
X14380214Y32741666D01*
X14375229Y32811358D01*
X14380214Y32828337D01*
X14398598Y32877624D01*
X14404999Y32937156D01*
X14405000Y32937173D01*
X14405000Y33085000D01*
X13805000Y33085000D01*
X13305000Y33085000D01*
X12655000Y33085000D01*
X12155000Y33085000D01*
X11605000Y33085000D01*
X11105000Y33085000D01*
X10505000Y33085000D01*
X7545900Y33085000D01*
X7573542Y33170072D01*
X7593504Y33360000D01*
X7573542Y33549928D01*
X7514527Y33731556D01*
X7419040Y33896944D01*
X7325737Y34000568D01*
X7295507Y34063560D01*
X7304132Y34132895D01*
X7337969Y34175078D01*
X7336428Y34176789D01*
X7341253Y34181134D01*
X7344734Y34185000D01*
X10505000Y34185000D01*
X10505000Y34037156D01*
X10511401Y33977628D01*
X10511403Y33977621D01*
X10529786Y33928334D01*
X10534770Y33858643D01*
X10529787Y33841670D01*
X10511401Y33792375D01*
X10505000Y33732845D01*
X10505000Y33585000D01*
X11105000Y33585000D01*
X11105000Y34185000D01*
X11605000Y34185000D01*
X11605000Y33585000D01*
X12155000Y33585000D01*
X12155000Y34185000D01*
X12655000Y34185000D01*
X12655000Y33585000D01*
X13305000Y33585000D01*
X13305000Y34185000D01*
X13805000Y34185000D01*
X13805000Y33585000D01*
X14405000Y33585000D01*
X14405000Y33732828D01*
X14404999Y33732845D01*
X14398598Y33792373D01*
X14398597Y33792377D01*
X14380213Y33841667D01*
X14375229Y33911359D01*
X14380213Y33928335D01*
X14398598Y33977629D01*
X14404999Y34037156D01*
X14405000Y34037173D01*
X14405000Y34185000D01*
X13805000Y34185000D01*
X13305000Y34185000D01*
X12655000Y34185000D01*
X12155000Y34185000D01*
X11605000Y34185000D01*
X11105000Y34185000D01*
X10505000Y34185000D01*
X7344734Y34185000D01*
X7386336Y34231204D01*
X7469040Y34323056D01*
X7564527Y34488444D01*
X7623542Y34670072D01*
X7625111Y34685000D01*
X10505000Y34685000D01*
X11105000Y34685000D01*
X11105000Y35285000D01*
X11605000Y35285000D01*
X11605000Y34685000D01*
X12155000Y34685000D01*
X12155000Y35285000D01*
X12655000Y35285000D01*
X12655000Y34685000D01*
X13305000Y34685000D01*
X13305000Y35285000D01*
X13805000Y35285000D01*
X13805000Y34685000D01*
X14405000Y34685000D01*
X14405000Y34832828D01*
X14404999Y34832845D01*
X14398598Y34892373D01*
X14398596Y34892380D01*
X14348354Y35027087D01*
X14348350Y35027094D01*
X14262190Y35142188D01*
X14262187Y35142191D01*
X14147093Y35228351D01*
X14147086Y35228355D01*
X14012379Y35278597D01*
X14012372Y35278599D01*
X13952844Y35285000D01*
X13805000Y35285000D01*
X13305000Y35285000D01*
X13157155Y35285000D01*
X13097627Y35278599D01*
X13097617Y35278597D01*
X13023332Y35250890D01*
X12953641Y35245906D01*
X12936668Y35250890D01*
X12862382Y35278597D01*
X12862372Y35278599D01*
X12802844Y35285000D01*
X12655000Y35285000D01*
X12155000Y35285000D01*
X12007155Y35285000D01*
X11947627Y35278599D01*
X11947620Y35278597D01*
X11923331Y35269538D01*
X11853639Y35264555D01*
X11836669Y35269538D01*
X11812379Y35278597D01*
X11812372Y35278599D01*
X11752844Y35285000D01*
X11605000Y35285000D01*
X11105000Y35285000D01*
X10957155Y35285000D01*
X10897627Y35278599D01*
X10897620Y35278597D01*
X10762913Y35228355D01*
X10762906Y35228351D01*
X10647812Y35142191D01*
X10647809Y35142188D01*
X10561649Y35027094D01*
X10561645Y35027087D01*
X10511403Y34892380D01*
X10511401Y34892373D01*
X10505000Y34832845D01*
X10505000Y34685000D01*
X7625111Y34685000D01*
X7643504Y34860000D01*
X7623542Y35049928D01*
X7564527Y35231556D01*
X7469040Y35396944D01*
X7341253Y35538866D01*
X7186752Y35651118D01*
X7186750Y35651119D01*
X7184373Y35652846D01*
X7141708Y35708176D01*
X7135729Y35777789D01*
X7168335Y35839584D01*
X7184370Y35853480D01*
X7291253Y35931134D01*
X7419040Y36073056D01*
X7514527Y36238444D01*
X7573542Y36420072D01*
X7593504Y36610000D01*
X7573542Y36799928D01*
X7514527Y36981556D01*
X7419040Y37146944D01*
X7298520Y37280795D01*
X7268291Y37343785D01*
X7276916Y37413121D01*
X7317783Y37464083D01*
X7341253Y37481134D01*
X7469040Y37623056D01*
X7564527Y37788444D01*
X7623542Y37970072D01*
X7643504Y38160000D01*
X7623542Y38349928D01*
X7564527Y38531556D01*
X7469040Y38696944D01*
X7341253Y38838866D01*
X7186752Y38951118D01*
X7012288Y39028794D01*
X7012286Y39028795D01*
X6843332Y39064707D01*
X6781850Y39097899D01*
X6748074Y39159063D01*
X6751181Y39224314D01*
X6798542Y39370072D01*
X6818504Y39560000D01*
X6798542Y39749928D01*
X6739527Y39931556D01*
X6644040Y40096944D01*
X6516253Y40238866D01*
X6361752Y40351118D01*
X6257080Y40397721D01*
X6203843Y40442971D01*
X6183522Y40509820D01*
X6202567Y40577043D01*
X6254933Y40623299D01*
X6307516Y40635000D01*
X17096333Y40635000D01*
X17163372Y40615315D01*
G37*
%TD.AperFunction*%
%TD*%
M02*
