%TF.GenerationSoftware,KiCad,Pcbnew,7.0.6*%
%TF.CreationDate,2023-07-20T15:13:18+09:00*%
%TF.ProjectId,esp32c3_test,65737033-3263-4335-9f74-6573742e6b69,rev?*%
%TF.SameCoordinates,PX7f2c270PY70a3730*%
%TF.FileFunction,Drillmap*%
%TF.FilePolarity,Positive*%
%FSLAX45Y45*%
G04 Gerber Fmt 4.5, Leading zero omitted, Abs format (unit mm)*
G04 Created by KiCad (PCBNEW 7.0.6) date 2023-07-20 15:13:18*
%MOMM*%
%LPD*%
G01*
G04 APERTURE LIST*
%ADD10C,0.100000*%
%ADD11C,0.200000*%
G04 APERTURE END LIST*
D10*
X2095500Y2476500D02*
G75*
G03*
X1968500Y2349500I0J-127000D01*
G01*
X2095500Y2476500D02*
G75*
G03*
X2222500Y2603500I0J127000D01*
G01*
X2222500Y4635500D02*
G75*
G03*
X2095500Y4762500I-127000J0D01*
G01*
X190500Y4762500D02*
G75*
G03*
X63500Y4635500I0J-127000D01*
G01*
X63500Y2603500D02*
G75*
G03*
X190500Y2476500I127000J0D01*
G01*
X317500Y2349500D02*
G75*
G03*
X190500Y2476500I-127000J0D01*
G01*
X317500Y190500D02*
G75*
G03*
X444500Y63500I127000J0D01*
G01*
X1841500Y63500D02*
G75*
G03*
X1968500Y190500I0J127000D01*
G01*
X1968500Y2349500D02*
X1968500Y190500D01*
X2222500Y4635500D02*
X2222500Y2603500D01*
X190500Y4762500D02*
X2095500Y4762500D01*
X63500Y2603500D02*
X63500Y4635500D01*
X317500Y190500D02*
X317500Y2349500D01*
X1841500Y63500D02*
X444500Y63500D01*
D11*
X319277Y-252984D02*
X319277Y-52984D01*
X319277Y-52984D02*
X366896Y-52984D01*
X366896Y-52984D02*
X395467Y-62508D01*
X395467Y-62508D02*
X414515Y-81555D01*
X414515Y-81555D02*
X424039Y-100603D01*
X424039Y-100603D02*
X433562Y-138698D01*
X433562Y-138698D02*
X433562Y-167270D01*
X433562Y-167270D02*
X424039Y-205365D01*
X424039Y-205365D02*
X414515Y-224412D01*
X414515Y-224412D02*
X395467Y-243460D01*
X395467Y-243460D02*
X366896Y-252984D01*
X366896Y-252984D02*
X319277Y-252984D01*
X519277Y-252984D02*
X519277Y-119650D01*
X519277Y-157746D02*
X528801Y-138698D01*
X528801Y-138698D02*
X538324Y-129174D01*
X538324Y-129174D02*
X557372Y-119650D01*
X557372Y-119650D02*
X576420Y-119650D01*
X643086Y-252984D02*
X643086Y-119650D01*
X643086Y-52984D02*
X633563Y-62508D01*
X633563Y-62508D02*
X643086Y-72031D01*
X643086Y-72031D02*
X652610Y-62508D01*
X652610Y-62508D02*
X643086Y-52984D01*
X643086Y-52984D02*
X643086Y-72031D01*
X766896Y-252984D02*
X747848Y-243460D01*
X747848Y-243460D02*
X738324Y-224412D01*
X738324Y-224412D02*
X738324Y-52984D01*
X871658Y-252984D02*
X852610Y-243460D01*
X852610Y-243460D02*
X843086Y-224412D01*
X843086Y-224412D02*
X843086Y-52984D01*
X1100229Y-252984D02*
X1100229Y-52984D01*
X1100229Y-52984D02*
X1166896Y-195841D01*
X1166896Y-195841D02*
X1233563Y-52984D01*
X1233563Y-52984D02*
X1233563Y-252984D01*
X1414515Y-252984D02*
X1414515Y-148222D01*
X1414515Y-148222D02*
X1404991Y-129174D01*
X1404991Y-129174D02*
X1385944Y-119650D01*
X1385944Y-119650D02*
X1347848Y-119650D01*
X1347848Y-119650D02*
X1328801Y-129174D01*
X1414515Y-243460D02*
X1395467Y-252984D01*
X1395467Y-252984D02*
X1347848Y-252984D01*
X1347848Y-252984D02*
X1328801Y-243460D01*
X1328801Y-243460D02*
X1319277Y-224412D01*
X1319277Y-224412D02*
X1319277Y-205365D01*
X1319277Y-205365D02*
X1328801Y-186317D01*
X1328801Y-186317D02*
X1347848Y-176793D01*
X1347848Y-176793D02*
X1395467Y-176793D01*
X1395467Y-176793D02*
X1414515Y-167270D01*
X1509753Y-119650D02*
X1509753Y-319650D01*
X1509753Y-129174D02*
X1528801Y-119650D01*
X1528801Y-119650D02*
X1566896Y-119650D01*
X1566896Y-119650D02*
X1585943Y-129174D01*
X1585943Y-129174D02*
X1595467Y-138698D01*
X1595467Y-138698D02*
X1604991Y-157746D01*
X1604991Y-157746D02*
X1604991Y-214888D01*
X1604991Y-214888D02*
X1595467Y-233936D01*
X1595467Y-233936D02*
X1585943Y-243460D01*
X1585943Y-243460D02*
X1566896Y-252984D01*
X1566896Y-252984D02*
X1528801Y-252984D01*
X1528801Y-252984D02*
X1509753Y-243460D01*
X1690705Y-233936D02*
X1700229Y-243460D01*
X1700229Y-243460D02*
X1690705Y-252984D01*
X1690705Y-252984D02*
X1681182Y-243460D01*
X1681182Y-243460D02*
X1690705Y-233936D01*
X1690705Y-233936D02*
X1690705Y-252984D01*
X1690705Y-129174D02*
X1700229Y-138698D01*
X1700229Y-138698D02*
X1690705Y-148222D01*
X1690705Y-148222D02*
X1681182Y-138698D01*
X1681182Y-138698D02*
X1690705Y-129174D01*
X1690705Y-129174D02*
X1690705Y-148222D01*
M02*
