M48
; DRILL file {KiCad 7.0.6} date Thu Jul 20 15:13:14 2023
; FORMAT={-:-/ absolute / inch / decimal}
; #@! TF.CreationDate,2023-07-20T15:13:14+09:00
; #@! TF.GenerationSoftware,Kicad,Pcbnew,7.0.6
; #@! TF.FileFunction,Plated,1,2,PTH
FMAT,2
INCH
; #@! TA.AperFunction,Plated,PTH,ViaDrill
T1C0.0157
; #@! TA.AperFunction,Plated,PTH,ComponentDrill
T2C0.0394
%
G90
G05
T1
X0.2Y1.075
X0.2Y1.025
X0.225Y1.05
X0.2325Y1.5575
X0.25Y1.075
X0.25Y1.025
X0.263Y1.4413
X0.263Y1.3134
X0.263Y1.2602
X0.265Y1.5024
X0.265Y1.3724
X0.265Y1.2071
X0.265Y1.1461
X0.4Y0.25
X0.4Y0.2
X0.4Y0.15
X0.425Y0.225
X0.425Y0.175
X0.4441Y0.4522
X0.448Y0.5476
X0.449Y0.6539
X0.45Y0.25
X0.45Y0.2
X0.45Y0.15
X0.453Y0.9876
X0.453Y0.9433
X0.453Y0.8961
X0.4549Y0.8528
X0.458Y0.7642
X0.475Y0.225
X0.475Y0.175
X0.4913Y0.4541
X0.4923Y0.9866
X0.4943Y0.9
X0.4943Y0.3459
X0.4943Y0.9473
X0.4953Y0.8518
X0.4972Y0.652
X0.4972Y0.5486
X0.4974Y0.7623
X0.5Y0.25
X0.5Y0.2
X0.5Y0.15
X0.67Y1.497
X0.6705Y1.4364
X0.6734Y1.3813
X0.6744Y1.3232
X0.6774Y1.2661
X0.6774Y1.2031
X0.6803Y1.1461
X0.6911Y1.5585
X0.7059Y1.0831
T2
X0.2Y0.9
X0.2Y0.8
X0.2Y0.7
X0.2Y0.6
X0.2Y0.5
X0.2Y0.4
X0.2Y0.3
X0.2Y0.2
X0.2Y0.1
X0.7Y0.9
X0.7Y0.8
X0.7Y0.7
X0.7Y0.6
X0.7Y0.5
X0.7Y0.4
X0.7Y0.3
X0.7Y0.2
X0.7Y0.1
T0
M30
