%TF.GenerationSoftware,KiCad,Pcbnew,7.0.6*%
%TF.CreationDate,2023-07-20T15:13:03+09:00*%
%TF.ProjectId,esp32c3_test,65737033-3263-4335-9f74-6573742e6b69,rev?*%
%TF.SameCoordinates,PX7f2c270PY70a3730*%
%TF.FileFunction,Legend,Bot*%
%TF.FilePolarity,Positive*%
%FSLAX46Y46*%
G04 Gerber Fmt 4.6, Leading zero omitted, Abs format (unit mm)*
G04 Created by KiCad (PCBNEW 7.0.6) date 2023-07-20 15:13:03*
%MOMM*%
%LPD*%
G01*
G04 APERTURE LIST*
%ADD10C,0.150000*%
G04 APERTURE END LIST*
D10*
X16173220Y43198991D02*
X15839887Y43198991D01*
X15697030Y42675181D02*
X16173220Y42675181D01*
X16173220Y42675181D02*
X16173220Y43675181D01*
X16173220Y43675181D02*
X15697030Y43675181D01*
X15316077Y42722800D02*
X15173220Y42675181D01*
X15173220Y42675181D02*
X14935125Y42675181D01*
X14935125Y42675181D02*
X14839887Y42722800D01*
X14839887Y42722800D02*
X14792268Y42770420D01*
X14792268Y42770420D02*
X14744649Y42865658D01*
X14744649Y42865658D02*
X14744649Y42960896D01*
X14744649Y42960896D02*
X14792268Y43056134D01*
X14792268Y43056134D02*
X14839887Y43103753D01*
X14839887Y43103753D02*
X14935125Y43151372D01*
X14935125Y43151372D02*
X15125601Y43198991D01*
X15125601Y43198991D02*
X15220839Y43246610D01*
X15220839Y43246610D02*
X15268458Y43294229D01*
X15268458Y43294229D02*
X15316077Y43389467D01*
X15316077Y43389467D02*
X15316077Y43484705D01*
X15316077Y43484705D02*
X15268458Y43579943D01*
X15268458Y43579943D02*
X15220839Y43627562D01*
X15220839Y43627562D02*
X15125601Y43675181D01*
X15125601Y43675181D02*
X14887506Y43675181D01*
X14887506Y43675181D02*
X14744649Y43627562D01*
X14316077Y42675181D02*
X14316077Y43675181D01*
X14316077Y43675181D02*
X13935125Y43675181D01*
X13935125Y43675181D02*
X13839887Y43627562D01*
X13839887Y43627562D02*
X13792268Y43579943D01*
X13792268Y43579943D02*
X13744649Y43484705D01*
X13744649Y43484705D02*
X13744649Y43341848D01*
X13744649Y43341848D02*
X13792268Y43246610D01*
X13792268Y43246610D02*
X13839887Y43198991D01*
X13839887Y43198991D02*
X13935125Y43151372D01*
X13935125Y43151372D02*
X14316077Y43151372D01*
X13411315Y43675181D02*
X12792268Y43675181D01*
X12792268Y43675181D02*
X13125601Y43294229D01*
X13125601Y43294229D02*
X12982744Y43294229D01*
X12982744Y43294229D02*
X12887506Y43246610D01*
X12887506Y43246610D02*
X12839887Y43198991D01*
X12839887Y43198991D02*
X12792268Y43103753D01*
X12792268Y43103753D02*
X12792268Y42865658D01*
X12792268Y42865658D02*
X12839887Y42770420D01*
X12839887Y42770420D02*
X12887506Y42722800D01*
X12887506Y42722800D02*
X12982744Y42675181D01*
X12982744Y42675181D02*
X13268458Y42675181D01*
X13268458Y42675181D02*
X13363696Y42722800D01*
X13363696Y42722800D02*
X13411315Y42770420D01*
X12411315Y43579943D02*
X12363696Y43627562D01*
X12363696Y43627562D02*
X12268458Y43675181D01*
X12268458Y43675181D02*
X12030363Y43675181D01*
X12030363Y43675181D02*
X11935125Y43627562D01*
X11935125Y43627562D02*
X11887506Y43579943D01*
X11887506Y43579943D02*
X11839887Y43484705D01*
X11839887Y43484705D02*
X11839887Y43389467D01*
X11839887Y43389467D02*
X11887506Y43246610D01*
X11887506Y43246610D02*
X12458934Y42675181D01*
X12458934Y42675181D02*
X11839887Y42675181D01*
X11411315Y43056134D02*
X10649411Y43056134D01*
X9601792Y42770420D02*
X9649411Y42722800D01*
X9649411Y42722800D02*
X9792268Y42675181D01*
X9792268Y42675181D02*
X9887506Y42675181D01*
X9887506Y42675181D02*
X10030363Y42722800D01*
X10030363Y42722800D02*
X10125601Y42818039D01*
X10125601Y42818039D02*
X10173220Y42913277D01*
X10173220Y42913277D02*
X10220839Y43103753D01*
X10220839Y43103753D02*
X10220839Y43246610D01*
X10220839Y43246610D02*
X10173220Y43437086D01*
X10173220Y43437086D02*
X10125601Y43532324D01*
X10125601Y43532324D02*
X10030363Y43627562D01*
X10030363Y43627562D02*
X9887506Y43675181D01*
X9887506Y43675181D02*
X9792268Y43675181D01*
X9792268Y43675181D02*
X9649411Y43627562D01*
X9649411Y43627562D02*
X9601792Y43579943D01*
X9268458Y43675181D02*
X8649411Y43675181D01*
X8649411Y43675181D02*
X8982744Y43294229D01*
X8982744Y43294229D02*
X8839887Y43294229D01*
X8839887Y43294229D02*
X8744649Y43246610D01*
X8744649Y43246610D02*
X8697030Y43198991D01*
X8697030Y43198991D02*
X8649411Y43103753D01*
X8649411Y43103753D02*
X8649411Y42865658D01*
X8649411Y42865658D02*
X8697030Y42770420D01*
X8697030Y42770420D02*
X8744649Y42722800D01*
X8744649Y42722800D02*
X8839887Y42675181D01*
X8839887Y42675181D02*
X9125601Y42675181D01*
X9125601Y42675181D02*
X9220839Y42722800D01*
X9220839Y42722800D02*
X9268458Y42770420D01*
X7458934Y42675181D02*
X7458934Y43675181D01*
X7458934Y43675181D02*
X7220839Y43675181D01*
X7220839Y43675181D02*
X7077982Y43627562D01*
X7077982Y43627562D02*
X6982744Y43532324D01*
X6982744Y43532324D02*
X6935125Y43437086D01*
X6935125Y43437086D02*
X6887506Y43246610D01*
X6887506Y43246610D02*
X6887506Y43103753D01*
X6887506Y43103753D02*
X6935125Y42913277D01*
X6935125Y42913277D02*
X6982744Y42818039D01*
X6982744Y42818039D02*
X7077982Y42722800D01*
X7077982Y42722800D02*
X7220839Y42675181D01*
X7220839Y42675181D02*
X7458934Y42675181D01*
X6458934Y42675181D02*
X6458934Y43675181D01*
X5982744Y42675181D02*
X5982744Y43675181D01*
X5982744Y43675181D02*
X5601792Y43675181D01*
X5601792Y43675181D02*
X5506554Y43627562D01*
X5506554Y43627562D02*
X5458935Y43579943D01*
X5458935Y43579943D02*
X5411316Y43484705D01*
X5411316Y43484705D02*
X5411316Y43341848D01*
X5411316Y43341848D02*
X5458935Y43246610D01*
X5458935Y43246610D02*
X5506554Y43198991D01*
X5506554Y43198991D02*
X5601792Y43151372D01*
X5601792Y43151372D02*
X5982744Y43151372D01*
X14315839Y28339943D02*
X14268220Y28387562D01*
X14268220Y28387562D02*
X14172982Y28435181D01*
X14172982Y28435181D02*
X13934887Y28435181D01*
X13934887Y28435181D02*
X13839649Y28387562D01*
X13839649Y28387562D02*
X13792030Y28339943D01*
X13792030Y28339943D02*
X13744411Y28244705D01*
X13744411Y28244705D02*
X13744411Y28149467D01*
X13744411Y28149467D02*
X13792030Y28006610D01*
X13792030Y28006610D02*
X14363458Y27435181D01*
X14363458Y27435181D02*
X13744411Y27435181D01*
X13363458Y28339943D02*
X13315839Y28387562D01*
X13315839Y28387562D02*
X13220601Y28435181D01*
X13220601Y28435181D02*
X12982506Y28435181D01*
X12982506Y28435181D02*
X12887268Y28387562D01*
X12887268Y28387562D02*
X12839649Y28339943D01*
X12839649Y28339943D02*
X12792030Y28244705D01*
X12792030Y28244705D02*
X12792030Y28149467D01*
X12792030Y28149467D02*
X12839649Y28006610D01*
X12839649Y28006610D02*
X13411077Y27435181D01*
X13411077Y27435181D02*
X12792030Y27435181D01*
X12363458Y27816134D02*
X11601554Y27816134D01*
X11125363Y27435181D02*
X11125363Y28435181D01*
X11125363Y28435181D02*
X10887268Y28435181D01*
X10887268Y28435181D02*
X10744411Y28387562D01*
X10744411Y28387562D02*
X10649173Y28292324D01*
X10649173Y28292324D02*
X10601554Y28197086D01*
X10601554Y28197086D02*
X10553935Y28006610D01*
X10553935Y28006610D02*
X10553935Y27863753D01*
X10553935Y27863753D02*
X10601554Y27673277D01*
X10601554Y27673277D02*
X10649173Y27578039D01*
X10649173Y27578039D02*
X10744411Y27482800D01*
X10744411Y27482800D02*
X10887268Y27435181D01*
X10887268Y27435181D02*
X11125363Y27435181D01*
X9696792Y27435181D02*
X9696792Y27958991D01*
X9696792Y27958991D02*
X9744411Y28054229D01*
X9744411Y28054229D02*
X9839649Y28101848D01*
X9839649Y28101848D02*
X10030125Y28101848D01*
X10030125Y28101848D02*
X10125363Y28054229D01*
X9696792Y27482800D02*
X9792030Y27435181D01*
X9792030Y27435181D02*
X10030125Y27435181D01*
X10030125Y27435181D02*
X10125363Y27482800D01*
X10125363Y27482800D02*
X10172982Y27578039D01*
X10172982Y27578039D02*
X10172982Y27673277D01*
X10172982Y27673277D02*
X10125363Y27768515D01*
X10125363Y27768515D02*
X10030125Y27816134D01*
X10030125Y27816134D02*
X9792030Y27816134D01*
X9792030Y27816134D02*
X9696792Y27863753D01*
X9220601Y27435181D02*
X9220601Y28101848D01*
X9220601Y28435181D02*
X9268220Y28387562D01*
X9268220Y28387562D02*
X9220601Y28339943D01*
X9220601Y28339943D02*
X9172982Y28387562D01*
X9172982Y28387562D02*
X9220601Y28435181D01*
X9220601Y28435181D02*
X9220601Y28339943D01*
X8315840Y27435181D02*
X8315840Y28435181D01*
X8315840Y27482800D02*
X8411078Y27435181D01*
X8411078Y27435181D02*
X8601554Y27435181D01*
X8601554Y27435181D02*
X8696792Y27482800D01*
X8696792Y27482800D02*
X8744411Y27530420D01*
X8744411Y27530420D02*
X8792030Y27625658D01*
X8792030Y27625658D02*
X8792030Y27911372D01*
X8792030Y27911372D02*
X8744411Y28006610D01*
X8744411Y28006610D02*
X8696792Y28054229D01*
X8696792Y28054229D02*
X8601554Y28101848D01*
X8601554Y28101848D02*
X8411078Y28101848D01*
X8411078Y28101848D02*
X8315840Y28054229D01*
X7411078Y27435181D02*
X7411078Y27958991D01*
X7411078Y27958991D02*
X7458697Y28054229D01*
X7458697Y28054229D02*
X7553935Y28101848D01*
X7553935Y28101848D02*
X7744411Y28101848D01*
X7744411Y28101848D02*
X7839649Y28054229D01*
X7411078Y27482800D02*
X7506316Y27435181D01*
X7506316Y27435181D02*
X7744411Y27435181D01*
X7744411Y27435181D02*
X7839649Y27482800D01*
X7839649Y27482800D02*
X7887268Y27578039D01*
X7887268Y27578039D02*
X7887268Y27673277D01*
X7887268Y27673277D02*
X7839649Y27768515D01*
X7839649Y27768515D02*
X7744411Y27816134D01*
X7744411Y27816134D02*
X7506316Y27816134D01*
X7506316Y27816134D02*
X7411078Y27863753D01*
X6934887Y27435181D02*
X6934887Y28101848D01*
X6934887Y28435181D02*
X6982506Y28387562D01*
X6982506Y28387562D02*
X6934887Y28339943D01*
X6934887Y28339943D02*
X6887268Y28387562D01*
X6887268Y28387562D02*
X6934887Y28435181D01*
X6934887Y28435181D02*
X6934887Y28339943D01*
%TO.C,G\u002A\u002A\u002A*%
G36*
X8899752Y38528334D02*
G01*
X8892250Y38520833D01*
X8884749Y38528334D01*
X8892250Y38535836D01*
X8899752Y38528334D01*
G37*
G36*
X8929758Y38528334D02*
G01*
X8922256Y38520833D01*
X8914755Y38528334D01*
X8922256Y38535836D01*
X8929758Y38528334D01*
G37*
G36*
X10297907Y39994566D02*
G01*
X10321856Y39954420D01*
X10340460Y39899333D01*
X10344593Y39880482D01*
X10351844Y39790097D01*
X10335510Y39714906D01*
X10296321Y39656858D01*
X10235007Y39617900D01*
X10234397Y39617657D01*
X10198067Y39604723D01*
X10179112Y39604123D01*
X10167833Y39615511D01*
X10168445Y39622720D01*
X10186275Y39643516D01*
X10220041Y39668577D01*
X10237328Y39680668D01*
X10274658Y39715204D01*
X10296709Y39747880D01*
X10303297Y39773373D01*
X10304042Y39836113D01*
X10289589Y39900972D01*
X10262329Y39953629D01*
X10257604Y39959804D01*
X10241516Y39989985D01*
X10247732Y40009841D01*
X10249533Y40011500D01*
X10272504Y40015137D01*
X10297907Y39994566D01*
G37*
G36*
X10586064Y40095898D02*
G01*
X10607061Y40084903D01*
X10604755Y40061564D01*
X10579248Y40031396D01*
X10578118Y40030420D01*
X10559979Y40008904D01*
X10554073Y39980575D01*
X10557958Y39934294D01*
X10565540Y39885551D01*
X10584299Y39809225D01*
X10609352Y39758310D01*
X10642436Y39729894D01*
X10685289Y39721069D01*
X10719471Y39716486D01*
X10739228Y39703331D01*
X10734705Y39685654D01*
X10712871Y39676802D01*
X10672511Y39676955D01*
X10628158Y39686936D01*
X10592287Y39705047D01*
X10579108Y39717302D01*
X10549439Y39764900D01*
X10527107Y39836322D01*
X10511103Y39934421D01*
X10508823Y39987295D01*
X10519145Y40045238D01*
X10543555Y40082785D01*
X10580428Y40096143D01*
X10586064Y40095898D01*
G37*
G36*
X10783085Y40475657D02*
G01*
X10866361Y40467994D01*
X10930081Y40454755D01*
X10970822Y40436691D01*
X10985162Y40414556D01*
X10985040Y40411701D01*
X10974807Y40399433D01*
X10943904Y40402715D01*
X10924027Y40407348D01*
X10787100Y40428935D01*
X10658037Y40431661D01*
X10542174Y40415754D01*
X10444848Y40381442D01*
X10433268Y40375861D01*
X10394751Y40361399D01*
X10348907Y40351479D01*
X10288179Y40344797D01*
X10205009Y40340048D01*
X10157066Y40337557D01*
X10077052Y40330451D01*
X10019663Y40320124D01*
X9979964Y40305827D01*
X9969592Y40300789D01*
X9935532Y40287801D01*
X9916202Y40286033D01*
X9915525Y40286457D01*
X9905431Y40303637D01*
X9922888Y40325710D01*
X9968712Y40353725D01*
X9980066Y40359396D01*
X10015879Y40373355D01*
X10057419Y40382069D01*
X10112767Y40386824D01*
X10190006Y40388905D01*
X10236824Y40389805D01*
X10300854Y40393235D01*
X10350346Y40400492D01*
X10395135Y40413289D01*
X10445056Y40433340D01*
X10476586Y40446512D01*
X10521748Y40461843D01*
X10567531Y40470950D01*
X10623721Y40475518D01*
X10700106Y40477231D01*
X10783085Y40475657D01*
G37*
G36*
X11794517Y37823824D02*
G01*
X11794119Y37800246D01*
X11772126Y37759247D01*
X11733968Y37721532D01*
X11669356Y37683053D01*
X11577787Y37644525D01*
X11457755Y37605213D01*
X11405635Y37589127D01*
X11326988Y37562851D01*
X11255758Y37536906D01*
X11202705Y37515095D01*
X11157381Y37494514D01*
X11114990Y37475598D01*
X11090183Y37464939D01*
X11083410Y37463615D01*
X11049430Y37461966D01*
X10994050Y37462022D01*
X10923157Y37463733D01*
X10842634Y37467050D01*
X10828417Y37467731D01*
X10731650Y37471575D01*
X10631942Y37474386D01*
X10540257Y37475906D01*
X10467560Y37475875D01*
X10395823Y37474805D01*
X10265661Y37472967D01*
X10160381Y37471806D01*
X10076518Y37471474D01*
X10010601Y37472121D01*
X9959165Y37473897D01*
X9918741Y37476955D01*
X9885861Y37481445D01*
X9857057Y37487517D01*
X9828862Y37495323D01*
X9797808Y37505013D01*
X9733342Y37529590D01*
X9656426Y37566387D01*
X9590955Y37604928D01*
X9586531Y37607915D01*
X9534914Y37640514D01*
X9488484Y37666247D01*
X9456818Y37679773D01*
X9430166Y37692560D01*
X9417354Y37711753D01*
X9422493Y37724971D01*
X9447155Y37730277D01*
X9488225Y37719569D01*
X9541282Y37694195D01*
X9601899Y37655504D01*
X9692272Y37601171D01*
X9819808Y37549665D01*
X9853971Y37539317D01*
X9895058Y37528343D01*
X9933386Y37521289D01*
X9975499Y37517679D01*
X10027944Y37517039D01*
X10097264Y37518892D01*
X10190006Y37522762D01*
X10244750Y37525173D01*
X10327441Y37528765D01*
X10398778Y37531804D01*
X10452555Y37534028D01*
X10482563Y37535173D01*
X10500917Y37534926D01*
X10548178Y37532695D01*
X10615007Y37528603D01*
X10695361Y37523030D01*
X10783196Y37516353D01*
X11038819Y37496081D01*
X11158269Y37549580D01*
X11195241Y37565246D01*
X11273562Y37595213D01*
X11360372Y37625462D01*
X11442752Y37651370D01*
X11515161Y37672995D01*
X11584619Y37695650D01*
X11634844Y37715590D01*
X11671329Y37735418D01*
X11699568Y37757737D01*
X11725053Y37785149D01*
X11748091Y37809055D01*
X11777712Y37827566D01*
X11794517Y37823824D01*
G37*
G36*
X9767962Y39519383D02*
G01*
X9797491Y39466864D01*
X9802843Y39453990D01*
X9813436Y39428511D01*
X9817093Y39419714D01*
X9825032Y39387319D01*
X9824545Y39376978D01*
X9823792Y39360998D01*
X9823392Y39352498D01*
X9808986Y39322009D01*
X9805005Y39313583D01*
X9792723Y39295615D01*
X9755365Y39253537D01*
X9711783Y39214939D01*
X9677621Y39189806D01*
X9645446Y39170781D01*
X9625722Y39168336D01*
X9612696Y39180471D01*
X9594257Y39188124D01*
X9560643Y39186366D01*
X9521677Y39184523D01*
X9469058Y39194615D01*
X9422821Y39214800D01*
X9402947Y39233473D01*
X9514873Y39233473D01*
X9522374Y39225971D01*
X9529876Y39233473D01*
X9522374Y39240974D01*
X9514873Y39233473D01*
X9402947Y39233473D01*
X9394734Y39241190D01*
X9392854Y39246776D01*
X9587720Y39246776D01*
X9592411Y39241562D01*
X9604323Y39240625D01*
X9635728Y39233473D01*
X9638828Y39232767D01*
X9653056Y39234876D01*
X9682964Y39251252D01*
X9716425Y39276241D01*
X9743668Y39302330D01*
X9754920Y39322009D01*
X9754728Y39325147D01*
X9746213Y39332549D01*
X9731625Y39321849D01*
X9720058Y39299038D01*
X9710669Y39279738D01*
X9688617Y39275941D01*
X9686364Y39276647D01*
X9655740Y39275545D01*
X9616458Y39263474D01*
X9606834Y39259043D01*
X9587720Y39246776D01*
X9392854Y39246776D01*
X9386630Y39265269D01*
X9380601Y39317997D01*
X9381336Y39360998D01*
X9424855Y39360998D01*
X9425466Y39356886D01*
X9440744Y39345995D01*
X9446170Y39347173D01*
X9447360Y39360998D01*
X9444280Y39365488D01*
X9431471Y39376001D01*
X9429974Y39375611D01*
X9424855Y39360998D01*
X9381336Y39360998D01*
X9381658Y39379819D01*
X9384958Y39405030D01*
X9758599Y39405030D01*
X9762422Y39391004D01*
X9765504Y39386563D01*
X9779195Y39376001D01*
X9781248Y39376978D01*
X9777425Y39391004D01*
X9774342Y39395445D01*
X9760651Y39406007D01*
X9758599Y39405030D01*
X9384958Y39405030D01*
X9388031Y39428511D01*
X9454861Y39428511D01*
X9462363Y39421010D01*
X9469864Y39428511D01*
X9462363Y39436013D01*
X9454861Y39428511D01*
X9388031Y39428511D01*
X9389375Y39438776D01*
X9403327Y39482909D01*
X9409105Y39491797D01*
X9475738Y39491797D01*
X9484867Y39473520D01*
X9496203Y39460938D01*
X9508738Y39451016D01*
X9510169Y39453990D01*
X9505295Y39473520D01*
X9499479Y39484041D01*
X9481425Y39496025D01*
X9475738Y39491797D01*
X9409105Y39491797D01*
X9412705Y39497335D01*
X9436484Y39518847D01*
X9551777Y39518847D01*
X9556788Y39518708D01*
X9567813Y39521520D01*
X9594831Y39513150D01*
X9608972Y39507425D01*
X9613464Y39526862D01*
X9610074Y39550314D01*
X9596013Y39552732D01*
X9566500Y39532419D01*
X9551777Y39518847D01*
X9436484Y39518847D01*
X9455021Y39535617D01*
X9514347Y39568715D01*
X9581189Y39592014D01*
X9646055Y39600899D01*
X9665583Y39600573D01*
X9699073Y39594658D01*
X9725026Y39576198D01*
X9754949Y39538613D01*
X9762901Y39526862D01*
X9767962Y39519383D01*
G37*
G36*
X9146624Y36127022D02*
G01*
X9185196Y36089241D01*
X9236595Y36026603D01*
X9256235Y36001840D01*
X9322675Y35925697D01*
X9380039Y35874019D01*
X9431097Y35844618D01*
X9478618Y35835304D01*
X9501431Y35837057D01*
X9547601Y35855199D01*
X9589692Y35895898D01*
X9631986Y35962710D01*
X9637665Y35973067D01*
X9666703Y36018339D01*
X9692103Y36038320D01*
X9717776Y36032456D01*
X9747630Y36000196D01*
X9785573Y35940986D01*
X9805320Y35909200D01*
X9849953Y35846863D01*
X9892431Y35799327D01*
X9928922Y35770564D01*
X9955598Y35764551D01*
X9966207Y35775774D01*
X9984029Y35808750D01*
X10002870Y35854840D01*
X10017537Y35892757D01*
X10036356Y35934026D01*
X10050531Y35956881D01*
X10054993Y35960801D01*
X10085375Y35968337D01*
X10126438Y35951560D01*
X10179368Y35909771D01*
X10245355Y35842271D01*
X10271002Y35814572D01*
X10322047Y35762643D01*
X10368777Y35718818D01*
X10403564Y35690420D01*
X10419537Y35679511D01*
X10449384Y35662822D01*
X10470673Y35661745D01*
X10494414Y35674328D01*
X10502729Y35681092D01*
X10528794Y35716375D01*
X10548721Y35762474D01*
X10549252Y35764253D01*
X10571904Y35833942D01*
X10592295Y35876244D01*
X10613930Y35891470D01*
X10640316Y35879930D01*
X10674957Y35841936D01*
X10721359Y35777799D01*
X10734755Y35758949D01*
X10774314Y35707925D01*
X10810549Y35667183D01*
X10836996Y35644194D01*
X10846744Y35638541D01*
X10874246Y35626696D01*
X10895640Y35628182D01*
X10913122Y35646256D01*
X10928888Y35684172D01*
X10945133Y35745185D01*
X10964053Y35832550D01*
X10966797Y35842913D01*
X10982648Y35862490D01*
X11006840Y35854838D01*
X11038076Y35820793D01*
X11075060Y35761186D01*
X11077906Y35756017D01*
X11105675Y35709095D01*
X11129487Y35674541D01*
X11144456Y35659511D01*
X11147695Y35659010D01*
X11166951Y35673647D01*
X11189179Y35716362D01*
X11213759Y35785727D01*
X11240073Y35880313D01*
X11245454Y35900921D01*
X11263328Y35961936D01*
X11280789Y36012222D01*
X11294715Y36042514D01*
X11313650Y36064182D01*
X11346406Y36073165D01*
X11383432Y36052494D01*
X11424705Y36002193D01*
X11470202Y35922287D01*
X11519896Y35812800D01*
X11533711Y35780143D01*
X11560033Y35720410D01*
X11582638Y35672150D01*
X11597766Y35643537D01*
X11610398Y35625222D01*
X11625326Y35618434D01*
X11646639Y35633983D01*
X11664435Y35655187D01*
X11693618Y35706408D01*
X11722244Y35772461D01*
X11746999Y35844418D01*
X11764563Y35913350D01*
X11771620Y35970331D01*
X11772926Y36004082D01*
X11780294Y36047741D01*
X11795491Y36066896D01*
X11820216Y36064857D01*
X11825095Y36062442D01*
X11836854Y36045308D01*
X11838394Y36012274D01*
X11829486Y35959322D01*
X11809904Y35882432D01*
X11782679Y35797362D01*
X11747763Y35712415D01*
X11710650Y35642430D01*
X11674786Y35594744D01*
X11661574Y35582811D01*
X11629308Y35566884D01*
X11598440Y35573919D01*
X11567103Y35605520D01*
X11533428Y35663295D01*
X11495549Y35748848D01*
X11454657Y35843736D01*
X11415584Y35923052D01*
X11380991Y35981494D01*
X11352978Y36015137D01*
X11338717Y36020888D01*
X11327173Y36006699D01*
X11314693Y35967651D01*
X11290449Y35879876D01*
X11256444Y35768835D01*
X11225423Y35685815D01*
X11196307Y35629845D01*
X11168015Y35599954D01*
X11139470Y35595168D01*
X11109591Y35614518D01*
X11077299Y35657031D01*
X11041516Y35721736D01*
X11004383Y35795705D01*
X10994012Y35726543D01*
X10976670Y35658748D01*
X10945777Y35608514D01*
X10904788Y35584356D01*
X10855952Y35586135D01*
X10801516Y35613712D01*
X10743729Y35666947D01*
X10684837Y35745701D01*
X10662691Y35778558D01*
X10639613Y35808682D01*
X10626639Y35820301D01*
X10622937Y35817561D01*
X10611501Y35794510D01*
X10599023Y35755659D01*
X10579481Y35706662D01*
X10546729Y35658115D01*
X10508809Y35623476D01*
X10472271Y35610260D01*
X10440027Y35615581D01*
X10403072Y35633460D01*
X10357994Y35666560D01*
X10301167Y35717550D01*
X10228964Y35789095D01*
X10222362Y35795814D01*
X10171745Y35846355D01*
X10128896Y35887506D01*
X10098159Y35915188D01*
X10083877Y35925322D01*
X10082878Y35925152D01*
X10071989Y35909636D01*
X10061670Y35876622D01*
X10055136Y35850622D01*
X10031489Y35788054D01*
X10002239Y35742766D01*
X9971077Y35721093D01*
X9954992Y35718420D01*
X9915297Y35724354D01*
X9873766Y35749812D01*
X9828171Y35796919D01*
X9776289Y35867797D01*
X9715893Y35964569D01*
X9713671Y35968246D01*
X9702288Y35980566D01*
X9690713Y35972340D01*
X9672922Y35940142D01*
X9658124Y35913000D01*
X9605390Y35843214D01*
X9545890Y35799999D01*
X9481699Y35784497D01*
X9414889Y35797854D01*
X9407069Y35801230D01*
X9358913Y35827961D01*
X9311584Y35866468D01*
X9259902Y35921544D01*
X9198691Y35997983D01*
X9126069Y36093148D01*
X9115825Y36050493D01*
X9103875Y36012120D01*
X9084455Y35965916D01*
X9060463Y35932500D01*
X9025467Y35902094D01*
X8986851Y35879409D01*
X8951162Y35867458D01*
X8924948Y35869256D01*
X8914755Y35887814D01*
X8917338Y35898304D01*
X8937022Y35910319D01*
X8941069Y35910552D01*
X8976251Y35926770D01*
X9013484Y35963300D01*
X9046583Y36012780D01*
X9069365Y36067850D01*
X9079074Y36098334D01*
X9096443Y36130859D01*
X9118000Y36140658D01*
X9146624Y36127022D01*
G37*
G36*
X9052980Y38309209D02*
G01*
X9065119Y38296811D01*
X9069576Y38268373D01*
X9066735Y38219478D01*
X9056982Y38145712D01*
X9049845Y38102022D01*
X9008697Y37933759D01*
X8949396Y37789385D01*
X8871941Y37668898D01*
X8867405Y37663158D01*
X8822070Y37601279D01*
X8778806Y37535397D01*
X8746416Y37478839D01*
X8722528Y37437153D01*
X8680326Y37376753D01*
X8638193Y37328284D01*
X8593899Y37275558D01*
X8548172Y37199397D01*
X8511797Y37115645D01*
X8488812Y37033816D01*
X8483261Y36963428D01*
X8488427Y36893012D01*
X8500969Y36956775D01*
X8504853Y36973962D01*
X8516216Y37007296D01*
X8527066Y37020537D01*
X8539018Y37016710D01*
X8549548Y36990428D01*
X8545308Y36940654D01*
X8526307Y36869083D01*
X8513078Y36825802D01*
X8502914Y36779710D01*
X8502239Y36742881D01*
X8509968Y36704388D01*
X8513395Y36690196D01*
X8519388Y36647009D01*
X8517107Y36617636D01*
X8512762Y36607716D01*
X8503049Y36602769D01*
X8486099Y36622076D01*
X8473442Y36645237D01*
X8464584Y36682088D01*
X8464503Y36684010D01*
X8456756Y36686960D01*
X8436928Y36663816D01*
X8405797Y36615458D01*
X8387905Y36588311D01*
X8338530Y36524368D01*
X8273434Y36448899D01*
X8197514Y36366851D01*
X8115671Y36283170D01*
X8032803Y36202804D01*
X7953809Y36130699D01*
X7883588Y36071802D01*
X7827041Y36031060D01*
X7785886Y36005290D01*
X7713247Y35958840D01*
X7655771Y35919640D01*
X7606286Y35882061D01*
X7557618Y35840476D01*
X7502592Y35789259D01*
X7434036Y35722782D01*
X7415201Y35704411D01*
X7344727Y35636308D01*
X7273468Y35568294D01*
X7208796Y35507372D01*
X7158083Y35460549D01*
X7138738Y35442522D01*
X7084664Y35387691D01*
X7036454Y35333010D01*
X7002697Y35288015D01*
X6982419Y35258894D01*
X6938487Y35205220D01*
X6895660Y35162201D01*
X6821302Y35089192D01*
X6753108Y34992449D01*
X6707164Y34882616D01*
X6686282Y34818274D01*
X6658461Y34738729D01*
X6631355Y34666384D01*
X6626011Y34652359D01*
X6590418Y34533099D01*
X6562742Y34392264D01*
X6543831Y34236566D01*
X6534530Y34072716D01*
X6535685Y33907425D01*
X6536770Y33883074D01*
X6542171Y33793768D01*
X6549303Y33708478D01*
X6557367Y33635864D01*
X6565559Y33584589D01*
X6572516Y33553382D01*
X6608380Y33422235D01*
X6653730Y33291212D01*
X6704853Y33170258D01*
X6758033Y33069319D01*
X6770966Y33047769D01*
X6809082Y32982708D01*
X6843825Y32921395D01*
X6868989Y32874715D01*
X6890500Y32838749D01*
X6928130Y32784146D01*
X6974919Y32721434D01*
X7025342Y32658261D01*
X7070356Y32602258D01*
X7119889Y32537054D01*
X7161657Y32478364D01*
X7189725Y32434276D01*
X7195706Y32424121D01*
X7246408Y32357256D01*
X7305927Y32302670D01*
X7307217Y32301728D01*
X7357318Y32259669D01*
X7418028Y32200742D01*
X7482558Y32132158D01*
X7544115Y32061124D01*
X7595909Y31994851D01*
X7601854Y31987019D01*
X7633356Y31949841D01*
X7678769Y31900015D01*
X7733804Y31841873D01*
X7794171Y31779745D01*
X7855580Y31717961D01*
X7913740Y31660852D01*
X7964362Y31612748D01*
X8003155Y31577980D01*
X8025830Y31560878D01*
X8047383Y31542885D01*
X8059586Y31513926D01*
X8057933Y31497035D01*
X8050482Y31484448D01*
X8031033Y31493785D01*
X7996427Y31519205D01*
X7953200Y31555248D01*
X7907626Y31596452D01*
X7865982Y31637350D01*
X7834542Y31672480D01*
X7814193Y31696653D01*
X7772623Y31740432D01*
X7736161Y31772691D01*
X7720632Y31785055D01*
X7664254Y31838760D01*
X7602343Y31908632D01*
X7541815Y31987046D01*
X7532840Y31998687D01*
X7499007Y32037895D01*
X7450821Y32090140D01*
X7393339Y32150010D01*
X7331615Y32212091D01*
X7305368Y32238384D01*
X7244857Y32301772D01*
X7190997Y32361841D01*
X7148844Y32412833D01*
X7123459Y32448991D01*
X7111351Y32468522D01*
X7075342Y32519397D01*
X7029390Y32578458D01*
X6980491Y32636528D01*
X6955320Y32665916D01*
X6908724Y32724417D01*
X6869581Y32778613D01*
X6844425Y32819710D01*
X6836387Y32835162D01*
X6808231Y32886464D01*
X6772552Y32948957D01*
X6735136Y33012439D01*
X6696426Y33080273D01*
X6635040Y33207276D01*
X6582948Y33345466D01*
X6536359Y33504229D01*
X6523797Y33555427D01*
X6510244Y33624889D01*
X6500553Y33699057D01*
X6493697Y33786360D01*
X6488646Y33895229D01*
X6488303Y33904910D01*
X6488365Y34131643D01*
X6505051Y34335908D01*
X6538697Y34520341D01*
X6589638Y34687578D01*
X6606033Y34732328D01*
X6629014Y34798372D01*
X6646928Y34853874D01*
X6656881Y34890118D01*
X6658800Y34898724D01*
X6689208Y34982868D01*
X6741972Y35065868D01*
X6820232Y35152774D01*
X6822011Y35154529D01*
X6877288Y35213084D01*
X6934435Y35279779D01*
X6981355Y35340520D01*
X7024746Y35397543D01*
X7130886Y35511123D01*
X7245302Y35601809D01*
X7264364Y35615862D01*
X7311821Y35659541D01*
X7352336Y35707081D01*
X7366335Y35725186D01*
X7420775Y35783522D01*
X7492888Y35849251D01*
X7576349Y35917133D01*
X7664836Y35981925D01*
X7752026Y36038387D01*
X7770856Y36050221D01*
X7843155Y36102917D01*
X7926282Y36172185D01*
X8015270Y36253074D01*
X8105150Y36340633D01*
X8190956Y36429911D01*
X8267720Y36515956D01*
X8330475Y36593820D01*
X8374254Y36658549D01*
X8390015Y36686150D01*
X8415434Y36734689D01*
X8428812Y36771315D01*
X8432950Y36805343D01*
X8430648Y36846086D01*
X8430303Y36950711D01*
X8449510Y37067401D01*
X8486416Y37179956D01*
X8538313Y37280277D01*
X8602494Y37360261D01*
X8631624Y37392672D01*
X8673193Y37449665D01*
X8707590Y37508133D01*
X8730885Y37550665D01*
X8770516Y37613639D01*
X8808735Y37665664D01*
X8831726Y37694056D01*
X8865763Y37738180D01*
X8889519Y37771542D01*
X8899336Y37788197D01*
X8928103Y37851563D01*
X8956565Y37932299D01*
X8981998Y38021235D01*
X9001679Y38109198D01*
X9012885Y38187017D01*
X9020860Y38255728D01*
X9030734Y38297201D01*
X9042612Y38310791D01*
X9052980Y38309209D01*
G37*
G36*
X11461881Y40055253D02*
G01*
X11479392Y40043632D01*
X11543972Y40000775D01*
X11556040Y39991367D01*
X11630338Y39933447D01*
X11726012Y39849913D01*
X11823479Y39758576D01*
X11836025Y39746819D01*
X11846732Y39736291D01*
X11872776Y39706456D01*
X11873007Y39706066D01*
X11891848Y39674210D01*
X11898705Y39653338D01*
X11904741Y39634967D01*
X11908643Y39608547D01*
X11912247Y39584143D01*
X11913305Y39559787D01*
X11915158Y39517151D01*
X11914560Y39458517D01*
X11914331Y39436013D01*
X11914264Y39429406D01*
X11912679Y39383502D01*
X11911902Y39360998D01*
X11910359Y39316323D01*
X11909946Y39307083D01*
X11909338Y39293485D01*
X11907873Y39260704D01*
X11906150Y39233473D01*
X11901865Y39165745D01*
X11901310Y39156979D01*
X11892933Y39078893D01*
X11882234Y39023445D01*
X11868711Y38987633D01*
X11851857Y38968455D01*
X11831370Y38958026D01*
X11796338Y38954105D01*
X11757825Y38969544D01*
X11711713Y39006385D01*
X11653886Y39066672D01*
X11626242Y39095945D01*
X11560370Y39158629D01*
X11495880Y39214121D01*
X11786373Y39214121D01*
X11807714Y39197363D01*
X11819638Y39190143D01*
X11829783Y39173026D01*
X11820251Y39143754D01*
X11804822Y39118257D01*
X11789246Y39106065D01*
X11787370Y39097683D01*
X11802569Y39076223D01*
X11809160Y39068618D01*
X11820843Y39045271D01*
X11810558Y39023713D01*
X11801518Y39009480D01*
X11807602Y39000927D01*
X11811279Y39001056D01*
X11823826Y39006087D01*
X11832511Y39022887D01*
X11839378Y39057507D01*
X11846472Y39115996D01*
X11851084Y39165745D01*
X11850216Y39195526D01*
X11841994Y39210608D01*
X11824806Y39218636D01*
X11818962Y39220369D01*
X11791308Y39223267D01*
X11786373Y39214121D01*
X11495880Y39214121D01*
X11486577Y39222126D01*
X11471871Y39233473D01*
X11750313Y39233473D01*
X11757814Y39225971D01*
X11765316Y39233473D01*
X11757814Y39240974D01*
X11750313Y39233473D01*
X11471871Y39233473D01*
X11416241Y39276395D01*
X11345663Y39328713D01*
X11306683Y39360998D01*
X11384823Y39360998D01*
X11465257Y39300986D01*
X11506236Y39270896D01*
X11536987Y39249239D01*
X11550483Y39240974D01*
X11555247Y39243580D01*
X11550641Y39261170D01*
X11530124Y39288907D01*
X11529115Y39290030D01*
X11527017Y39293485D01*
X11735310Y39293485D01*
X11742811Y39285983D01*
X11750313Y39293485D01*
X11742811Y39300986D01*
X11735310Y39293485D01*
X11527017Y39293485D01*
X11513986Y39314942D01*
X11522710Y39334435D01*
X11529124Y39338873D01*
X11562155Y39342631D01*
X11617778Y39332338D01*
X11697803Y39307718D01*
X11704747Y39307083D01*
X11696026Y39317842D01*
X11667797Y39339403D01*
X11647837Y39353803D01*
X11638748Y39360998D01*
X11832829Y39360998D01*
X11835900Y39356901D01*
X11856219Y39345995D01*
X11859568Y39346425D01*
X11870337Y39360998D01*
X11867474Y39368168D01*
X11846947Y39376001D01*
X11836230Y39373842D01*
X11832829Y39360998D01*
X11638748Y39360998D01*
X11617263Y39378006D01*
X11611897Y39383502D01*
X11795322Y39383502D01*
X11802823Y39376001D01*
X11810325Y39383502D01*
X11802823Y39391004D01*
X11795322Y39383502D01*
X11611897Y39383502D01*
X11603221Y39392388D01*
X11603086Y39392673D01*
X11587720Y39393865D01*
X11558212Y39382283D01*
X11548982Y39378141D01*
X11502956Y39366014D01*
X11451295Y39361090D01*
X11384823Y39360998D01*
X11306683Y39360998D01*
X11240230Y39416037D01*
X11138824Y39513133D01*
X11133837Y39518529D01*
X11270218Y39518529D01*
X11277720Y39511028D01*
X11285221Y39518529D01*
X11283384Y39520366D01*
X11345233Y39520366D01*
X11345920Y39518529D01*
X11350813Y39505450D01*
X11377740Y39496025D01*
X11396627Y39496956D01*
X11403995Y39500270D01*
X11395068Y39506781D01*
X11371488Y39524611D01*
X11364189Y39530024D01*
X11348701Y39536329D01*
X11346676Y39527007D01*
X11345233Y39520366D01*
X11283384Y39520366D01*
X11277720Y39526031D01*
X11270218Y39518529D01*
X11133837Y39518529D01*
X11100075Y39555060D01*
X11228888Y39555060D01*
X11232711Y39541033D01*
X11235793Y39536592D01*
X11249485Y39526031D01*
X11251537Y39527007D01*
X11247714Y39541033D01*
X11244632Y39545475D01*
X11230940Y39556036D01*
X11228888Y39555060D01*
X11100075Y39555060D01*
X11032349Y39628340D01*
X11008230Y39655957D01*
X10993031Y39674374D01*
X11128816Y39674374D01*
X11135358Y39622268D01*
X11156244Y39587247D01*
X11162279Y39583513D01*
X11172535Y39590830D01*
X11177521Y39623550D01*
X11225210Y39623550D01*
X11232711Y39616048D01*
X11240212Y39623550D01*
X11232711Y39631051D01*
X11225210Y39623550D01*
X11177521Y39623550D01*
X11177671Y39624535D01*
X11180948Y39654932D01*
X11202737Y39725373D01*
X11250374Y39725373D01*
X11250861Y39716737D01*
X11266817Y39691516D01*
X11296915Y39659684D01*
X11317872Y39641228D01*
X11329088Y39633964D01*
X11320885Y39646054D01*
X11297526Y39676413D01*
X11389676Y39676413D01*
X11390304Y39657183D01*
X11410409Y39633964D01*
X11413733Y39630125D01*
X11421016Y39623550D01*
X11431777Y39613834D01*
X11447005Y39604798D01*
X11446505Y39617088D01*
X11504549Y39617088D01*
X11505685Y39604798D01*
X11506848Y39592213D01*
X11513129Y39564804D01*
X11521504Y39558725D01*
X11537672Y39575408D01*
X11544488Y39592931D01*
X11526841Y39611585D01*
X11515675Y39617994D01*
X11504549Y39617088D01*
X11446505Y39617088D01*
X11446441Y39618652D01*
X11431403Y39657436D01*
X11423445Y39674747D01*
X11409574Y39690854D01*
X11394882Y39683351D01*
X11389676Y39676413D01*
X11297526Y39676413D01*
X11294888Y39679842D01*
X11274343Y39711743D01*
X11263019Y39726128D01*
X11250374Y39725373D01*
X11202737Y39725373D01*
X11206708Y39738209D01*
X11237329Y39778865D01*
X11282073Y39778865D01*
X11316268Y39742465D01*
X11326181Y39732067D01*
X11350040Y39710216D01*
X11358264Y39711218D01*
X11355629Y39723394D01*
X11480260Y39723394D01*
X11488610Y39707234D01*
X11511521Y39682425D01*
X11532752Y39664109D01*
X11536062Y39667363D01*
X11524116Y39695103D01*
X11520590Y39702348D01*
X11502386Y39728420D01*
X11486842Y39736791D01*
X11480260Y39723394D01*
X11355629Y39723394D01*
X11353212Y39734567D01*
X11351631Y39742029D01*
X11360164Y39769432D01*
X11393459Y39801914D01*
X11406558Y39812732D01*
X11425001Y39833154D01*
X11419270Y39839710D01*
X11391309Y39832089D01*
X11343061Y39809979D01*
X11282073Y39778865D01*
X11237329Y39778865D01*
X11257047Y39805044D01*
X11333383Y39857556D01*
X11341305Y39861521D01*
X11402442Y39882721D01*
X11456084Y39879717D01*
X11511798Y39852224D01*
X11522691Y39844034D01*
X11532959Y39833154D01*
X11560024Y39804477D01*
X11594730Y39753615D01*
X11620317Y39701978D01*
X11628559Y39667363D01*
X11630289Y39660097D01*
X11629436Y39653728D01*
X11616434Y39622231D01*
X11598031Y39592931D01*
X11592742Y39584510D01*
X11585296Y39574141D01*
X11560557Y39535860D01*
X11546014Y39507392D01*
X11542165Y39500270D01*
X11541949Y39499871D01*
X11512096Y39478296D01*
X11463125Y39462762D01*
X11403216Y39455245D01*
X11340551Y39457722D01*
X11322266Y39459734D01*
X11285968Y39459182D01*
X11277258Y39450926D01*
X11296015Y39437741D01*
X11342116Y39422402D01*
X11430224Y39409664D01*
X11518613Y39421741D01*
X11531753Y39428511D01*
X11630289Y39428511D01*
X11637791Y39421010D01*
X11645292Y39428511D01*
X11637791Y39436013D01*
X11847832Y39436013D01*
X11850911Y39431523D01*
X11854581Y39428511D01*
X11863720Y39421010D01*
X11865218Y39421400D01*
X11870337Y39436013D01*
X11869726Y39440125D01*
X11854448Y39451016D01*
X11849022Y39449838D01*
X11847832Y39436013D01*
X11637791Y39436013D01*
X11630289Y39428511D01*
X11531753Y39428511D01*
X11589993Y39458517D01*
X11810325Y39458517D01*
X11817826Y39451016D01*
X11825328Y39458517D01*
X11817826Y39466019D01*
X11810325Y39458517D01*
X11589993Y39458517D01*
X11595531Y39461370D01*
X11660211Y39528295D01*
X11663480Y39533532D01*
X11720307Y39533532D01*
X11727808Y39526031D01*
X11735310Y39533532D01*
X11727808Y39541033D01*
X11720307Y39533532D01*
X11663480Y39533532D01*
X11673466Y39549532D01*
X11797112Y39549532D01*
X11816369Y39533532D01*
X11816943Y39533055D01*
X11823603Y39528135D01*
X11852392Y39512959D01*
X11866102Y39522843D01*
X11868596Y39559787D01*
X11868235Y39567158D01*
X11864885Y39587558D01*
X11859995Y39582292D01*
X11849631Y39566596D01*
X11820477Y39555559D01*
X11802483Y39554880D01*
X11797112Y39549532D01*
X11673466Y39549532D01*
X11689780Y39575671D01*
X11700977Y39608547D01*
X11750313Y39608547D01*
X11757814Y39601045D01*
X11765316Y39608547D01*
X11757814Y39616048D01*
X11750313Y39608547D01*
X11700977Y39608547D01*
X11716231Y39653338D01*
X11713844Y39706066D01*
X11765316Y39706066D01*
X11765926Y39701954D01*
X11781204Y39691063D01*
X11786631Y39692241D01*
X11787820Y39706066D01*
X11784741Y39710556D01*
X11771932Y39721069D01*
X11770435Y39720679D01*
X11765316Y39706066D01*
X11713844Y39706066D01*
X11712862Y39727756D01*
X11698508Y39758576D01*
X11750313Y39758576D01*
X11757814Y39751075D01*
X11765316Y39758576D01*
X11757814Y39766078D01*
X11750313Y39758576D01*
X11698508Y39758576D01*
X11679658Y39799051D01*
X11616601Y39867348D01*
X11584568Y39893771D01*
X11547830Y39917769D01*
X11513188Y39928588D01*
X11469375Y39931110D01*
X11412857Y39927434D01*
X11344537Y39916093D01*
X11279230Y39899376D01*
X11225919Y39879627D01*
X11193587Y39859189D01*
X11183465Y39847291D01*
X11154049Y39795477D01*
X11135440Y39734974D01*
X11128816Y39674374D01*
X10993031Y39674374D01*
X10946985Y39730167D01*
X10900436Y39795195D01*
X10862974Y39859393D01*
X10840671Y39906460D01*
X10895221Y39906460D01*
X10895225Y39906233D01*
X10902702Y39883387D01*
X10920423Y39851472D01*
X10942320Y39819387D01*
X10962329Y39796032D01*
X10974384Y39790307D01*
X10975195Y39800742D01*
X10958674Y39819942D01*
X10952537Y39824752D01*
X10948920Y39830564D01*
X11036445Y39830564D01*
X11048925Y39822398D01*
X11057523Y39817576D01*
X11069945Y39800742D01*
X11072539Y39797226D01*
X11073889Y39775930D01*
X11059292Y39766078D01*
X11053865Y39764900D01*
X11052676Y39751075D01*
X11052862Y39750775D01*
X11069694Y39736808D01*
X11086079Y39751148D01*
X11102977Y39794626D01*
X11111663Y39820984D01*
X11134937Y39867901D01*
X11168651Y39902129D01*
X11219257Y39929080D01*
X11293207Y39954165D01*
X11314398Y39960592D01*
X11361131Y39976705D01*
X11372608Y39982735D01*
X11435251Y39982735D01*
X11438065Y39979598D01*
X11458641Y39976119D01*
X11469347Y39978320D01*
X11472607Y39991367D01*
X11466026Y39997051D01*
X11446245Y39996739D01*
X11439112Y39987653D01*
X11435251Y39982735D01*
X11372608Y39982735D01*
X11381969Y39987653D01*
X11375239Y39992652D01*
X11340280Y39994311D01*
X11281120Y39987296D01*
X11254843Y39970323D01*
X11247211Y39965393D01*
X11228733Y39950977D01*
X11190436Y39951588D01*
X11178720Y39954259D01*
X11159061Y39953913D01*
X11159073Y39953615D01*
X11159664Y39938894D01*
X11160314Y39923944D01*
X11140511Y39904952D01*
X11124945Y39894751D01*
X11112687Y39871246D01*
X11100813Y39853445D01*
X11067679Y39840828D01*
X11050059Y39837233D01*
X11036445Y39830564D01*
X10948920Y39830564D01*
X10940747Y39843697D01*
X10951533Y39870185D01*
X10960514Y39890591D01*
X10956511Y39901104D01*
X10947543Y39902113D01*
X10918876Y39910211D01*
X10906301Y39913070D01*
X10895221Y39906460D01*
X10840671Y39906460D01*
X10828990Y39931110D01*
X10828702Y39931770D01*
X10819126Y39953615D01*
X10985162Y39953615D01*
X10992664Y39946113D01*
X11000165Y39953615D01*
X10992664Y39961116D01*
X10985162Y39953615D01*
X10819126Y39953615D01*
X10805929Y39983718D01*
X10796622Y40004700D01*
X10850365Y40004700D01*
X10853113Y39984135D01*
X10872674Y39961261D01*
X10910147Y39962324D01*
X10930279Y39970323D01*
X10926332Y39974624D01*
X10907251Y39980891D01*
X10877572Y40000949D01*
X10871384Y40006405D01*
X10854568Y40016500D01*
X10850365Y40004700D01*
X10796622Y40004700D01*
X10786916Y40026580D01*
X10779162Y40043632D01*
X10865139Y40043632D01*
X10872640Y40036131D01*
X10880142Y40043632D01*
X10872640Y40051134D01*
X10865139Y40043632D01*
X10779162Y40043632D01*
X10775751Y40051134D01*
X10771671Y40078908D01*
X10779296Y40102759D01*
X10835133Y40102759D01*
X10835279Y40100661D01*
X10843963Y40097357D01*
X10859070Y40113464D01*
X10861458Y40118949D01*
X10913353Y40118949D01*
X10915148Y40101144D01*
X10919661Y40098797D01*
X10925150Y40111146D01*
X10924068Y40119088D01*
X10915148Y40121148D01*
X10913353Y40118949D01*
X10861458Y40118949D01*
X10862720Y40121848D01*
X10852454Y40120080D01*
X10845789Y40115449D01*
X10835133Y40102759D01*
X10779296Y40102759D01*
X10785193Y40121204D01*
X10795776Y40135722D01*
X10993310Y40135722D01*
X11012650Y40126583D01*
X11028521Y40121848D01*
X11060177Y40112404D01*
X11064967Y40111146D01*
X11105767Y40100431D01*
X11175831Y40083412D01*
X11222014Y40074758D01*
X11247435Y40073959D01*
X11255215Y40080504D01*
X11254726Y40084232D01*
X11246248Y40093791D01*
X11223300Y40102751D01*
X11180805Y40112723D01*
X11113683Y40125312D01*
X11089909Y40129400D01*
X11033390Y40137480D01*
X11000707Y40139471D01*
X10993310Y40135722D01*
X10795776Y40135722D01*
X10814886Y40161938D01*
X10855342Y40191567D01*
X10886620Y40203478D01*
X10972880Y40215357D01*
X11076694Y40205289D01*
X11196140Y40173376D01*
X11290394Y40139076D01*
X11379032Y40100235D01*
X11415373Y40080504D01*
X11461881Y40055253D01*
G37*
G36*
X10009686Y40015248D02*
G01*
X10027474Y40001124D01*
X10053256Y39980652D01*
X10087214Y39930862D01*
X10088610Y39928194D01*
X10089956Y39923609D01*
X10108630Y39859992D01*
X10110108Y39803585D01*
X10110633Y39783576D01*
X10110928Y39772305D01*
X10108766Y39756834D01*
X10104645Y39727343D01*
X10096478Y39668902D01*
X10087269Y39633749D01*
X10082627Y39616027D01*
X10066260Y39553548D01*
X10059067Y39533805D01*
X10021249Y39430012D01*
X10007446Y39399989D01*
X9965378Y39308488D01*
X9962423Y39302061D01*
X9949283Y39278482D01*
X9907481Y39203467D01*
X9890760Y39173461D01*
X9857198Y39116125D01*
X9854020Y39110695D01*
X9822660Y39053195D01*
X9807542Y39025475D01*
X9776504Y38964244D01*
X9765519Y38942574D01*
X9733914Y38873402D01*
X9728152Y38860900D01*
X9712252Y38826400D01*
X9698552Y38796675D01*
X9695495Y38790043D01*
X9657748Y38728282D01*
X9655009Y38725194D01*
X9616803Y38682114D01*
X9591457Y38659507D01*
X9561317Y38635266D01*
X9545140Y38625853D01*
X9542567Y38626465D01*
X9521785Y38639802D01*
X9491907Y38665103D01*
X9459035Y38690962D01*
X9408921Y38724424D01*
X9354073Y38756836D01*
X9343552Y38762728D01*
X9292887Y38796059D01*
X9286888Y38801842D01*
X9519374Y38801842D01*
X9529278Y38784104D01*
X9537693Y38767153D01*
X9538007Y38732857D01*
X9535178Y38714102D01*
X9542553Y38694804D01*
X9545111Y38693594D01*
X9557201Y38700908D01*
X9563170Y38725194D01*
X9561833Y38755620D01*
X9552009Y38781355D01*
X9542879Y38791771D01*
X9604891Y38791771D01*
X9606440Y38783462D01*
X9621603Y38768256D01*
X9640305Y38771290D01*
X9644379Y38775961D01*
X9648086Y38796675D01*
X9627395Y38805889D01*
X9617056Y38804300D01*
X9604891Y38791771D01*
X9542879Y38791771D01*
X9539854Y38795222D01*
X9522634Y38805889D01*
X9519374Y38801842D01*
X9286888Y38801842D01*
X9253101Y38834414D01*
X9219954Y38883883D01*
X9210515Y38904353D01*
X9265389Y38904353D01*
X9274527Y38881462D01*
X9288458Y38864969D01*
X9310158Y38859641D01*
X9324781Y38859864D01*
X9349274Y38844079D01*
X9365072Y38829551D01*
X9385514Y38820221D01*
X9394849Y38826400D01*
X9394242Y38827673D01*
X9378542Y38841055D01*
X9356909Y38856387D01*
X9652553Y38856387D01*
X9664902Y38850898D01*
X9672845Y38851980D01*
X9674904Y38860900D01*
X9672705Y38862695D01*
X9654900Y38860900D01*
X9652553Y38856387D01*
X9356909Y38856387D01*
X9348581Y38862289D01*
X9331656Y38873402D01*
X9499870Y38873402D01*
X9507371Y38865901D01*
X9514873Y38873402D01*
X9507371Y38880904D01*
X9499870Y38873402D01*
X9331656Y38873402D01*
X9313757Y38885155D01*
X9283470Y38903434D01*
X9267118Y38910909D01*
X9265389Y38904353D01*
X9210515Y38904353D01*
X9197114Y38933414D01*
X9334837Y38933414D01*
X9342339Y38925912D01*
X9349840Y38933414D01*
X9342339Y38940915D01*
X9589888Y38940915D01*
X9592750Y38933745D01*
X9593617Y38933414D01*
X9613277Y38925912D01*
X9623994Y38928071D01*
X9627395Y38940915D01*
X9624324Y38945013D01*
X9604005Y38955918D01*
X9600656Y38955489D01*
X9596146Y38949385D01*
X9589888Y38940915D01*
X9342339Y38940915D01*
X9334837Y38933414D01*
X9197114Y38933414D01*
X9189209Y38950556D01*
X9156625Y39040524D01*
X9143398Y39089713D01*
X9142882Y39093106D01*
X9194034Y39093106D01*
X9207688Y39044143D01*
X9216908Y39019940D01*
X9241078Y38981599D01*
X9275158Y38960385D01*
X9302221Y38951174D01*
X9318050Y38949385D01*
X9307888Y38959436D01*
X9296849Y38965725D01*
X9670204Y38965725D01*
X9679905Y38948417D01*
X9686550Y38940915D01*
X9691093Y38935786D01*
X9702642Y38925912D01*
X9705668Y38928708D01*
X9715337Y38948417D01*
X9715446Y38964244D01*
X9692600Y38970921D01*
X9685847Y38970813D01*
X9670204Y38965725D01*
X9296849Y38965725D01*
X9271968Y38979900D01*
X9243349Y38996405D01*
X9235590Y39009006D01*
X9248507Y39022498D01*
X9249252Y39023045D01*
X9262758Y39037184D01*
X9259465Y39054448D01*
X9237706Y39084397D01*
X9236363Y39086069D01*
X9225899Y39096957D01*
X9379846Y39096957D01*
X9389256Y39089793D01*
X9418412Y39071645D01*
X9460438Y39047037D01*
X9498549Y39025741D01*
X9532711Y39007816D01*
X9548851Y39000927D01*
X9550449Y39001381D01*
X9561412Y39015985D01*
X9570850Y39038857D01*
X9571487Y39053195D01*
X9570564Y39053689D01*
X9550874Y39059649D01*
X9535337Y39063559D01*
X9713873Y39063559D01*
X9735639Y39061169D01*
X9759079Y39067303D01*
X9785534Y39092081D01*
X9792235Y39105193D01*
X9793488Y39116125D01*
X9774809Y39107586D01*
X9757564Y39097395D01*
X9724914Y39076674D01*
X9719365Y39072731D01*
X9713873Y39063559D01*
X9535337Y39063559D01*
X9513998Y39068929D01*
X9469197Y39079414D01*
X9425731Y39088991D01*
X9392861Y39095543D01*
X9379846Y39096957D01*
X9225899Y39096957D01*
X9210048Y39113449D01*
X9349840Y39113449D01*
X9357342Y39105948D01*
X9364843Y39113449D01*
X9357342Y39120951D01*
X9349840Y39113449D01*
X9210048Y39113449D01*
X9208844Y39114702D01*
X9194577Y39116837D01*
X9194034Y39093106D01*
X9142882Y39093106D01*
X9137503Y39128452D01*
X9319834Y39128452D01*
X9327336Y39120951D01*
X9334837Y39128452D01*
X9327336Y39135954D01*
X9319834Y39128452D01*
X9137503Y39128452D01*
X9129028Y39184150D01*
X9127086Y39218470D01*
X9169805Y39218470D01*
X9177306Y39210969D01*
X9184808Y39218470D01*
X9177306Y39225971D01*
X9169805Y39218470D01*
X9127086Y39218470D01*
X9123098Y39288933D01*
X9125372Y39368123D01*
X9177532Y39368123D01*
X9191804Y39346554D01*
X9207169Y39321605D01*
X9209787Y39294524D01*
X9207475Y39282521D01*
X9216079Y39262697D01*
X9222732Y39253892D01*
X9222832Y39227599D01*
X9224071Y39218470D01*
X9226238Y39202494D01*
X9257112Y39170336D01*
X9299596Y39138926D01*
X9271248Y39196223D01*
X9267220Y39204910D01*
X9248273Y39273111D01*
X9243942Y39326392D01*
X9292083Y39326392D01*
X9296032Y39272470D01*
X9303209Y39237231D01*
X9307655Y39227427D01*
X9345346Y39183597D01*
X9406035Y39147510D01*
X9433074Y39138926D01*
X9466066Y39128452D01*
X9484090Y39122730D01*
X9528575Y39113449D01*
X9543505Y39110334D01*
X9598437Y39100165D01*
X9635899Y39096418D01*
X9662542Y39099135D01*
X9685021Y39108355D01*
X9709988Y39124120D01*
X9754609Y39162781D01*
X9787855Y39203467D01*
X9844938Y39203467D01*
X9852439Y39195966D01*
X9859941Y39203467D01*
X9852439Y39210969D01*
X9844938Y39203467D01*
X9787855Y39203467D01*
X9805359Y39224888D01*
X9838003Y39278482D01*
X9889947Y39278482D01*
X9897448Y39270980D01*
X9904950Y39278482D01*
X9897448Y39285983D01*
X9889947Y39278482D01*
X9838003Y39278482D01*
X9848210Y39295239D01*
X9853553Y39308488D01*
X9904950Y39308488D01*
X9912451Y39300986D01*
X9919953Y39308488D01*
X9912451Y39315989D01*
X9904950Y39308488D01*
X9853553Y39308488D01*
X9871116Y39352042D01*
X9925005Y39352042D01*
X9926896Y39334051D01*
X9929100Y39332658D01*
X9939417Y39341742D01*
X9948638Y39367719D01*
X9953893Y39399989D01*
X9952314Y39427952D01*
X9947262Y39440405D01*
X9940491Y39433921D01*
X9936247Y39417329D01*
X9931812Y39399992D01*
X9929423Y39387727D01*
X9925005Y39352042D01*
X9871116Y39352042D01*
X9875378Y39362611D01*
X9885228Y39417329D01*
X9878537Y39485082D01*
X9873273Y39494325D01*
X9973514Y39494325D01*
X9979989Y39485354D01*
X9990024Y39485236D01*
X9999539Y39511885D01*
X10001188Y39518541D01*
X10001308Y39533805D01*
X9986451Y39525188D01*
X9976330Y39513576D01*
X9973514Y39494325D01*
X9873273Y39494325D01*
X9846143Y39541964D01*
X9786748Y39589951D01*
X9699056Y39631017D01*
X9687092Y39635424D01*
X9686873Y39635489D01*
X9815814Y39635489D01*
X9841691Y39617124D01*
X9849284Y39612110D01*
X9881891Y39585742D01*
X9899557Y39563452D01*
X9903539Y39555088D01*
X9922518Y39541672D01*
X9942457Y39556036D01*
X9944801Y39561848D01*
X9935841Y39571039D01*
X9931548Y39571532D01*
X9920553Y39585108D01*
X9922847Y39596959D01*
X10003484Y39596959D01*
X10007670Y39579963D01*
X10016829Y39579157D01*
X10031256Y39595777D01*
X10036629Y39616027D01*
X10030585Y39626017D01*
X10011380Y39610245D01*
X10003484Y39596959D01*
X9922847Y39596959D01*
X9924980Y39607980D01*
X9943192Y39627563D01*
X9952194Y39633749D01*
X9951631Y39644665D01*
X9925532Y39659203D01*
X9907593Y39666693D01*
X9885231Y39669066D01*
X9871173Y39653787D01*
X9858354Y39640449D01*
X9825071Y39639056D01*
X9816051Y39640998D01*
X9815814Y39635489D01*
X9686873Y39635489D01*
X9592623Y39663512D01*
X9515611Y39671176D01*
X9451158Y39657477D01*
X9394362Y39621476D01*
X9391483Y39618320D01*
X9340326Y39562233D01*
X9320025Y39532778D01*
X9304919Y39498571D01*
X9296665Y39455168D01*
X9292331Y39392173D01*
X9292150Y39387771D01*
X9292083Y39326392D01*
X9243942Y39326392D01*
X9240755Y39365609D01*
X9239921Y39395908D01*
X9236359Y39443241D01*
X9229740Y39466641D01*
X9219211Y39470253D01*
X9205820Y39453045D01*
X9199811Y39419405D01*
X9194815Y39388989D01*
X9182483Y39376001D01*
X9177532Y39368123D01*
X9125372Y39368123D01*
X9126076Y39392626D01*
X9138433Y39483797D01*
X9149759Y39524691D01*
X9229817Y39524691D01*
X9230421Y39520981D01*
X9244820Y39503526D01*
X9251479Y39501463D01*
X9260156Y39513893D01*
X9268967Y39538697D01*
X9289829Y39571039D01*
X9311604Y39601447D01*
X9318448Y39618320D01*
X9305713Y39612799D01*
X9274826Y39583681D01*
X9263234Y39571149D01*
X9239331Y39541938D01*
X9229817Y39524691D01*
X9149759Y39524691D01*
X9154143Y39540520D01*
X9179596Y39597218D01*
X9217691Y39655998D01*
X9241534Y39685124D01*
X9353904Y39685124D01*
X9354136Y39680003D01*
X9373595Y39677245D01*
X9388342Y39679647D01*
X9382659Y39686309D01*
X9373983Y39688706D01*
X9353904Y39685124D01*
X9241534Y39685124D01*
X9249006Y39694252D01*
X9413895Y39694252D01*
X9424474Y39696612D01*
X9454861Y39713567D01*
X9477197Y39726998D01*
X9480795Y39733953D01*
X9460217Y39735540D01*
X9439652Y39731523D01*
X9419430Y39713567D01*
X9416714Y39706489D01*
X9413895Y39694252D01*
X9249006Y39694252D01*
X9272042Y39722391D01*
X9293434Y39745316D01*
X9354938Y39745316D01*
X9363072Y39736072D01*
X9367473Y39736632D01*
X9386004Y39750098D01*
X9908628Y39750098D01*
X9912451Y39736072D01*
X9913922Y39733953D01*
X9915533Y39731631D01*
X9929225Y39721069D01*
X9931277Y39722046D01*
X9929296Y39729313D01*
X10002402Y39729313D01*
X10002560Y39722046D01*
X10002768Y39712457D01*
X10022724Y39683013D01*
X10025555Y39679647D01*
X10043963Y39657764D01*
X10053092Y39654769D01*
X10054979Y39672810D01*
X10056284Y39692049D01*
X10064086Y39727343D01*
X10062850Y39746097D01*
X10042931Y39750259D01*
X10011472Y39737317D01*
X10002402Y39729313D01*
X9929296Y39729313D01*
X9927454Y39736072D01*
X9924372Y39740513D01*
X9910680Y39751075D01*
X9908628Y39750098D01*
X9386004Y39750098D01*
X9387348Y39751075D01*
X9389751Y39756834D01*
X9381617Y39766078D01*
X9377216Y39765518D01*
X9357342Y39751075D01*
X9354938Y39745316D01*
X9293434Y39745316D01*
X9346262Y39801929D01*
X9353575Y39809310D01*
X9417874Y39809310D01*
X9418051Y39799247D01*
X9436546Y39792603D01*
X9458311Y39791311D01*
X9485477Y39804321D01*
X9503839Y39816132D01*
X9538539Y39810645D01*
X9564048Y39804182D01*
X9574885Y39813161D01*
X9577699Y39818657D01*
X9600573Y39823241D01*
X9639819Y39818178D01*
X9687407Y39804111D01*
X9693761Y39802241D01*
X9692033Y39807557D01*
X9668653Y39824273D01*
X9646681Y39840993D01*
X9897448Y39840993D01*
X9934956Y39811370D01*
X9967196Y39790361D01*
X9992102Y39781414D01*
X10004512Y39783576D01*
X10003197Y39794001D01*
X9982212Y39809131D01*
X9946235Y39824562D01*
X9897448Y39840993D01*
X9646681Y39840993D01*
X9636692Y39848594D01*
X9874944Y39848594D01*
X9882445Y39841093D01*
X9889947Y39848594D01*
X9882445Y39856096D01*
X9874944Y39848594D01*
X9636692Y39848594D01*
X9633505Y39851019D01*
X9620802Y39872297D01*
X9635351Y39883296D01*
X9676924Y39882403D01*
X9733954Y39874754D01*
X9714810Y39893898D01*
X10010334Y39893898D01*
X10012669Y39878708D01*
X10015621Y39874754D01*
X10035149Y39848594D01*
X10072940Y39803585D01*
X10062740Y39848563D01*
X10060057Y39860221D01*
X10051012Y39890567D01*
X10039750Y39900882D01*
X10019841Y39898680D01*
X10010334Y39893898D01*
X9714810Y39893898D01*
X9690573Y39918134D01*
X9685098Y39923609D01*
X9829935Y39923609D01*
X9837436Y39916107D01*
X9844938Y39923609D01*
X9837436Y39931110D01*
X9829935Y39923609D01*
X9685098Y39923609D01*
X9647192Y39961515D01*
X9574473Y39921937D01*
X9549394Y39907580D01*
X9496002Y39873441D01*
X9453043Y39841692D01*
X9438143Y39829124D01*
X9417874Y39809310D01*
X9353575Y39809310D01*
X9377507Y39833463D01*
X9428165Y39879829D01*
X9478535Y39917323D01*
X9538015Y39952577D01*
X9582743Y39975314D01*
X9720405Y39975314D01*
X9745829Y39961721D01*
X9780023Y39947778D01*
X9803198Y39936591D01*
X9807337Y39939399D01*
X9797286Y39960004D01*
X9791766Y39969343D01*
X9785532Y39991533D01*
X9790092Y39996611D01*
X9862595Y39996611D01*
X9874944Y39991122D01*
X9882886Y39992205D01*
X9884946Y40001124D01*
X9882747Y40002920D01*
X9864942Y40001124D01*
X9862595Y39996611D01*
X9790092Y39996611D01*
X9799929Y40007566D01*
X9805444Y40011567D01*
X9808269Y40017697D01*
X9784926Y40012795D01*
X9749784Y40002101D01*
X9721292Y39988211D01*
X9720405Y39975314D01*
X9582743Y39975314D01*
X9616005Y39992222D01*
X9777425Y40070897D01*
X9882445Y40053207D01*
X9949323Y40038940D01*
X10003446Y40017697D01*
X10009686Y40015248D01*
G37*
G36*
X10986185Y39393287D02*
G01*
X10997204Y39345110D01*
X11000165Y39332166D01*
X11000086Y39326236D01*
X10996191Y39307527D01*
X10989767Y39276666D01*
X10958842Y39239831D01*
X10902619Y39209849D01*
X10857637Y39191637D01*
X10915595Y39176907D01*
X10934992Y39172444D01*
X10968432Y39170094D01*
X10985181Y39180993D01*
X10989768Y39187628D01*
X10997983Y39192279D01*
X11012017Y39188670D01*
X11036487Y39174459D01*
X11076006Y39147305D01*
X11086833Y39139541D01*
X11135192Y39104864D01*
X11143903Y39098682D01*
X11209071Y39056080D01*
X11284545Y39011258D01*
X11355710Y38972959D01*
X11385077Y38957877D01*
X11391343Y38954659D01*
X11427794Y38933414D01*
X11473314Y38906883D01*
X11534905Y38859498D01*
X11582447Y38807072D01*
X11622267Y38744173D01*
X11636428Y38716855D01*
X11654383Y38670994D01*
X11662699Y38622527D01*
X11664359Y38561358D01*
X11664454Y38557855D01*
X11663249Y38513858D01*
X11654621Y38446437D01*
X11634581Y38396990D01*
X11599446Y38362578D01*
X11545533Y38340261D01*
X11469159Y38327099D01*
X11366642Y38320154D01*
X11337075Y38319031D01*
X11256671Y38317685D01*
X11194204Y38320413D01*
X11140564Y38327886D01*
X11086639Y38340776D01*
X11085671Y38341044D01*
X11033154Y38356297D01*
X10991941Y38369513D01*
X10970880Y38377859D01*
X10969139Y38378305D01*
X11255215Y38378305D01*
X11262717Y38370803D01*
X11270218Y38378305D01*
X11262717Y38385806D01*
X11255215Y38378305D01*
X10969139Y38378305D01*
X10965646Y38379200D01*
X10960805Y38378305D01*
X10937757Y38374044D01*
X10914070Y38364267D01*
X10899410Y38358216D01*
X10888053Y38352959D01*
X10871995Y38345526D01*
X10787712Y38318246D01*
X10703973Y38306093D01*
X10632073Y38311058D01*
X10614038Y38314523D01*
X10545924Y38314827D01*
X10504349Y38302409D01*
X10474151Y38293389D01*
X10438711Y38273966D01*
X10392315Y38248539D01*
X10360654Y38229269D01*
X10341660Y38218967D01*
X10307865Y38200637D01*
X10265021Y38181315D01*
X10206541Y38167095D01*
X10132503Y38162092D01*
X10061287Y38168327D01*
X10005475Y38185591D01*
X9955722Y38213452D01*
X9900320Y38255303D01*
X9886767Y38273669D01*
X10024973Y38273669D01*
X10025484Y38272392D01*
X10041738Y38260130D01*
X10073733Y38242760D01*
X10122492Y38218967D01*
X10102082Y38235605D01*
X10182610Y38235605D01*
X10186410Y38230935D01*
X10215021Y38221371D01*
X10256701Y38228363D01*
X10302528Y38250780D01*
X10311130Y38256765D01*
X10329337Y38273966D01*
X10325032Y38280891D01*
X10302751Y38283257D01*
X10265021Y38291093D01*
X10246946Y38295391D01*
X10236415Y38293241D01*
X10247957Y38276063D01*
X10252354Y38270537D01*
X10260111Y38252621D01*
X10244206Y38241850D01*
X10230951Y38238653D01*
X10196728Y38241501D01*
X10185025Y38244130D01*
X10182610Y38235605D01*
X10102082Y38235605D01*
X10084985Y38249543D01*
X10061636Y38266994D01*
X10034791Y38280290D01*
X10024973Y38273669D01*
X9886767Y38273669D01*
X9865552Y38302417D01*
X9858613Y38326851D01*
X9904950Y38326851D01*
X9912762Y38308565D01*
X9939164Y38293868D01*
X9971696Y38295135D01*
X9986826Y38302409D01*
X9982850Y38310556D01*
X9952942Y38322506D01*
X9947199Y38324419D01*
X9917181Y38330825D01*
X9904950Y38326851D01*
X9858613Y38326851D01*
X9856783Y38333296D01*
X10310029Y38333296D01*
X10317531Y38325794D01*
X10325032Y38333296D01*
X10317531Y38340797D01*
X10310029Y38333296D01*
X9856783Y38333296D01*
X9849077Y38360432D01*
X9849057Y38363302D01*
X10009970Y38363302D01*
X10017472Y38355800D01*
X10024973Y38363302D01*
X10017472Y38370803D01*
X10009970Y38363302D01*
X9849057Y38363302D01*
X9848901Y38385335D01*
X9949958Y38385335D01*
X9952494Y38378655D01*
X9972463Y38370803D01*
X9982716Y38371455D01*
X9994967Y38376699D01*
X9992203Y38380583D01*
X9972463Y38391232D01*
X9960956Y38393590D01*
X9960580Y38393308D01*
X9949958Y38385335D01*
X9848901Y38385335D01*
X9848845Y38393308D01*
X9889947Y38393308D01*
X9897448Y38385806D01*
X9904950Y38393308D01*
X9897448Y38400809D01*
X9889947Y38393308D01*
X9848845Y38393308D01*
X9848550Y38434985D01*
X9852374Y38463263D01*
X9972463Y38463263D01*
X10025791Y38425987D01*
X10047497Y38412579D01*
X10102378Y38385892D01*
X10127347Y38376699D01*
X10159790Y38364754D01*
X10164910Y38363302D01*
X10186212Y38357261D01*
X10244191Y38344188D01*
X10281699Y38341320D01*
X10295026Y38349087D01*
X10293644Y38352072D01*
X10273144Y38366444D01*
X10233928Y38385906D01*
X10202258Y38399399D01*
X10358987Y38399399D01*
X10359057Y38370433D01*
X10375250Y38349087D01*
X10378886Y38344294D01*
X10400481Y38333296D01*
X10409705Y38328598D01*
X10442746Y38330963D01*
X10459944Y38339511D01*
X10471906Y38352959D01*
X10465547Y38362243D01*
X10648352Y38362243D01*
X10660987Y38358652D01*
X10700106Y38357831D01*
X10715814Y38357896D01*
X10746019Y38359425D01*
X10750868Y38364267D01*
X10733863Y38374111D01*
X10720782Y38378305D01*
X10820130Y38378305D01*
X10827631Y38370803D01*
X10835133Y38378305D01*
X10827631Y38385806D01*
X10820130Y38378305D01*
X10720782Y38378305D01*
X10708163Y38382351D01*
X10666350Y38374111D01*
X10658699Y38370291D01*
X10648352Y38362243D01*
X10465547Y38362243D01*
X10460504Y38369606D01*
X10424163Y38394876D01*
X10421218Y38396744D01*
X10389575Y38414695D01*
X10372410Y38416212D01*
X10360531Y38402378D01*
X10358987Y38399399D01*
X10202258Y38399399D01*
X10183500Y38407391D01*
X10129363Y38427834D01*
X10100786Y38437106D01*
X10445056Y38437106D01*
X10445205Y38436576D01*
X10459290Y38425698D01*
X10489320Y38408696D01*
X10507290Y38400651D01*
X10542026Y38390122D01*
X10572245Y38385743D01*
X10589872Y38388339D01*
X10586834Y38398736D01*
X10584882Y38400222D01*
X10562020Y38410480D01*
X10526303Y38422086D01*
X10488035Y38432252D01*
X10486395Y38432571D01*
X11028266Y38432571D01*
X11073482Y38409188D01*
X11094462Y38398566D01*
X11120467Y38388339D01*
X11121667Y38387867D01*
X11132955Y38392629D01*
X11134651Y38408311D01*
X11180201Y38408311D01*
X11180636Y38402332D01*
X11193021Y38386274D01*
X11214800Y38395400D01*
X11218601Y38401646D01*
X11213909Y38420888D01*
X11194318Y38430815D01*
X11187832Y38428283D01*
X11180201Y38408311D01*
X11134651Y38408311D01*
X11135192Y38413312D01*
X11136747Y38428784D01*
X11146444Y38452120D01*
X11146502Y38452179D01*
X11154410Y38474059D01*
X11157696Y38510597D01*
X11158976Y38533573D01*
X11170832Y38555613D01*
X11202705Y38565874D01*
X11205958Y38566493D01*
X11230790Y38574812D01*
X11232711Y38583462D01*
X11215454Y38587029D01*
X11178223Y38574354D01*
X11176765Y38573343D01*
X11139150Y38547264D01*
X11132623Y38542739D01*
X11084174Y38495455D01*
X11040997Y38446891D01*
X11028266Y38432571D01*
X10486395Y38432571D01*
X10457518Y38438188D01*
X10445056Y38437106D01*
X10100786Y38437106D01*
X10079021Y38444168D01*
X10039976Y38453326D01*
X9972463Y38463263D01*
X9852374Y38463263D01*
X9860950Y38526685D01*
X9908376Y38526685D01*
X9913252Y38509609D01*
X9933763Y38505830D01*
X9944169Y38505932D01*
X9961082Y38509725D01*
X9961319Y38524880D01*
X9946801Y38559278D01*
X9945390Y38562679D01*
X10000913Y38562679D01*
X10027230Y38543205D01*
X10081234Y38514542D01*
X10122974Y38494904D01*
X10174644Y38472903D01*
X10212510Y38459389D01*
X10240198Y38452266D01*
X10245760Y38454451D01*
X10228396Y38468806D01*
X10228033Y38469042D01*
X10310029Y38469042D01*
X10312521Y38465764D01*
X10331770Y38455689D01*
X10340333Y38454451D01*
X10344469Y38453853D01*
X10345201Y38469000D01*
X10337823Y38478336D01*
X10319862Y38481639D01*
X10310029Y38469042D01*
X10228033Y38469042D01*
X10207214Y38482595D01*
X10206394Y38482913D01*
X10400047Y38482913D01*
X10401023Y38475118D01*
X10404960Y38469000D01*
X10415050Y38453319D01*
X10421828Y38451308D01*
X10430053Y38464103D01*
X10437512Y38483614D01*
X10442812Y38489754D01*
X10617155Y38489754D01*
X10618240Y38483250D01*
X10640094Y38468322D01*
X10669561Y38453770D01*
X10692605Y38446881D01*
X10693040Y38446891D01*
X10691955Y38453395D01*
X10670100Y38468322D01*
X10640634Y38482875D01*
X10617590Y38489763D01*
X10617155Y38489754D01*
X10442812Y38489754D01*
X10445124Y38492432D01*
X10940153Y38492432D01*
X10942020Y38486123D01*
X10960473Y38471237D01*
X10975641Y38472925D01*
X11003021Y38487762D01*
X11031160Y38509983D01*
X11051066Y38532260D01*
X11053750Y38547264D01*
X11041551Y38546661D01*
X11017830Y38530743D01*
X10995516Y38515397D01*
X10965227Y38505830D01*
X10952489Y38503960D01*
X10947951Y38499719D01*
X10940153Y38492432D01*
X10445124Y38492432D01*
X10460446Y38510182D01*
X10482306Y38525899D01*
X10503786Y38527114D01*
X10536855Y38512410D01*
X10541914Y38509871D01*
X10573832Y38497611D01*
X10591479Y38497222D01*
X10593344Y38499719D01*
X10585451Y38505830D01*
X10570492Y38510221D01*
X10542258Y38526711D01*
X10534867Y38532373D01*
X10522294Y38550406D01*
X10533726Y38571720D01*
X10535050Y38573343D01*
X11075180Y38573343D01*
X11082681Y38565842D01*
X11090183Y38573343D01*
X11082681Y38580844D01*
X11075180Y38573343D01*
X10535050Y38573343D01*
X10535671Y38574104D01*
X10545825Y38592316D01*
X10535113Y38593670D01*
X10506517Y38579100D01*
X10463015Y38549541D01*
X10440106Y38531294D01*
X10411305Y38502752D01*
X10400047Y38482913D01*
X10206394Y38482913D01*
X10185984Y38490827D01*
X10182375Y38491726D01*
X10160099Y38506454D01*
X10130002Y38533519D01*
X10092991Y38561963D01*
X10041138Y38577525D01*
X10029049Y38577657D01*
X10001710Y38573863D01*
X10000913Y38562679D01*
X9945390Y38562679D01*
X9939850Y38576038D01*
X9938625Y38590961D01*
X10280023Y38590961D01*
X10289705Y38567994D01*
X10313780Y38539483D01*
X10347537Y38507894D01*
X10403578Y38559372D01*
X10459602Y38610835D01*
X10587574Y38610835D01*
X10588365Y38607073D01*
X10608251Y38601667D01*
X10646121Y38600695D01*
X10652968Y38601022D01*
X10702821Y38610000D01*
X10729765Y38630873D01*
X10731258Y38633355D01*
X10910147Y38633355D01*
X10917649Y38625853D01*
X10925150Y38633355D01*
X10917649Y38640856D01*
X10910147Y38633355D01*
X10731258Y38633355D01*
X10734471Y38638696D01*
X10736993Y38648358D01*
X10790124Y38648358D01*
X10797625Y38640856D01*
X10805127Y38648358D01*
X10797625Y38655859D01*
X10794747Y38652981D01*
X10790124Y38648358D01*
X10736993Y38648358D01*
X10738199Y38652981D01*
X10719806Y38650789D01*
X10686866Y38642610D01*
X10644017Y38633321D01*
X10641526Y38632805D01*
X10606448Y38622302D01*
X10598209Y38617296D01*
X10587599Y38610850D01*
X10587574Y38610835D01*
X10459602Y38610835D01*
X10459618Y38610850D01*
X10369821Y38610850D01*
X10323163Y38609359D01*
X10290178Y38603031D01*
X10280023Y38590961D01*
X9938625Y38590961D01*
X9937878Y38600057D01*
X9955201Y38618555D01*
X9969010Y38632755D01*
X9966612Y38647338D01*
X9965010Y38648199D01*
X9946809Y38642040D01*
X9928822Y38609691D01*
X9913034Y38554589D01*
X9908376Y38526685D01*
X9860950Y38526685D01*
X9861630Y38531713D01*
X9862339Y38535694D01*
X9875168Y38588483D01*
X9896102Y38643213D01*
X9899230Y38649413D01*
X10054979Y38649413D01*
X10061407Y38641347D01*
X10074482Y38632755D01*
X10084985Y38625853D01*
X10103965Y38617398D01*
X10114991Y38617296D01*
X10108563Y38625363D01*
X10084985Y38640856D01*
X10066005Y38649312D01*
X10054979Y38649413D01*
X9899230Y38649413D01*
X9906267Y38663361D01*
X10024973Y38663361D01*
X10032475Y38655859D01*
X10039976Y38663361D01*
X10032475Y38670862D01*
X10024973Y38663361D01*
X9906267Y38663361D01*
X9921405Y38693367D01*
X9964961Y38693367D01*
X9972463Y38685865D01*
X9979964Y38693367D01*
X9978144Y38695187D01*
X10102865Y38695187D01*
X10106055Y38693367D01*
X10122492Y38683990D01*
X10146885Y38682038D01*
X10186255Y38679016D01*
X10224366Y38674219D01*
X10272522Y38664675D01*
X10278223Y38663361D01*
X10290124Y38660618D01*
X10304701Y38660152D01*
X10295026Y38670229D01*
X10293170Y38671464D01*
X10392174Y38671464D01*
X10408040Y38661269D01*
X10414833Y38660152D01*
X10440940Y38655859D01*
X10451000Y38655990D01*
X10471959Y38659029D01*
X10463282Y38666017D01*
X10425045Y38676854D01*
X10395984Y38680541D01*
X10392174Y38671464D01*
X10293170Y38671464D01*
X10260247Y38693367D01*
X10355038Y38693367D01*
X10362540Y38685865D01*
X10370041Y38693367D01*
X10625091Y38693367D01*
X10632593Y38685865D01*
X10640094Y38693367D01*
X10632593Y38700868D01*
X10625091Y38693367D01*
X10370041Y38693367D01*
X10362540Y38700868D01*
X10355038Y38693367D01*
X10260247Y38693367D01*
X10259688Y38693739D01*
X10207704Y38720435D01*
X10161111Y38736483D01*
X10129141Y38738105D01*
X10121378Y38734907D01*
X10102970Y38716034D01*
X10102865Y38695187D01*
X9978144Y38695187D01*
X9972463Y38700868D01*
X9964961Y38693367D01*
X9921405Y38693367D01*
X9928413Y38707257D01*
X9944057Y38734152D01*
X10005156Y38734152D01*
X10018794Y38724941D01*
X10031010Y38720601D01*
X10044954Y38717455D01*
X10045004Y38717489D01*
X10056099Y38728749D01*
X10078667Y38752957D01*
X10097632Y38775360D01*
X10100102Y38790055D01*
X10083187Y38803530D01*
X10068887Y38810150D01*
X10049531Y38804949D01*
X10025838Y38777098D01*
X10008564Y38750724D01*
X10005156Y38734152D01*
X9944057Y38734152D01*
X9975374Y38787992D01*
X9990981Y38813390D01*
X10190006Y38813390D01*
X10197507Y38805889D01*
X10205009Y38813390D01*
X10197507Y38820892D01*
X10190006Y38813390D01*
X9990981Y38813390D01*
X10000200Y38828393D01*
X10160000Y38828393D01*
X10167501Y38820892D01*
X10175003Y38828393D01*
X10167501Y38835895D01*
X10160000Y38828393D01*
X10000200Y38828393D01*
X10009419Y38843396D01*
X10129994Y38843396D01*
X10137495Y38835895D01*
X10144997Y38843396D01*
X10137495Y38850898D01*
X10129994Y38843396D01*
X10009419Y38843396D01*
X10024147Y38867363D01*
X10033488Y38881570D01*
X10086276Y38881570D01*
X10098126Y38861900D01*
X10100102Y38859961D01*
X10111093Y38852771D01*
X10106525Y38870298D01*
X10099043Y38884300D01*
X10087883Y38888802D01*
X10086276Y38881570D01*
X10033488Y38881570D01*
X10049482Y38905895D01*
X10148013Y38905895D01*
X10165673Y38890118D01*
X10174866Y38883501D01*
X10212855Y38861806D01*
X10232269Y38852771D01*
X10252413Y38843396D01*
X10258883Y38840385D01*
X10269255Y38835855D01*
X10281437Y38828393D01*
X10305930Y38813390D01*
X10310703Y38810466D01*
X10324671Y38790055D01*
X10328225Y38784862D01*
X10345639Y38759156D01*
X10385582Y38737952D01*
X10449421Y38717218D01*
X10488832Y38707797D01*
X10501666Y38710753D01*
X10490572Y38723373D01*
X10745115Y38723373D01*
X10752616Y38715871D01*
X10760118Y38723373D01*
X10752616Y38730874D01*
X10745115Y38723373D01*
X10490572Y38723373D01*
X10487895Y38726418D01*
X10471065Y38738375D01*
X10715109Y38738375D01*
X10722611Y38730874D01*
X10730112Y38738375D01*
X10722611Y38745877D01*
X10715109Y38738375D01*
X10471065Y38738375D01*
X10447489Y38755125D01*
X10415925Y38774929D01*
X10844300Y38774929D01*
X10845814Y38760783D01*
X10851033Y38751716D01*
X10871498Y38738375D01*
X10883156Y38730775D01*
X10904315Y38723373D01*
X10940391Y38710753D01*
X10941120Y38710498D01*
X10984720Y38698567D01*
X11006426Y38693367D01*
X11023962Y38689166D01*
X11040809Y38688535D01*
X11038994Y38696848D01*
X11022253Y38714280D01*
X11007852Y38725089D01*
X10966041Y38746534D01*
X10954375Y38750728D01*
X11060581Y38750728D01*
X11062775Y38744665D01*
X11079291Y38719668D01*
X11104445Y38688535D01*
X11106602Y38685865D01*
X11128230Y38661968D01*
X11132362Y38659029D01*
X11136964Y38655756D01*
X11128121Y38672867D01*
X11112533Y38706059D01*
X11111949Y38709683D01*
X11170787Y38709683D01*
X11182372Y38688983D01*
X11216142Y38655756D01*
X11219169Y38652778D01*
X11224469Y38648358D01*
X11242458Y38633355D01*
X11281281Y38600976D01*
X11303994Y38583462D01*
X11368810Y38533483D01*
X11424808Y38489996D01*
X11477869Y38443700D01*
X11505392Y38411220D01*
X11507754Y38392080D01*
X11485329Y38385806D01*
X11477744Y38387263D01*
X11445352Y38400296D01*
X11397982Y38423939D01*
X11342992Y38454633D01*
X11317404Y38469224D01*
X11266489Y38495700D01*
X11227271Y38512651D01*
X11206647Y38516925D01*
X11205919Y38510476D01*
X11225423Y38494730D01*
X11262717Y38474353D01*
X11286495Y38462136D01*
X11326985Y38433226D01*
X11342526Y38404560D01*
X11343266Y38401646D01*
X11346689Y38388160D01*
X11357558Y38378305D01*
X11359252Y38376769D01*
X11387047Y38371858D01*
X11437448Y38370803D01*
X11471579Y38371331D01*
X11513003Y38376255D01*
X11542499Y38389457D01*
X11571432Y38414658D01*
X11571917Y38415144D01*
X11595352Y38441562D01*
X11608409Y38468105D01*
X11614063Y38504721D01*
X11615286Y38561358D01*
X11615286Y38664204D01*
X11520065Y38745082D01*
X11510897Y38752819D01*
X11454068Y38797958D01*
X11416694Y38822526D01*
X11399627Y38826961D01*
X11403722Y38811702D01*
X11418213Y38792545D01*
X11425143Y38783384D01*
X11429830Y38777188D01*
X11478804Y38723858D01*
X11509867Y38691097D01*
X11548767Y38647592D01*
X11575403Y38614596D01*
X11585280Y38597446D01*
X11584807Y38592287D01*
X11570532Y38581258D01*
X11536098Y38590894D01*
X11481129Y38621354D01*
X11405245Y38672797D01*
X11401984Y38675131D01*
X11351683Y38709695D01*
X11323010Y38726538D01*
X11314751Y38727233D01*
X11325687Y38713355D01*
X11354603Y38686477D01*
X11400281Y38648174D01*
X11461506Y38600017D01*
X11480365Y38585315D01*
X11534490Y38538686D01*
X11564311Y38504329D01*
X11569232Y38483092D01*
X11548658Y38475824D01*
X11539457Y38476961D01*
X11518356Y38489874D01*
X11510398Y38498939D01*
X11480929Y38523513D01*
X11436574Y38555936D01*
X11382948Y38592592D01*
X11325662Y38629868D01*
X11270330Y38664147D01*
X11222563Y38691814D01*
X11187976Y38709254D01*
X11172180Y38712851D01*
X11170787Y38709683D01*
X11111949Y38709683D01*
X11108355Y38731988D01*
X11106501Y38743507D01*
X11086432Y38757338D01*
X11072137Y38758454D01*
X11060581Y38750728D01*
X10954375Y38750728D01*
X10915885Y38764565D01*
X10881439Y38774047D01*
X10854046Y38779235D01*
X10844300Y38774929D01*
X10415925Y38774929D01*
X10402449Y38783384D01*
X10745115Y38783384D01*
X10752616Y38775883D01*
X10760118Y38783384D01*
X10752616Y38790886D01*
X10752371Y38790641D01*
X10745115Y38783384D01*
X10402449Y38783384D01*
X10380420Y38797205D01*
X10377960Y38798699D01*
X10327427Y38828393D01*
X10475062Y38828393D01*
X10482563Y38820892D01*
X10490065Y38828393D01*
X10482563Y38835895D01*
X10475062Y38828393D01*
X10327427Y38828393D01*
X10312501Y38837164D01*
X10301170Y38843396D01*
X10445056Y38843396D01*
X10452557Y38835895D01*
X10460059Y38843396D01*
X10452557Y38850898D01*
X10445056Y38843396D01*
X10301170Y38843396D01*
X10253025Y38869876D01*
X10205997Y38893416D01*
X10177880Y38904363D01*
X10154475Y38908817D01*
X10148013Y38905895D01*
X10049482Y38905895D01*
X10063579Y38927334D01*
X10089425Y38961408D01*
X10147651Y38961408D01*
X10160000Y38955918D01*
X10167942Y38957001D01*
X10169261Y38962713D01*
X10244546Y38962713D01*
X10264398Y38941538D01*
X10271830Y38934751D01*
X10309187Y38907559D01*
X10353818Y38881526D01*
X10377915Y38869567D01*
X10413562Y38854216D01*
X10423859Y38853957D01*
X10408278Y38868165D01*
X10366290Y38896219D01*
X10337032Y38915921D01*
X10306763Y38940368D01*
X10295026Y38955946D01*
X10289400Y38964650D01*
X10281154Y38966771D01*
X10405898Y38966771D01*
X10410472Y38962004D01*
X10435587Y38944789D01*
X10477854Y38918383D01*
X10532013Y38886150D01*
X10560426Y38869769D01*
X10589193Y38853957D01*
X10608407Y38843396D01*
X10628736Y38832222D01*
X10636411Y38828393D01*
X10680758Y38806269D01*
X10714770Y38792284D01*
X10729050Y38790641D01*
X10721874Y38801715D01*
X10691520Y38825879D01*
X10636264Y38863508D01*
X10619715Y38873969D01*
X10566303Y38904480D01*
X10511364Y38932087D01*
X10461749Y38953718D01*
X10424311Y38966303D01*
X10405898Y38966771D01*
X10281154Y38966771D01*
X10265021Y38970921D01*
X10246143Y38970068D01*
X10245242Y38965920D01*
X10244546Y38962713D01*
X10169261Y38962713D01*
X10170002Y38965920D01*
X10167803Y38967716D01*
X10149998Y38965920D01*
X10147651Y38961408D01*
X10089425Y38961408D01*
X10097246Y38971718D01*
X10129644Y39005846D01*
X10132795Y39008429D01*
X10205009Y39008429D01*
X10212510Y39000927D01*
X10220012Y39008429D01*
X10212510Y39015930D01*
X10205009Y39008429D01*
X10132795Y39008429D01*
X10150624Y39023046D01*
X10235015Y39023046D01*
X10238568Y39018959D01*
X10260062Y39018858D01*
X10305449Y39026410D01*
X10325181Y39034384D01*
X10330241Y39054001D01*
X10324557Y39064048D01*
X10321737Y39064480D01*
X10385044Y39064480D01*
X10385261Y39061720D01*
X10389612Y39054001D01*
X10397004Y39040888D01*
X10417659Y39025531D01*
X10434648Y39025526D01*
X10444059Y39027020D01*
X10473396Y39018982D01*
X10497740Y39008429D01*
X10511969Y39002261D01*
X10549953Y38981319D01*
X10577525Y38960619D01*
X10605872Y38939109D01*
X10659735Y38909008D01*
X10728050Y38877699D01*
X10803003Y38849047D01*
X10838317Y38837075D01*
X10878164Y38824628D01*
X10895519Y38821423D01*
X10893894Y38826590D01*
X10875384Y38842563D01*
X10826419Y38880310D01*
X10815898Y38887672D01*
X10895145Y38887672D01*
X10898180Y38881981D01*
X10921804Y38865300D01*
X10961968Y38845528D01*
X11010395Y38826492D01*
X11027349Y38821423D01*
X11058809Y38812017D01*
X11092842Y38804309D01*
X11138860Y38795673D01*
X11167700Y38792636D01*
X11175325Y38795502D01*
X11157696Y38804574D01*
X11137242Y38812050D01*
X11094552Y38826587D01*
X11042788Y38843520D01*
X10989457Y38860471D01*
X10942067Y38875064D01*
X10908126Y38884924D01*
X10895145Y38887672D01*
X10815898Y38887672D01*
X10793411Y38903408D01*
X10865139Y38903408D01*
X10872640Y38895907D01*
X10880142Y38903408D01*
X10872640Y38910909D01*
X10865139Y38903408D01*
X10793411Y38903408D01*
X10769675Y38920018D01*
X10712979Y38956540D01*
X10664157Y38984731D01*
X10631034Y38999443D01*
X10625759Y39000968D01*
X10582878Y39017673D01*
X10552053Y39036382D01*
X10544391Y39041852D01*
X10512282Y39055390D01*
X10470822Y39066015D01*
X10429482Y39072133D01*
X10397732Y39072153D01*
X10385044Y39064480D01*
X10321737Y39064480D01*
X10309523Y39066351D01*
X10278561Y39052681D01*
X10275650Y39051160D01*
X10246855Y39034034D01*
X10235015Y39023046D01*
X10150624Y39023046D01*
X10165270Y39035054D01*
X10208620Y39064673D01*
X10214385Y39068415D01*
X10251476Y39093378D01*
X10266981Y39108653D01*
X10264124Y39120192D01*
X10263131Y39120951D01*
X10482563Y39120951D01*
X10485643Y39116461D01*
X10498452Y39105948D01*
X10499949Y39106338D01*
X10502546Y39113751D01*
X10568285Y39113751D01*
X10570081Y39095946D01*
X10574593Y39093599D01*
X10577526Y39100196D01*
X10615465Y39100196D01*
X10628616Y39089657D01*
X10660393Y39076670D01*
X10665093Y39075055D01*
X10704911Y39056674D01*
X10731429Y39036848D01*
X10743544Y39024378D01*
X10776165Y39000368D01*
X10779806Y38998472D01*
X10796121Y38995163D01*
X10794705Y39015036D01*
X10784763Y39028321D01*
X10754843Y39050087D01*
X10714043Y39072688D01*
X10671331Y39091764D01*
X10635676Y39102956D01*
X10616046Y39101903D01*
X10615465Y39100196D01*
X10577526Y39100196D01*
X10580083Y39105948D01*
X10579000Y39113890D01*
X10570081Y39115950D01*
X10568285Y39113751D01*
X10502546Y39113751D01*
X10504717Y39119948D01*
X10772245Y39119948D01*
X10774237Y39109780D01*
X10779295Y39105948D01*
X10801376Y39089219D01*
X10836733Y39058240D01*
X10849676Y39023458D01*
X10836327Y38995163D01*
X10834502Y38991294D01*
X10832891Y38989013D01*
X10840588Y38975332D01*
X10874389Y38955955D01*
X10935772Y38929986D01*
X10950517Y38924246D01*
X11005650Y38903408D01*
X11028607Y38894731D01*
X11083995Y38875506D01*
X11115062Y38867097D01*
X11120189Y38870030D01*
X11117492Y38872763D01*
X11088826Y38898012D01*
X11061520Y38919876D01*
X11150195Y38919876D01*
X11151429Y38917984D01*
X11169569Y38902524D01*
X11204853Y38876026D01*
X11213292Y38870030D01*
X11251465Y38842909D01*
X11276504Y38825605D01*
X11313389Y38800974D01*
X11323745Y38795502D01*
X11329341Y38792545D01*
X11326679Y38799400D01*
X11307726Y38820618D01*
X11296099Y38831978D01*
X11262791Y38859164D01*
X11224339Y38886087D01*
X11187952Y38908207D01*
X11160835Y38920983D01*
X11150195Y38919876D01*
X11061520Y38919876D01*
X11045173Y38932965D01*
X11044586Y38933414D01*
X11120189Y38933414D01*
X11127690Y38925912D01*
X11135192Y38933414D01*
X11127690Y38940915D01*
X11120189Y38933414D01*
X11044586Y38933414D01*
X10992046Y38973590D01*
X10934961Y39015855D01*
X10879430Y39055730D01*
X10830969Y39089183D01*
X10795092Y39112183D01*
X10777312Y39120698D01*
X10772245Y39119948D01*
X10504717Y39119948D01*
X10505068Y39120951D01*
X10504457Y39125063D01*
X10500901Y39127598D01*
X10899654Y39127598D01*
X10905359Y39120951D01*
X10910147Y39115373D01*
X10926556Y39103463D01*
X10965765Y39079711D01*
X11019972Y39049325D01*
X11082681Y39016047D01*
X11110182Y39001872D01*
X11164059Y38974609D01*
X11195248Y38960228D01*
X11206499Y38957877D01*
X11200566Y38966704D01*
X11180201Y38985857D01*
X11169585Y38995135D01*
X11071242Y39061706D01*
X10949114Y39115537D01*
X10938032Y39119408D01*
X10907516Y39128937D01*
X10899654Y39127598D01*
X10500901Y39127598D01*
X10489179Y39135954D01*
X10483753Y39134776D01*
X10482563Y39120951D01*
X10263131Y39120951D01*
X10246127Y39133951D01*
X10231984Y39145018D01*
X10674164Y39145018D01*
X10674396Y39139897D01*
X10693855Y39137138D01*
X10708602Y39139541D01*
X10702919Y39146202D01*
X10694243Y39148600D01*
X10674164Y39145018D01*
X10231984Y39145018D01*
X10220837Y39153740D01*
X10194234Y39180274D01*
X10182929Y39201741D01*
X10179438Y39225971D01*
X10220012Y39225971D01*
X10220483Y39216767D01*
X10227442Y39212871D01*
X10250018Y39225971D01*
X10252891Y39227851D01*
X10263640Y39238267D01*
X10246267Y39240745D01*
X10232382Y39238581D01*
X10220012Y39225971D01*
X10179438Y39225971D01*
X10175758Y39251513D01*
X10181957Y39293485D01*
X10220012Y39293485D01*
X10227513Y39285983D01*
X10235015Y39293485D01*
X10227513Y39300986D01*
X10220012Y39293485D01*
X10181957Y39293485D01*
X10183770Y39305758D01*
X10194326Y39327383D01*
X10250018Y39327383D01*
X10253477Y39321618D01*
X10275022Y39315989D01*
X10286973Y39317570D01*
X10290156Y39325861D01*
X10287864Y39335465D01*
X10298907Y39358277D01*
X10307227Y39368873D01*
X10306292Y39372845D01*
X10283774Y39359799D01*
X10261343Y39342933D01*
X10250018Y39327383D01*
X10194326Y39327383D01*
X10206064Y39351430D01*
X10248140Y39391382D01*
X10332767Y39391382D01*
X10334375Y39382590D01*
X10355244Y39371600D01*
X10360963Y39368873D01*
X10372914Y39363175D01*
X10380185Y39343188D01*
X10377500Y39303147D01*
X10376472Y39295556D01*
X10376075Y39293485D01*
X10366679Y39244425D01*
X10364910Y39238267D01*
X10354538Y39202152D01*
X10345035Y39173245D01*
X10343366Y39159005D01*
X10361146Y39158534D01*
X10396845Y39164573D01*
X10438778Y39174598D01*
X10475544Y39185867D01*
X10495740Y39195640D01*
X10515330Y39205596D01*
X10551014Y39210969D01*
X10563406Y39211308D01*
X10580137Y39216356D01*
X10586218Y39232285D01*
X10585195Y39241945D01*
X10702980Y39241945D01*
X10712062Y39232285D01*
X10712518Y39231800D01*
X10742558Y39229543D01*
X10785499Y39233997D01*
X10833738Y39243982D01*
X10879673Y39258318D01*
X10915703Y39275827D01*
X10939745Y39292819D01*
X10953938Y39307527D01*
X10942443Y39307400D01*
X10906397Y39290630D01*
X10891060Y39283719D01*
X10838994Y39269073D01*
X10783254Y39262132D01*
X10757215Y39260270D01*
X10720202Y39253051D01*
X10703238Y39242868D01*
X10702980Y39241945D01*
X10585195Y39241945D01*
X10582736Y39265164D01*
X10570783Y39321059D01*
X10568998Y39328003D01*
X10553132Y39363403D01*
X10616699Y39363403D01*
X10623381Y39312238D01*
X10627227Y39306805D01*
X10649222Y39300986D01*
X10649928Y39300991D01*
X10666127Y39309150D01*
X10664325Y39336955D01*
X10662454Y39348472D01*
X10672513Y39390552D01*
X10705646Y39424996D01*
X10756367Y39445344D01*
X10784457Y39449387D01*
X10801411Y39443774D01*
X10805127Y39422228D01*
X10801100Y39402662D01*
X10786373Y39392124D01*
X10749584Y39391866D01*
X10720008Y39377376D01*
X10713343Y39351472D01*
X10733113Y39318990D01*
X10755410Y39303393D01*
X10776478Y39306729D01*
X10783814Y39334743D01*
X10783761Y39336439D01*
X10787248Y39359320D01*
X10803894Y39363956D01*
X10840369Y39352433D01*
X10853766Y39347790D01*
X10860289Y39351419D01*
X10850326Y39369763D01*
X10933380Y39369763D01*
X10934429Y39354276D01*
X10939272Y39343370D01*
X10950335Y39331478D01*
X10955156Y39345110D01*
X10954623Y39349185D01*
X10940325Y39368393D01*
X10933380Y39369763D01*
X10850326Y39369763D01*
X10847871Y39374284D01*
X10842487Y39383333D01*
X10835357Y39405442D01*
X10847666Y39419394D01*
X10866747Y39437751D01*
X10861006Y39457032D01*
X10826352Y39474015D01*
X10763350Y39488240D01*
X10744366Y39490753D01*
X10694719Y39488204D01*
X10667988Y39469462D01*
X10666392Y39443514D01*
X10665897Y39435461D01*
X10665497Y39412758D01*
X10642743Y39406007D01*
X10626403Y39403712D01*
X10617255Y39391707D01*
X10616699Y39363403D01*
X10553132Y39363403D01*
X10551060Y39368027D01*
X10525648Y39399564D01*
X10499235Y39416267D01*
X10478290Y39411787D01*
X10476700Y39410014D01*
X10473310Y39395297D01*
X10496819Y39385031D01*
X10515063Y39375523D01*
X10541481Y39343167D01*
X10557076Y39301535D01*
X10555559Y39263627D01*
X10548452Y39251208D01*
X10530585Y39238903D01*
X10496668Y39228525D01*
X10439830Y39217324D01*
X10437267Y39216871D01*
X10401624Y39212380D01*
X10387459Y39217683D01*
X10387490Y39235277D01*
X10403192Y39257690D01*
X10445226Y39270980D01*
X10461122Y39273754D01*
X10489604Y39286026D01*
X10497566Y39308488D01*
X10490560Y39330586D01*
X10463810Y39334920D01*
X10442591Y39336718D01*
X10430053Y39350384D01*
X10428785Y39355354D01*
X10410689Y39372659D01*
X10380559Y39387844D01*
X10350537Y39395791D01*
X10332767Y39391382D01*
X10248140Y39391382D01*
X10248350Y39391581D01*
X10311386Y39434419D01*
X10328242Y39443514D01*
X10415050Y39443514D01*
X10422552Y39436013D01*
X10430053Y39443514D01*
X10422552Y39451016D01*
X10415050Y39443514D01*
X10328242Y39443514D01*
X10385708Y39474520D01*
X10462294Y39507024D01*
X10532121Y39527070D01*
X10584033Y39534412D01*
X10667404Y39538165D01*
X10750545Y39534105D01*
X10823729Y39522854D01*
X10877229Y39505032D01*
X10890295Y39497773D01*
X10947790Y39450981D01*
X10956594Y39437751D01*
X10986185Y39393287D01*
G37*
G36*
X9357061Y40268728D02*
G01*
X9327195Y40232989D01*
X9315697Y40218983D01*
X9282638Y40170028D01*
X9250814Y40114709D01*
X9246701Y40107560D01*
X9213855Y40041658D01*
X9199534Y40010479D01*
X9170996Y39949529D01*
X9158478Y39923543D01*
X9146516Y39898710D01*
X9130215Y39866643D01*
X9123839Y39853833D01*
X9102329Y39798521D01*
X9078455Y39722905D01*
X9054051Y39633954D01*
X9030951Y39538638D01*
X9010990Y39443929D01*
X8996004Y39356794D01*
X8983812Y39244934D01*
X8978173Y39065551D01*
X8986940Y38877493D01*
X9009896Y38691139D01*
X9022797Y38593993D01*
X9027213Y38504363D01*
X9021402Y38436233D01*
X9005581Y38391915D01*
X8979968Y38373721D01*
X8963119Y38375594D01*
X8921502Y38395444D01*
X8867602Y38434176D01*
X8825697Y38467397D01*
X8774791Y38506279D01*
X8734719Y38535329D01*
X8722803Y38543655D01*
X8614503Y38630892D01*
X8555885Y38689200D01*
X8689710Y38689200D01*
X8693794Y38680528D01*
X8715238Y38657586D01*
X8746597Y38631071D01*
X8778201Y38608874D01*
X8800378Y38598890D01*
X8813233Y38589606D01*
X8830800Y38563036D01*
X8833121Y38558893D01*
X8860992Y38528731D01*
X8900168Y38502800D01*
X8909199Y38498449D01*
X8944115Y38483109D01*
X8964423Y38476544D01*
X8969182Y38487193D01*
X8970236Y38522974D01*
X8967075Y38579372D01*
X8960085Y38651626D01*
X8949655Y38734973D01*
X8936169Y38824649D01*
X8929233Y38877330D01*
X8921746Y38962331D01*
X8916642Y39055237D01*
X8914755Y39143621D01*
X8915012Y39178008D01*
X8922769Y39319338D01*
X8942837Y39452348D01*
X8977256Y39587704D01*
X9028065Y39736072D01*
X9043539Y39777501D01*
X9063802Y39833002D01*
X9078168Y39873949D01*
X9084234Y39893603D01*
X9084370Y39894501D01*
X9084414Y39923543D01*
X9080262Y39967300D01*
X9073322Y40016857D01*
X9066418Y40055403D01*
X9126429Y40055403D01*
X9126931Y40019851D01*
X9128547Y40006278D01*
X9130363Y40008329D01*
X9141070Y40029176D01*
X9156980Y40065215D01*
X9168159Y40094019D01*
X9171811Y40114709D01*
X9161841Y40116394D01*
X9146382Y40120538D01*
X9135656Y40151225D01*
X9135492Y40152279D01*
X9132036Y40159563D01*
X9129948Y40146653D01*
X9129007Y40140831D01*
X9127044Y40099894D01*
X9126429Y40055403D01*
X9066418Y40055403D01*
X9065004Y40063295D01*
X9056716Y40097697D01*
X9049867Y40111146D01*
X9048304Y40110318D01*
X9041042Y40090486D01*
X9035400Y40059039D01*
X9033707Y40049606D01*
X9027671Y39994873D01*
X9022782Y39936721D01*
X9017746Y39885589D01*
X9012998Y39857130D01*
X9012636Y39854962D01*
X9005964Y39839588D01*
X8996245Y39834215D01*
X8981989Y39833591D01*
X8973681Y39833367D01*
X8939284Y39823618D01*
X8915805Y39795295D01*
X8897962Y39742683D01*
X8892332Y39722453D01*
X8879905Y39689195D01*
X8869874Y39676060D01*
X8865644Y39671993D01*
X8857247Y39646304D01*
X8850310Y39604796D01*
X8849863Y39601045D01*
X8848917Y39593117D01*
X8842231Y39541033D01*
X8841867Y39538195D01*
X8832520Y39469280D01*
X8832059Y39466019D01*
X8822509Y39398505D01*
X8814121Y39315989D01*
X8809545Y39270980D01*
X8808207Y39257816D01*
X8808656Y39210969D01*
X8809304Y39143455D01*
X8809638Y39108599D01*
X8811101Y39098446D01*
X8813086Y39084664D01*
X8818665Y39045936D01*
X8830467Y38964002D01*
X8837798Y38924986D01*
X8843658Y38866976D01*
X8838572Y38833713D01*
X8832721Y38814271D01*
X8826964Y38770787D01*
X8824737Y38717743D01*
X8823254Y38676720D01*
X8818138Y38637459D01*
X8810632Y38618907D01*
X8803281Y38618598D01*
X8777197Y38631213D01*
X8743119Y38657083D01*
X8724616Y38672409D01*
X8699541Y38689086D01*
X8689710Y38689200D01*
X8555885Y38689200D01*
X8511530Y38733321D01*
X8419480Y38844266D01*
X8343949Y38957055D01*
X8290535Y39065014D01*
X8277539Y39094411D01*
X8335875Y39094411D01*
X8350521Y39064077D01*
X8352219Y39060844D01*
X8373096Y39027189D01*
X8390652Y39007810D01*
X8396331Y39009737D01*
X8387008Y39029821D01*
X8381382Y39039341D01*
X8377334Y39053739D01*
X8752928Y39053739D01*
X8754723Y39035934D01*
X8759236Y39033587D01*
X8764725Y39045936D01*
X8763642Y39053879D01*
X8754723Y39055938D01*
X8752928Y39053739D01*
X8377334Y39053739D01*
X8375261Y39061110D01*
X8389651Y39076170D01*
X8399752Y39084664D01*
X8394629Y39090715D01*
X8383287Y39091989D01*
X8359808Y39098446D01*
X8734719Y39098446D01*
X8742221Y39090945D01*
X8749722Y39098446D01*
X8742221Y39105948D01*
X8734719Y39098446D01*
X8359808Y39098446D01*
X8351855Y39100633D01*
X8351049Y39100941D01*
X8335976Y39104646D01*
X8335875Y39094411D01*
X8277539Y39094411D01*
X8270937Y39109344D01*
X8238761Y39169253D01*
X8207458Y39215899D01*
X8184905Y39245654D01*
X8169801Y39275775D01*
X8165516Y39310528D01*
X8167325Y39339720D01*
X8219444Y39339720D01*
X8235439Y39290715D01*
X8271823Y39219869D01*
X8283428Y39199698D01*
X8306304Y39161472D01*
X8319770Y39141380D01*
X8321218Y39143455D01*
X8320653Y39144990D01*
X8310485Y39175890D01*
X8295438Y39224897D01*
X8278553Y39282129D01*
X8268397Y39316245D01*
X8251752Y39364428D01*
X8239099Y39386232D01*
X8228909Y39383643D01*
X8219657Y39358646D01*
X8219444Y39339720D01*
X8167325Y39339720D01*
X8168734Y39362453D01*
X8174015Y39400065D01*
X8187598Y39454560D01*
X8195613Y39473152D01*
X8281310Y39473152D01*
X8285537Y39443630D01*
X8300529Y39398505D01*
X8313303Y39363552D01*
X8322793Y39342775D01*
X8327035Y39346171D01*
X8328477Y39371365D01*
X8328511Y39372590D01*
X8332706Y39400752D01*
X8407786Y39400752D01*
X8409224Y39341961D01*
X8413463Y39292813D01*
X8419657Y39263479D01*
X8421086Y39260396D01*
X8428363Y39256091D01*
X8429678Y39263479D01*
X8480953Y39263479D01*
X8482576Y39245032D01*
X8494672Y39210969D01*
X8497151Y39207169D01*
X8507019Y39196035D01*
X8508391Y39210969D01*
X8505775Y39228428D01*
X8494672Y39263479D01*
X8488096Y39278783D01*
X8677913Y39278783D01*
X8679708Y39260978D01*
X8684221Y39258631D01*
X8689710Y39270980D01*
X8688628Y39278923D01*
X8679708Y39280982D01*
X8677913Y39278783D01*
X8488096Y39278783D01*
X8481778Y39293485D01*
X8481302Y39276177D01*
X8480953Y39263479D01*
X8429678Y39263479D01*
X8431939Y39276177D01*
X8431796Y39315977D01*
X8431243Y39323792D01*
X8662910Y39323792D01*
X8664705Y39305987D01*
X8669218Y39303640D01*
X8674707Y39315989D01*
X8673625Y39323932D01*
X8664705Y39325991D01*
X8662910Y39323792D01*
X8431243Y39323792D01*
X8427917Y39370815D01*
X8420286Y39436013D01*
X8408879Y39518529D01*
X8407821Y39406007D01*
X8407786Y39400752D01*
X8332706Y39400752D01*
X8333842Y39408380D01*
X8344642Y39428511D01*
X8353525Y39440387D01*
X8359729Y39470655D01*
X8359840Y39474757D01*
X8364990Y39513806D01*
X8375437Y39559787D01*
X8387766Y39593877D01*
X8408152Y39617068D01*
X8432103Y39610744D01*
X8459784Y39574832D01*
X8491359Y39509261D01*
X8535941Y39402474D01*
X8537807Y39458517D01*
X8599693Y39458517D01*
X8607194Y39451016D01*
X8614696Y39458517D01*
X8607194Y39466019D01*
X8599693Y39458517D01*
X8537807Y39458517D01*
X8538455Y39477981D01*
X8677793Y39477981D01*
X8679048Y39458517D01*
X8679774Y39447265D01*
X8684984Y39444720D01*
X8687342Y39466019D01*
X8685250Y39486657D01*
X8679774Y39484772D01*
X8677793Y39477981D01*
X8538455Y39477981D01*
X8542248Y39591928D01*
X8542608Y39601119D01*
X8586336Y39601119D01*
X8588764Y39544784D01*
X8589767Y39536840D01*
X8592261Y39533521D01*
X8593446Y39548837D01*
X8662910Y39548837D01*
X8664705Y39531032D01*
X8669218Y39528684D01*
X8674707Y39541033D01*
X8673625Y39548976D01*
X8664705Y39551035D01*
X8662910Y39548837D01*
X8593446Y39548837D01*
X8593997Y39555966D01*
X8594649Y39601045D01*
X8594562Y39619404D01*
X8593489Y39656824D01*
X8591447Y39670502D01*
X8588764Y39657306D01*
X8586336Y39601119D01*
X8542608Y39601119D01*
X8544671Y39653784D01*
X8548861Y39718689D01*
X8552160Y39743573D01*
X8599693Y39743573D01*
X8607194Y39736072D01*
X8614696Y39743573D01*
X8607194Y39751075D01*
X8599693Y39743573D01*
X8552160Y39743573D01*
X8554657Y39762413D01*
X8562823Y39790114D01*
X8574124Y39806951D01*
X8583179Y39815555D01*
X8602060Y39824285D01*
X8621696Y39810516D01*
X8626441Y39805031D01*
X8646596Y39771809D01*
X8659028Y39743573D01*
X8665648Y39728536D01*
X8687596Y39668559D01*
X8689143Y39736072D01*
X8691120Y39762116D01*
X8695708Y39788582D01*
X8763221Y39788582D01*
X8766664Y39743348D01*
X8773909Y39709974D01*
X8782923Y39706321D01*
X8792278Y39732404D01*
X8800543Y39788235D01*
X8801905Y39803178D01*
X8803732Y39857130D01*
X8800525Y39897996D01*
X8793379Y39921548D01*
X8783389Y39923558D01*
X8771650Y39899798D01*
X8768352Y39885739D01*
X8763621Y39840651D01*
X8763221Y39788582D01*
X8695708Y39788582D01*
X8701790Y39823660D01*
X8718258Y39883405D01*
X8745825Y39963225D01*
X8699014Y39919518D01*
X8694188Y39915100D01*
X8646564Y39876584D01*
X8597454Y39843160D01*
X8582068Y39832784D01*
X8536480Y39794717D01*
X8481909Y39742400D01*
X8424695Y39682603D01*
X8371173Y39622097D01*
X8327683Y39567649D01*
X8300561Y39526031D01*
X8287851Y39499478D01*
X8281310Y39473152D01*
X8195613Y39473152D01*
X8204435Y39493616D01*
X8231603Y39535448D01*
X8299581Y39638243D01*
X8356672Y39720667D01*
X8406168Y39786724D01*
X8451364Y39840420D01*
X8495552Y39885757D01*
X8518615Y39906095D01*
X8599693Y39906095D01*
X8600439Y39902690D01*
X8608837Y39904186D01*
X8630067Y39920502D01*
X8668457Y39954699D01*
X8727218Y40008293D01*
X8663455Y39959689D01*
X8638490Y39940259D01*
X8610558Y39917155D01*
X8599693Y39906095D01*
X8518615Y39906095D01*
X8542027Y39926741D01*
X8594082Y39967377D01*
X8618186Y39985727D01*
X8648730Y40009788D01*
X8793831Y40009788D01*
X8793858Y40008293D01*
X8794118Y39994140D01*
X8811168Y39974686D01*
X8820721Y39963225D01*
X8830070Y39952008D01*
X8839740Y39931110D01*
X8840108Y39927580D01*
X8852810Y39916107D01*
X8856744Y39919154D01*
X8865670Y39942716D01*
X8873864Y39980880D01*
X8879705Y40023153D01*
X8881571Y40059039D01*
X8877840Y40078047D01*
X8874843Y40078870D01*
X8855062Y40069036D01*
X8826014Y40044856D01*
X8812442Y40031721D01*
X8793831Y40009788D01*
X8648730Y40009788D01*
X8672374Y40028413D01*
X8723588Y40070244D01*
X8737127Y40080647D01*
X8784496Y40111790D01*
X8796527Y40118897D01*
X8977017Y40118897D01*
X8982553Y40116085D01*
X8997375Y40124654D01*
X9004772Y40146653D01*
X9002124Y40152860D01*
X8987019Y40144402D01*
X8979088Y40134311D01*
X8977017Y40118897D01*
X8796527Y40118897D01*
X8849324Y40150085D01*
X8924865Y40191634D01*
X8987743Y40223981D01*
X9168743Y40223981D01*
X9177593Y40189651D01*
X9193993Y40140631D01*
X9228050Y40201227D01*
X9249906Y40244921D01*
X9255482Y40272218D01*
X9241197Y40278178D01*
X9206757Y40263661D01*
X9205918Y40263200D01*
X9176429Y40244042D01*
X9168743Y40223981D01*
X8987743Y40223981D01*
X9004378Y40232539D01*
X9054909Y40257940D01*
X9161619Y40314419D01*
X9247792Y40364371D01*
X9311604Y40406626D01*
X9351229Y40440016D01*
X9364843Y40463373D01*
X9378028Y40482462D01*
X9411495Y40498956D01*
X9455530Y40507954D01*
X9457650Y40508219D01*
X9486835Y40519158D01*
X9523043Y40540352D01*
X9562295Y40563654D01*
X9613794Y40589229D01*
X9667538Y40612603D01*
X9714035Y40629650D01*
X9743794Y40636249D01*
X9749376Y40637411D01*
X9778425Y40650419D01*
X9822597Y40674801D01*
X9874763Y40706722D01*
X9984913Y40777195D01*
X10219167Y40787136D01*
X10265532Y40789269D01*
X10356785Y40794980D01*
X10423760Y40801956D01*
X10470488Y40810693D01*
X10501004Y40821684D01*
X10534216Y40832885D01*
X10597855Y40842367D01*
X10678365Y40846232D01*
X10768643Y40844446D01*
X10861585Y40836976D01*
X10950086Y40823789D01*
X10952101Y40823407D01*
X11028645Y40812248D01*
X11116055Y40804309D01*
X11195802Y40801284D01*
X11204524Y40801257D01*
X11310009Y40795518D01*
X11407051Y40777988D01*
X11506064Y40746098D01*
X11617467Y40697279D01*
X11644656Y40684024D01*
X11743712Y40632973D01*
X11847380Y40575916D01*
X11949311Y40516620D01*
X12043157Y40458848D01*
X12122570Y40406367D01*
X12181202Y40362941D01*
X12229261Y40324094D01*
X12291528Y40274508D01*
X12345626Y40232149D01*
X12347684Y40230263D01*
X12419121Y40164787D01*
X12490335Y40072376D01*
X12538575Y39974398D01*
X12550994Y39918755D01*
X12557665Y39842721D01*
X12558225Y39836342D01*
X12559643Y39733844D01*
X12555316Y39616026D01*
X12545312Y39487655D01*
X12529701Y39353497D01*
X12526078Y39326767D01*
X12521589Y39293388D01*
X12514210Y39238514D01*
X12503086Y39154868D01*
X12493815Y39084202D01*
X12487506Y39034890D01*
X12480865Y38990305D01*
X12472396Y38950062D01*
X12464940Y38930400D01*
X12464794Y38930255D01*
X12443395Y38926206D01*
X12417548Y38950295D01*
X12388253Y39001167D01*
X12356511Y39077465D01*
X12352313Y39088649D01*
X12322067Y39161660D01*
X12295758Y39217820D01*
X12384229Y39217820D01*
X12387235Y39192215D01*
X12390343Y39181832D01*
X12402457Y39139929D01*
X12416202Y39091016D01*
X12434872Y39023573D01*
X12452682Y39151027D01*
X12457571Y39186441D01*
X12465754Y39251310D01*
X12469093Y39293388D01*
X12467492Y39317487D01*
X12460853Y39328418D01*
X12449082Y39330992D01*
X12443847Y39330342D01*
X12433236Y39315895D01*
X12433801Y39294444D01*
X12434221Y39278482D01*
X12436495Y39247788D01*
X12429808Y39230006D01*
X12408836Y39225971D01*
X12401496Y39225763D01*
X12384229Y39217820D01*
X12295758Y39217820D01*
X12287851Y39234699D01*
X12256291Y39293485D01*
X12229270Y39338708D01*
X12224917Y39345995D01*
X12295468Y39345995D01*
X12296478Y39338914D01*
X12308904Y39315989D01*
X12323578Y39297304D01*
X12341362Y39285983D01*
X12343230Y39294444D01*
X12327927Y39315989D01*
X12308235Y39336208D01*
X12295468Y39345995D01*
X12224917Y39345995D01*
X12193548Y39398505D01*
X12260413Y39398505D01*
X12267915Y39391004D01*
X12275416Y39398505D01*
X12267915Y39406007D01*
X12260413Y39398505D01*
X12193548Y39398505D01*
X12188993Y39406130D01*
X12153684Y39465244D01*
X12128869Y39503421D01*
X12108998Y39527427D01*
X12099361Y39530471D01*
X12098748Y39524233D01*
X12101103Y39492348D01*
X12107875Y39442110D01*
X12118096Y39381216D01*
X12125944Y39337883D01*
X12135986Y39280007D01*
X12144512Y39225572D01*
X12151571Y39172008D01*
X12157214Y39116741D01*
X12161489Y39057202D01*
X12164448Y38990816D01*
X12166138Y38915013D01*
X12166611Y38827220D01*
X12165916Y38724866D01*
X12164103Y38605378D01*
X12161222Y38466185D01*
X12157321Y38304714D01*
X12152452Y38118394D01*
X12146663Y37904653D01*
X12144312Y37774864D01*
X12146694Y37565098D01*
X12157616Y37380865D01*
X12177231Y37220053D01*
X12205689Y37080549D01*
X12207053Y37075086D01*
X12222294Y37002263D01*
X12237391Y36911535D01*
X12250666Y36813931D01*
X12260443Y36720478D01*
X12263391Y36687711D01*
X12271290Y36613752D01*
X12279513Y36553047D01*
X12287243Y36511157D01*
X12293669Y36493638D01*
X12295955Y36489917D01*
X12301031Y36460921D01*
X12304923Y36406692D01*
X12307631Y36330653D01*
X12309155Y36236226D01*
X12309497Y36126837D01*
X12308657Y36005906D01*
X12306635Y35876857D01*
X12303433Y35743113D01*
X12299050Y35608098D01*
X12293487Y35475233D01*
X12284729Y35285100D01*
X12271454Y34975820D01*
X12260742Y34694554D01*
X12252577Y34440102D01*
X12246942Y34211269D01*
X12243823Y34006859D01*
X12243203Y33825673D01*
X12245069Y33666515D01*
X12249403Y33528189D01*
X12256191Y33409498D01*
X12265416Y33309244D01*
X12269803Y33271664D01*
X12279168Y33196715D01*
X12287728Y33134833D01*
X12294685Y33091607D01*
X12299239Y33072627D01*
X12301738Y33061620D01*
X12306188Y33024316D01*
X12311396Y32966129D01*
X12316905Y32892317D01*
X12322256Y32808138D01*
X12326715Y32739588D01*
X12337455Y32620831D01*
X12350633Y32528612D01*
X12366539Y32460651D01*
X12369760Y32449528D01*
X12384568Y32382946D01*
X12396889Y32304222D01*
X12404329Y32228105D01*
X12405590Y32210148D01*
X12413959Y32135469D01*
X12426143Y32064166D01*
X12439970Y32009551D01*
X12450235Y31976900D01*
X12466789Y31916841D01*
X12477736Y31867529D01*
X12479054Y31860650D01*
X12494318Y31810723D01*
X12514948Y31770010D01*
X12527358Y31745115D01*
X12542420Y31695595D01*
X12552533Y31639144D01*
X12559085Y31600294D01*
X12580115Y31523436D01*
X12608429Y31451607D01*
X12631615Y31401382D01*
X12657076Y31342661D01*
X12675177Y31296911D01*
X12675412Y31296262D01*
X12691264Y31259220D01*
X12717971Y31203592D01*
X12751862Y31136799D01*
X12789265Y31066264D01*
X12830602Y30992023D01*
X12864510Y30937182D01*
X12895003Y30896851D01*
X12926883Y30864695D01*
X12964948Y30834379D01*
X13016745Y30792834D01*
X13077111Y30739049D01*
X13130984Y30686200D01*
X13141788Y30674996D01*
X13180976Y30636445D01*
X13211629Y30609445D01*
X13227869Y30599273D01*
X13232339Y30598644D01*
X13263556Y30590708D01*
X13322858Y30573640D01*
X13410357Y30547409D01*
X13526169Y30511979D01*
X13670405Y30467316D01*
X13677572Y30464985D01*
X13761990Y30424062D01*
X13856029Y30355475D01*
X13878185Y30337201D01*
X13922074Y30302352D01*
X13954803Y30278225D01*
X13970547Y30269208D01*
X13975784Y30266515D01*
X13995506Y30246078D01*
X14021220Y30212141D01*
X14033333Y30193627D01*
X14050539Y30157036D01*
X14058702Y30114253D01*
X14060768Y30053456D01*
X14059717Y30001265D01*
X14054368Y29963178D01*
X14041833Y29936165D01*
X14019235Y29910305D01*
X14017415Y29908527D01*
X13971554Y29876992D01*
X13919833Y29857916D01*
X13911208Y29856047D01*
X13857735Y29837529D01*
X13807586Y29811322D01*
X13751989Y29782368D01*
X13654161Y29754495D01*
X13541247Y29744472D01*
X13517920Y29743494D01*
X13458902Y29735307D01*
X13410453Y29721601D01*
X13379409Y29712237D01*
X13313043Y29702548D01*
X13230323Y29699096D01*
X13189116Y29699419D01*
X13136075Y29702619D01*
X13092284Y29711640D01*
X13045895Y29729360D01*
X12985058Y29758655D01*
X12931228Y29787789D01*
X12881165Y29820563D01*
X12828957Y29861641D01*
X12768649Y29915708D01*
X12694288Y29987450D01*
X12661289Y30019776D01*
X12600098Y30078782D01*
X12545155Y30130612D01*
X12501452Y30170588D01*
X12473980Y30194029D01*
X12464193Y30202055D01*
X12436553Y30231624D01*
X12425446Y30255466D01*
X12418121Y30277826D01*
X12395440Y30306716D01*
X12389390Y30312605D01*
X12370086Y30340812D01*
X12366126Y30364368D01*
X12379629Y30374229D01*
X12380624Y30374320D01*
X12384838Y30386780D01*
X12377156Y30420932D01*
X12357201Y30477769D01*
X12324596Y30558283D01*
X12278963Y30663467D01*
X12219926Y30794312D01*
X12204694Y30828217D01*
X12177575Y30890799D01*
X12155465Y30944341D01*
X12116247Y31040973D01*
X12069053Y31151307D01*
X12023998Y31250565D01*
X11983700Y31333009D01*
X11950779Y31392900D01*
X11892648Y31487596D01*
X11832005Y31583800D01*
X11780697Y31662197D01*
X11740541Y31720020D01*
X11713355Y31754501D01*
X11700828Y31769198D01*
X11668690Y31812069D01*
X11637088Y31859521D01*
X11606453Y31900849D01*
X11557832Y31956775D01*
X11496717Y32021753D01*
X11428364Y32090613D01*
X11358029Y32158185D01*
X11290969Y32219300D01*
X11232441Y32268787D01*
X11187702Y32301477D01*
X11157719Y32319885D01*
X11033410Y32389132D01*
X10914486Y32444409D01*
X10806336Y32483415D01*
X10714348Y32503844D01*
X10648801Y32513060D01*
X10583749Y32523779D01*
X10534313Y32533540D01*
X10458192Y32545088D01*
X10364992Y32548542D01*
X10273744Y32542772D01*
X10197817Y32527997D01*
X10180169Y32521932D01*
X10119864Y32493508D01*
X10067167Y32459181D01*
X10046056Y32443986D01*
X9994760Y32412405D01*
X9930685Y32377060D01*
X9862950Y32343133D01*
X9827793Y32326148D01*
X9746168Y32282703D01*
X9674627Y32236787D01*
X9606099Y32183052D01*
X9533514Y32116153D01*
X9449800Y32030743D01*
X9433446Y32013442D01*
X9366136Y31939255D01*
X9317232Y31878438D01*
X9283241Y31825720D01*
X9260665Y31775833D01*
X9246009Y31723504D01*
X9240380Y31700010D01*
X9222006Y31637191D01*
X9200903Y31577235D01*
X9185699Y31534626D01*
X9164804Y31466549D01*
X9147394Y31399992D01*
X9133205Y31347673D01*
X9113895Y31292078D01*
X9095582Y31253043D01*
X9092680Y31247742D01*
X9077835Y31210074D01*
X9059577Y31151642D01*
X9039950Y31079377D01*
X9021001Y31000213D01*
X9008407Y30941947D01*
X8995450Y30874442D01*
X8985321Y30808648D01*
X8977328Y30738222D01*
X8970775Y30656823D01*
X8964969Y30558108D01*
X8959215Y30435737D01*
X8943573Y30077940D01*
X8989912Y29961288D01*
X9016100Y29890984D01*
X9062100Y29727186D01*
X9087997Y29555983D01*
X9088923Y29545794D01*
X9091572Y29490065D01*
X9088178Y29437742D01*
X9077509Y29378230D01*
X9058333Y29300933D01*
X9047230Y29261774D01*
X9024694Y29193216D01*
X9001781Y29134804D01*
X8982046Y29096085D01*
X8965974Y29073924D01*
X8944063Y29052963D01*
X8913402Y29035391D01*
X8867243Y29017507D01*
X8798837Y28995609D01*
X8757165Y28982904D01*
X8696432Y28964774D01*
X8648862Y28951045D01*
X8622197Y28943981D01*
X8572158Y28937928D01*
X8481014Y28944047D01*
X8384180Y28967829D01*
X8291478Y29007391D01*
X8276639Y29014908D01*
X8234674Y29032100D01*
X8204347Y29038966D01*
X8203640Y29038977D01*
X8172011Y29049493D01*
X8127713Y29075851D01*
X8078501Y29112322D01*
X8032129Y29153175D01*
X7996350Y29192680D01*
X7992271Y29198431D01*
X7968534Y29240675D01*
X7942044Y29298630D01*
X7917808Y29361530D01*
X7901462Y29410144D01*
X7889952Y29451706D01*
X7883423Y29491436D01*
X7881070Y29537278D01*
X7882089Y29597181D01*
X7885675Y29679091D01*
X7886854Y29698116D01*
X7892495Y29759780D01*
X7901549Y29839816D01*
X7913363Y29933846D01*
X7927285Y30037495D01*
X7942660Y30146387D01*
X7958836Y30256144D01*
X7975161Y30362391D01*
X7990981Y30460751D01*
X8005644Y30546848D01*
X8018496Y30616305D01*
X8028886Y30664747D01*
X8036159Y30687797D01*
X8037585Y30691966D01*
X8043708Y30720678D01*
X8052800Y30771219D01*
X8063886Y30838014D01*
X8075990Y30915490D01*
X8094225Y31067189D01*
X8106996Y31255119D01*
X8111799Y31453705D01*
X8108616Y31653313D01*
X8097426Y31844306D01*
X8078210Y32017052D01*
X8040296Y32257568D01*
X7997859Y32481813D01*
X7949502Y32694182D01*
X7893146Y32903793D01*
X7826709Y33119769D01*
X7814296Y33158381D01*
X7779941Y33269117D01*
X7746410Y33382383D01*
X7714713Y33494283D01*
X7685861Y33600917D01*
X7660865Y33698388D01*
X7640733Y33782797D01*
X7626478Y33850247D01*
X7619109Y33896840D01*
X7619636Y33918677D01*
X7636896Y33930286D01*
X7658897Y33923933D01*
X7669510Y33901939D01*
X7670151Y33889467D01*
X7677871Y33838136D01*
X7693439Y33764288D01*
X7715722Y33672279D01*
X7743588Y33566468D01*
X7775905Y33451211D01*
X7811540Y33330865D01*
X7849362Y33209787D01*
X7874589Y33131042D01*
X7913334Y33008691D01*
X7944770Y32906565D01*
X7970306Y32819373D01*
X7991347Y32741819D01*
X8009300Y32668612D01*
X8025573Y32594457D01*
X8041573Y32514062D01*
X8058705Y32422132D01*
X8077445Y32316655D01*
X8116085Y32071001D01*
X8143284Y31845184D01*
X8159069Y31633578D01*
X8163468Y31430555D01*
X8156509Y31230490D01*
X8138220Y31027755D01*
X8108629Y30816725D01*
X8067763Y30591772D01*
X8065627Y30581014D01*
X8052690Y30514824D01*
X8040620Y30450738D01*
X8028501Y30383463D01*
X8015416Y30307709D01*
X8000449Y30218183D01*
X7982681Y30109594D01*
X7961198Y29976651D01*
X7954047Y29923548D01*
X7945636Y29837100D01*
X7939207Y29743049D01*
X7935760Y29654087D01*
X7935431Y29632063D01*
X7938898Y29508218D01*
X7953089Y29406833D01*
X7979601Y29322552D01*
X8020030Y29250019D01*
X8075975Y29183879D01*
X8107974Y29154171D01*
X8143195Y29128914D01*
X8166113Y29121560D01*
X8173441Y29132880D01*
X8161891Y29163651D01*
X8159576Y29168495D01*
X8149332Y29207280D01*
X8141931Y29265076D01*
X8137273Y29336443D01*
X8135255Y29415942D01*
X8135776Y29498134D01*
X8138737Y29577580D01*
X8144035Y29648839D01*
X8151571Y29706473D01*
X8161242Y29745043D01*
X8172947Y29759108D01*
X8175579Y29758771D01*
X8182857Y29751050D01*
X8187176Y29729995D01*
X8188765Y29691454D01*
X8187850Y29631278D01*
X8184659Y29545316D01*
X8182269Y29479474D01*
X8181313Y29376235D01*
X8185831Y29295147D01*
X8196862Y29231250D01*
X8215445Y29179587D01*
X8242619Y29135199D01*
X8279423Y29093126D01*
X8314887Y29060601D01*
X8356204Y29030049D01*
X8387497Y29014842D01*
X8390048Y29014268D01*
X8433709Y29004036D01*
X8482486Y28992126D01*
X8488953Y28990664D01*
X8544015Y28985141D01*
X8599577Y28988178D01*
X8632410Y28994904D01*
X8651755Y29005647D01*
X8651093Y29022261D01*
X8645305Y29038392D01*
X8635881Y29076474D01*
X8624615Y29145150D01*
X8608786Y29244933D01*
X8596996Y29325287D01*
X8588387Y29392613D01*
X8582101Y29453317D01*
X8577279Y29513801D01*
X8576095Y29531678D01*
X8573559Y29600868D01*
X8576381Y29643377D01*
X8584680Y29661582D01*
X8591763Y29665068D01*
X8608836Y29664948D01*
X8612025Y29653000D01*
X8617297Y29616323D01*
X8623351Y29561401D01*
X8629410Y29494662D01*
X8630467Y29482067D01*
X8641329Y29370890D01*
X8654687Y29258728D01*
X8669216Y29155900D01*
X8683591Y29072723D01*
X8688394Y29060039D01*
X8716984Y29041231D01*
X8768811Y29040109D01*
X8843108Y29056751D01*
X8873218Y29068340D01*
X8917053Y29099358D01*
X8952990Y29147913D01*
X8983756Y29218163D01*
X9012077Y29314261D01*
X9020405Y29347756D01*
X9034341Y29412129D01*
X9040782Y29463965D01*
X9040732Y29514610D01*
X9035196Y29575412D01*
X9030303Y29615168D01*
X9015965Y29705970D01*
X8999726Y29778534D01*
X8982570Y29828945D01*
X8965479Y29853284D01*
X8962585Y29855532D01*
X8947575Y29881243D01*
X8936599Y29920798D01*
X8936430Y29921801D01*
X8925466Y29975172D01*
X8912339Y30025375D01*
X8910404Y30035719D01*
X8907726Y30077169D01*
X8906792Y30141090D01*
X8907408Y30222416D01*
X8909383Y30316082D01*
X8912527Y30417024D01*
X8916645Y30520177D01*
X8921548Y30620475D01*
X8927042Y30712855D01*
X8932937Y30792250D01*
X8939040Y30853597D01*
X8945159Y30891831D01*
X8947429Y30901281D01*
X8958910Y30950366D01*
X8973558Y31014279D01*
X8988771Y31081688D01*
X8992308Y31096912D01*
X9011596Y31167731D01*
X9033676Y31234396D01*
X9054439Y31284228D01*
X9065009Y31306888D01*
X9089864Y31371981D01*
X9107318Y31433588D01*
X9113392Y31459312D01*
X9132629Y31526097D01*
X9154335Y31588282D01*
X9164431Y31615331D01*
X9185391Y31679318D01*
X9200765Y31736256D01*
X9203534Y31747915D01*
X9226270Y31815012D01*
X9262107Y31882344D01*
X9313980Y31954059D01*
X9384827Y32034303D01*
X9477583Y32127225D01*
X9540216Y32186722D01*
X9596679Y32237566D01*
X9644947Y32276241D01*
X9691767Y32307677D01*
X9743888Y32336799D01*
X9808058Y32368536D01*
X9861708Y32395242D01*
X9932040Y32433016D01*
X9993077Y32468751D01*
X10035773Y32497331D01*
X10068510Y32520297D01*
X10136251Y32555511D01*
X10212833Y32578710D01*
X10302132Y32590260D01*
X10408026Y32590527D01*
X10534390Y32579878D01*
X10685103Y32558678D01*
X10698542Y32556486D01*
X10778758Y32541018D01*
X10847550Y32521837D01*
X10917243Y32494938D01*
X11000165Y32456316D01*
X11054167Y32429298D01*
X11123568Y32392995D01*
X11183533Y32359945D01*
X11225210Y32334921D01*
X11250594Y32316654D01*
X11307151Y32269783D01*
X11374429Y32208662D01*
X11446913Y32138797D01*
X11519092Y32065694D01*
X11585452Y31994860D01*
X11640478Y31931802D01*
X11678660Y31882026D01*
X11713014Y31832770D01*
X11747388Y31786224D01*
X11772945Y31754501D01*
X11778099Y31748268D01*
X11802386Y31714813D01*
X11837143Y31663463D01*
X11878517Y31599989D01*
X11922655Y31530166D01*
X11942418Y31498239D01*
X11979818Y31436190D01*
X12012623Y31378445D01*
X12043472Y31319648D01*
X12074999Y31254445D01*
X12109842Y31177480D01*
X12150638Y31083399D01*
X12200023Y30966846D01*
X12206811Y30950770D01*
X12242031Y30868321D01*
X12279982Y30780677D01*
X12313551Y30704294D01*
X12331822Y30662014D01*
X12365284Y30580804D01*
X12400252Y30492333D01*
X12431592Y30409434D01*
X12492959Y30242098D01*
X12703000Y30043379D01*
X12723217Y30024328D01*
X12820022Y29936051D01*
X12902149Y29867725D01*
X12973747Y29817030D01*
X13038968Y29781642D01*
X13101961Y29759240D01*
X13166875Y29747502D01*
X13237861Y29744105D01*
X13291135Y29745406D01*
X13345912Y29752178D01*
X13374372Y29764991D01*
X13388431Y29776033D01*
X13423676Y29791350D01*
X13425120Y29791677D01*
X13453032Y29809926D01*
X13484525Y29846090D01*
X13512590Y29890753D01*
X13530221Y29934501D01*
X13533600Y29960634D01*
X13530109Y30004244D01*
X13513147Y30040193D01*
X13480417Y30087776D01*
X13438753Y30138591D01*
X13394968Y30184334D01*
X13355873Y30216698D01*
X13324233Y30242828D01*
X13311397Y30270591D01*
X13327064Y30292604D01*
X13332404Y30292715D01*
X13356163Y30278778D01*
X13391729Y30249301D01*
X13433933Y30209506D01*
X13477602Y30164615D01*
X13517567Y30119852D01*
X13548655Y30080439D01*
X13565696Y30051597D01*
X13574600Y30022350D01*
X13577377Y29944232D01*
X13550362Y29863531D01*
X13520052Y29804117D01*
X13605410Y29804117D01*
X13649727Y29806079D01*
X13707491Y29818949D01*
X13768603Y29848043D01*
X13802115Y29865375D01*
X13857590Y29888933D01*
X13903147Y29902609D01*
X13954241Y29917486D01*
X13991029Y29945631D01*
X14010229Y29991223D01*
X14015759Y30059727D01*
X14015758Y30062070D01*
X14014292Y30113076D01*
X14006463Y30147039D01*
X13987009Y30176391D01*
X13950672Y30213561D01*
X13894783Y30265137D01*
X13805248Y30336842D01*
X13721226Y30391062D01*
X13648186Y30423992D01*
X13584209Y30444258D01*
X13495810Y30471703D01*
X13410954Y30497477D01*
X13334655Y30520101D01*
X13271922Y30538094D01*
X13227769Y30549975D01*
X13207205Y30554264D01*
X13201389Y30556477D01*
X13176529Y30575194D01*
X13139707Y30608858D01*
X13096562Y30652466D01*
X13084061Y30665435D01*
X13031086Y30716553D01*
X12978409Y30762389D01*
X12935797Y30794326D01*
X12911427Y30811253D01*
X12871495Y30844362D01*
X12846336Y30872409D01*
X12833769Y30892578D01*
X12789204Y30967147D01*
X12744242Y31046332D01*
X12702973Y31122629D01*
X12669488Y31188531D01*
X12647877Y31236533D01*
X12646584Y31239819D01*
X12624726Y31293178D01*
X12596564Y31359222D01*
X12567854Y31424436D01*
X12565262Y31430281D01*
X12539434Y31496301D01*
X12518568Y31562626D01*
X12506969Y31615723D01*
X12506240Y31621148D01*
X12497744Y31666264D01*
X12486238Y31688525D01*
X12468522Y31694489D01*
X12466212Y31694569D01*
X12445426Y31705846D01*
X12440951Y31726428D01*
X12456352Y31742298D01*
X12462204Y31757291D01*
X12448943Y31792308D01*
X12432468Y31833057D01*
X12425538Y31868425D01*
X12422561Y31890474D01*
X12411629Y31935046D01*
X12395440Y31987046D01*
X12384457Y32024472D01*
X12370778Y32092796D01*
X12365434Y32153108D01*
X12364170Y32186839D01*
X12357679Y32252166D01*
X12347087Y32323970D01*
X12333994Y32393153D01*
X12319998Y32450615D01*
X12306700Y32487257D01*
X12303295Y32498007D01*
X12296648Y32536979D01*
X12289628Y32596683D01*
X12282885Y32671254D01*
X12277070Y32754826D01*
X12275385Y32781724D01*
X12267975Y32881946D01*
X12258943Y32983846D01*
X12249280Y33076873D01*
X12239975Y33150475D01*
X12238942Y33157571D01*
X12227844Y33234592D01*
X12218376Y33303667D01*
X12210475Y33367712D01*
X12204076Y33429647D01*
X12199113Y33492391D01*
X12195523Y33558862D01*
X12193241Y33631979D01*
X12192202Y33714661D01*
X12192342Y33809826D01*
X12193597Y33920393D01*
X12195901Y34049281D01*
X12199190Y34199409D01*
X12203399Y34373694D01*
X12208465Y34575056D01*
X12211295Y34675225D01*
X12215583Y34807255D01*
X12220785Y34953368D01*
X12226591Y35105215D01*
X12232691Y35254448D01*
X12238776Y35392717D01*
X12239989Y35419496D01*
X12246293Y35573051D01*
X12251425Y35723490D01*
X12255360Y35867828D01*
X12258074Y36003081D01*
X12259544Y36126266D01*
X12259744Y36234398D01*
X12258651Y36324493D01*
X12256242Y36393566D01*
X12252490Y36438634D01*
X12247374Y36456713D01*
X12244989Y36461048D01*
X12238581Y36489848D01*
X12231204Y36540648D01*
X12223592Y36607985D01*
X12216481Y36686394D01*
X12215777Y36694918D01*
X12205812Y36791506D01*
X12192420Y36891679D01*
X12177245Y36984254D01*
X12161927Y37058045D01*
X12154850Y37088014D01*
X12136832Y37172768D01*
X12121123Y37257643D01*
X12110491Y37328098D01*
X12105090Y37387213D01*
X12100427Y37471752D01*
X12096969Y37572368D01*
X12094733Y37683304D01*
X12093735Y37798804D01*
X12093992Y37913111D01*
X12095520Y38020469D01*
X12098336Y38115120D01*
X12102455Y38191309D01*
X12107894Y38243278D01*
X12111992Y38277874D01*
X12116733Y38347741D01*
X12120312Y38437318D01*
X12122708Y38540621D01*
X12123898Y38651663D01*
X12123862Y38764458D01*
X12122578Y38873020D01*
X12120025Y38971364D01*
X12116180Y39053502D01*
X12111023Y39113449D01*
X12104478Y39161607D01*
X12093299Y39236349D01*
X12079889Y39320842D01*
X12065901Y39404428D01*
X12064955Y39409943D01*
X12053538Y39482063D01*
X12045402Y39543996D01*
X12041291Y39589306D01*
X12041950Y39611557D01*
X12041971Y39611612D01*
X12041069Y39647508D01*
X12019195Y39701556D01*
X11977458Y39771595D01*
X11967900Y39784846D01*
X12047841Y39784846D01*
X12081083Y39719201D01*
X12095557Y39691907D01*
X12128739Y39633926D01*
X12162885Y39578541D01*
X12184102Y39545311D01*
X12210168Y39503171D01*
X12226352Y39475344D01*
X12239012Y39458778D01*
X12252139Y39464768D01*
X12250445Y39482178D01*
X12232759Y39517110D01*
X12201705Y39561849D01*
X12176191Y39596208D01*
X12148169Y39641285D01*
X12141381Y39667545D01*
X12143050Y39668559D01*
X12335428Y39668559D01*
X12342930Y39661057D01*
X12350431Y39668559D01*
X12342930Y39676060D01*
X12335428Y39668559D01*
X12143050Y39668559D01*
X12155393Y39676060D01*
X12160846Y39676385D01*
X12169447Y39685867D01*
X12151915Y39707897D01*
X12108798Y39741705D01*
X12047841Y39784846D01*
X11967900Y39784846D01*
X11916965Y39855462D01*
X11898717Y39879446D01*
X11858368Y39934793D01*
X11825110Y39983456D01*
X11804761Y40017055D01*
X11801610Y40022788D01*
X11776211Y40060531D01*
X11738591Y40109142D01*
X11695666Y40159583D01*
X11691258Y40164533D01*
X11643209Y40220979D01*
X11596744Y40279346D01*
X11561356Y40327750D01*
X11556537Y40334627D01*
X11540674Y40354684D01*
X11609085Y40354684D01*
X11689557Y40266672D01*
X11710088Y40243240D01*
X11759279Y40182176D01*
X11811751Y40111980D01*
X11859156Y40043632D01*
X11890434Y39996540D01*
X11931638Y39936332D01*
X11961845Y39895801D01*
X11984101Y39871330D01*
X12001448Y39859301D01*
X12016931Y39856096D01*
X12031925Y39851706D01*
X12066537Y39833432D01*
X12108374Y39805784D01*
X12148931Y39777478D01*
X12200308Y39744066D01*
X12247840Y39715423D01*
X12286265Y39694546D01*
X12310325Y39684436D01*
X12314760Y39688092D01*
X12300780Y39702651D01*
X12267720Y39732050D01*
X12220983Y39771401D01*
X12165711Y39816279D01*
X12163605Y39817962D01*
X12075048Y39889788D01*
X12045248Y39915131D01*
X12129065Y39915131D01*
X12132888Y39901104D01*
X12135971Y39896663D01*
X12149662Y39886101D01*
X12150968Y39886723D01*
X12162894Y39886723D01*
X12230407Y39830353D01*
X12297852Y39772374D01*
X12362974Y39710782D01*
X12382501Y39688092D01*
X12399312Y39668559D01*
X12403006Y39664267D01*
X12418201Y39632448D01*
X12408812Y39614941D01*
X12375090Y39611366D01*
X12335512Y39614184D01*
X12383208Y39554833D01*
X12401729Y39530298D01*
X12418555Y39498222D01*
X12414769Y39479347D01*
X12405577Y39474895D01*
X12380463Y39483277D01*
X12340776Y39513769D01*
X12322921Y39529289D01*
X12271252Y39572748D01*
X12240550Y39595664D01*
X12230407Y39598349D01*
X12239791Y39586734D01*
X12266628Y39558354D01*
X12306705Y39517652D01*
X12355795Y39468989D01*
X12360098Y39464768D01*
X12427653Y39398505D01*
X12481183Y39345999D01*
X12491155Y39439766D01*
X12495045Y39481809D01*
X12500450Y39552312D01*
X12505859Y39633831D01*
X12510539Y39715921D01*
X12513992Y39786853D01*
X12515430Y39842721D01*
X12513557Y39881790D01*
X12507522Y39910963D01*
X12496474Y39937142D01*
X12479562Y39967231D01*
X12464802Y39991071D01*
X12433230Y40035876D01*
X12406054Y40067454D01*
X12370547Y40095442D01*
X12322139Y40123362D01*
X12276018Y40141514D01*
X12242446Y40145033D01*
X12218852Y40145179D01*
X12182434Y40156238D01*
X12179363Y40157591D01*
X12176640Y40153761D01*
X12193352Y40134539D01*
X12226657Y40103326D01*
X12227574Y40102510D01*
X12266825Y40063906D01*
X12294773Y40029485D01*
X12305422Y40006611D01*
X12309014Y39989342D01*
X12328627Y39960535D01*
X12366772Y39921737D01*
X12366890Y39921617D01*
X12385798Y39887078D01*
X12397121Y39866393D01*
X12400997Y39812618D01*
X12400587Y39810650D01*
X12388659Y39779104D01*
X12373386Y39766078D01*
X12371713Y39766252D01*
X12347822Y39775870D01*
X12307677Y39797274D01*
X12258989Y39826400D01*
X12162894Y39886723D01*
X12150968Y39886723D01*
X12151714Y39887078D01*
X12147891Y39901104D01*
X12144809Y39905546D01*
X12131117Y39916107D01*
X12129065Y39915131D01*
X12045248Y39915131D01*
X12009164Y39945818D01*
X12000789Y39953615D01*
X12155393Y39953615D01*
X12162894Y39946113D01*
X12170396Y39953615D01*
X12162894Y39961116D01*
X12155393Y39953615D01*
X12000789Y39953615D01*
X11964231Y39987652D01*
X11938533Y40016886D01*
X11930348Y40035120D01*
X11934841Y40050960D01*
X11958510Y40060050D01*
X11999580Y40050212D01*
X12054757Y40021798D01*
X12080372Y40006196D01*
X12101320Y39994580D01*
X12105865Y39995370D01*
X12092644Y40010606D01*
X12060295Y40042325D01*
X12038511Y40063037D01*
X12128630Y40063037D01*
X12132888Y40055465D01*
X12139057Y40049465D01*
X12177731Y40013307D01*
X12218135Y39977420D01*
X12246318Y39953615D01*
X12254339Y39946840D01*
X12280411Y39926600D01*
X12290419Y39921737D01*
X12288138Y39926564D01*
X12269548Y39947826D01*
X12238316Y39978203D01*
X12201798Y40010982D01*
X12167348Y40039452D01*
X12142321Y40056899D01*
X12128630Y40063037D01*
X12038511Y40063037D01*
X12007453Y40092567D01*
X11996331Y40103058D01*
X11939719Y40154372D01*
X11898800Y40186650D01*
X11869727Y40202615D01*
X11848651Y40204992D01*
X11819567Y40209293D01*
X11774750Y40232670D01*
X11766213Y40238671D01*
X11960354Y40238671D01*
X11967856Y40231169D01*
X11975357Y40238671D01*
X11967856Y40246172D01*
X11960354Y40238671D01*
X11766213Y40238671D01*
X11712184Y40276649D01*
X11609085Y40354684D01*
X11540674Y40354684D01*
X11524352Y40375321D01*
X11478870Y40427742D01*
X11451626Y40457593D01*
X11592782Y40457593D01*
X11652794Y40404956D01*
X11685371Y40377380D01*
X11715482Y40356495D01*
X11730945Y40354763D01*
X11735310Y40370708D01*
X11730091Y40380486D01*
X11704248Y40401480D01*
X11664046Y40423908D01*
X11592782Y40457593D01*
X11451626Y40457593D01*
X11424806Y40486980D01*
X11366874Y40548129D01*
X11361275Y40553832D01*
X11483225Y40553832D01*
X11501628Y40532484D01*
X11502572Y40531442D01*
X11525360Y40507772D01*
X11537153Y40503132D01*
X11546417Y40514032D01*
X11546501Y40514172D01*
X11539994Y40528611D01*
X11513835Y40545293D01*
X11486677Y40557004D01*
X11483225Y40553832D01*
X11361275Y40553832D01*
X11309787Y40606278D01*
X11258260Y40656521D01*
X11217007Y40693949D01*
X11190741Y40713652D01*
X11172481Y40721338D01*
X11170996Y40714020D01*
X11172386Y40711202D01*
X11173078Y40686374D01*
X11163897Y40656683D01*
X11149669Y40633634D01*
X11135220Y40628730D01*
X11126296Y40640609D01*
X11119959Y40670891D01*
X11116942Y40698580D01*
X11103623Y40722736D01*
X11075104Y40741195D01*
X11054839Y40747760D01*
X11227274Y40747760D01*
X11238211Y40737287D01*
X11266596Y40720638D01*
X11303537Y40694909D01*
X11334600Y40661428D01*
X11360214Y40635380D01*
X11394695Y40631994D01*
X11409268Y40632517D01*
X11452975Y40623139D01*
X11504371Y40602181D01*
X11534397Y40588360D01*
X11573081Y40574510D01*
X11595516Y40571747D01*
X11614214Y40571944D01*
X11657462Y40554337D01*
X11717022Y40516349D01*
X11719831Y40514172D01*
X11790737Y40459223D01*
X11833264Y40424731D01*
X11904073Y40370708D01*
X11904618Y40370292D01*
X11965713Y40328114D01*
X12012584Y40300858D01*
X12041267Y40291181D01*
X12056028Y40288839D01*
X12094272Y40277786D01*
X12141539Y40260722D01*
X12197483Y40238671D01*
X12218814Y40230263D01*
X12133148Y40309482D01*
X12081449Y40353852D01*
X12017722Y40402673D01*
X11960427Y40441211D01*
X11902283Y40476450D01*
X11833485Y40518390D01*
X11768949Y40557936D01*
X11717058Y40588060D01*
X11614716Y40639555D01*
X11508722Y40684369D01*
X11408313Y40718756D01*
X11322729Y40738967D01*
X11281140Y40744915D01*
X11243890Y40748750D01*
X11227566Y40748341D01*
X11227274Y40747760D01*
X11054839Y40747760D01*
X11026508Y40756938D01*
X10952959Y40772945D01*
X10910307Y40780636D01*
X10810296Y40793890D01*
X10716094Y40800186D01*
X10633533Y40799471D01*
X10568444Y40791694D01*
X10526660Y40776800D01*
X10510223Y40768757D01*
X10476330Y40759891D01*
X10425024Y40752731D01*
X10352108Y40746734D01*
X10253384Y40741353D01*
X10238314Y40740651D01*
X10148150Y40736164D01*
X10081219Y40731479D01*
X10031621Y40725245D01*
X9993453Y40716111D01*
X9960815Y40702725D01*
X9927803Y40683736D01*
X9888518Y40657792D01*
X9850319Y40634975D01*
X9784797Y40602715D01*
X9720388Y40577228D01*
X9685139Y40564592D01*
X9579000Y40514358D01*
X9490535Y40453196D01*
X9425836Y40385080D01*
X9409021Y40360764D01*
X9388043Y40326271D01*
X9379846Y40306357D01*
X9376141Y40296710D01*
X9359441Y40272218D01*
X9357061Y40268728D01*
G37*
%TO.C, *%
G36*
X7831666Y25484666D02*
G01*
X7831666Y25103666D01*
X7450666Y25103666D01*
X7069666Y25103666D01*
X7069666Y25484666D01*
X7069666Y25865666D01*
X7450666Y25865666D01*
X7831666Y25865666D01*
X7831666Y25484666D01*
G37*
G36*
X7763894Y23818915D02*
G01*
X7831666Y23706666D01*
X7816915Y23647439D01*
X7704666Y23579666D01*
X7645439Y23594418D01*
X7577666Y23706666D01*
X7592418Y23765894D01*
X7704666Y23833666D01*
X7763894Y23818915D01*
G37*
G36*
X8271894Y19754915D02*
G01*
X8339666Y19642666D01*
X8324915Y19583439D01*
X8212666Y19515666D01*
X8153439Y19530418D01*
X8085666Y19642666D01*
X8100418Y19701894D01*
X8212666Y19769666D01*
X8271894Y19754915D01*
G37*
G36*
X9787938Y23807493D02*
G01*
X9863666Y23706666D01*
X9811319Y23617531D01*
X9609666Y23579666D01*
X9431395Y23605840D01*
X9355666Y23706666D01*
X9408014Y23795802D01*
X9609666Y23833666D01*
X9787938Y23807493D01*
G37*
G36*
X10303894Y26358915D02*
G01*
X10371666Y26246666D01*
X10356915Y26187439D01*
X10244666Y26119666D01*
X10185439Y26134418D01*
X10117666Y26246666D01*
X10132418Y26305894D01*
X10244666Y26373666D01*
X10303894Y26358915D01*
G37*
G36*
X11565938Y25585493D02*
G01*
X11641666Y25484666D01*
X11589319Y25395531D01*
X11387666Y25357666D01*
X11209395Y25383840D01*
X11133666Y25484666D01*
X11186014Y25573802D01*
X11387666Y25611666D01*
X11565938Y25585493D01*
G37*
G36*
X12073938Y20759493D02*
G01*
X12149666Y20658666D01*
X12097319Y20569531D01*
X11895666Y20531666D01*
X11717395Y20557840D01*
X11641666Y20658666D01*
X11694014Y20747802D01*
X11895666Y20785666D01*
X12073938Y20759493D01*
G37*
G36*
X12335894Y21786915D02*
G01*
X12403666Y21674666D01*
X12388915Y21615439D01*
X12276666Y21547666D01*
X12217439Y21562418D01*
X12149666Y21674666D01*
X12164418Y21733894D01*
X12276666Y21801666D01*
X12335894Y21786915D01*
G37*
G36*
X12365802Y22511319D02*
G01*
X12403666Y22309666D01*
X12377493Y22131395D01*
X12276666Y22055666D01*
X12187531Y22108014D01*
X12149666Y22309666D01*
X12175840Y22487938D01*
X12276666Y22563666D01*
X12365802Y22511319D01*
G37*
G36*
X12589894Y24072915D02*
G01*
X12657666Y23960666D01*
X12642915Y23901439D01*
X12530666Y23833666D01*
X12471439Y23848418D01*
X12403666Y23960666D01*
X12418418Y24019894D01*
X12530666Y24087666D01*
X12589894Y24072915D01*
G37*
G36*
X12835938Y26347493D02*
G01*
X12911666Y26246666D01*
X12859319Y26157531D01*
X12657666Y26119666D01*
X12479395Y26145840D01*
X12403666Y26246666D01*
X12456014Y26335802D01*
X12657666Y26373666D01*
X12835938Y26347493D01*
G37*
G36*
X14435666Y25484666D02*
G01*
X14435666Y25103666D01*
X14054666Y25103666D01*
X13673666Y25103666D01*
X13673666Y25484666D01*
X13673666Y25865666D01*
X14054666Y25865666D01*
X14435666Y25865666D01*
X14435666Y25484666D01*
G37*
G36*
X14435666Y18880666D02*
G01*
X14435666Y18499666D01*
X14054666Y18499666D01*
X13673666Y18499666D01*
X13673666Y18880666D01*
X13673666Y19261666D01*
X14054666Y19261666D01*
X14435666Y19261666D01*
X14435666Y18880666D01*
G37*
G36*
X12589894Y25850915D02*
G01*
X12657666Y25738666D01*
X12672418Y25679439D01*
X12784666Y25611666D01*
X12843894Y25596915D01*
X12911666Y25484666D01*
X12896915Y25425439D01*
X12784666Y25357666D01*
X12725439Y25372418D01*
X12657666Y25484666D01*
X12642915Y25543894D01*
X12530666Y25611666D01*
X12471439Y25626418D01*
X12403666Y25738666D01*
X12418418Y25797894D01*
X12530666Y25865666D01*
X12589894Y25850915D01*
G37*
G36*
X13859894Y22548915D02*
G01*
X13927666Y22436666D01*
X13942418Y22377439D01*
X14054666Y22309666D01*
X14113894Y22294915D01*
X14181666Y22182666D01*
X14166915Y22123439D01*
X14054666Y22055666D01*
X13995439Y22070418D01*
X13927666Y22182666D01*
X13912915Y22241894D01*
X13800666Y22309666D01*
X13741439Y22324418D01*
X13673666Y22436666D01*
X13688418Y22495894D01*
X13800666Y22563666D01*
X13859894Y22548915D01*
G37*
G36*
X8339666Y25484666D02*
G01*
X8339666Y24595666D01*
X7450666Y24595666D01*
X6561666Y24595666D01*
X6561666Y24849666D01*
X6815666Y24849666D01*
X7450666Y24849666D01*
X8085666Y24849666D01*
X8085666Y25484666D01*
X8085666Y26119666D01*
X7450666Y26119666D01*
X6815666Y26119666D01*
X6815666Y25484666D01*
X6815666Y24849666D01*
X6561666Y24849666D01*
X6561666Y25484666D01*
X6561666Y26373666D01*
X7450666Y26373666D01*
X8339666Y26373666D01*
X8339666Y26119666D01*
X8339666Y25484666D01*
G37*
G36*
X14943666Y25484666D02*
G01*
X14943666Y24595666D01*
X14054666Y24595666D01*
X13165666Y24595666D01*
X13165666Y24849666D01*
X13419666Y24849666D01*
X14054666Y24849666D01*
X14689666Y24849666D01*
X14689666Y25484666D01*
X14689666Y26119666D01*
X14054666Y26119666D01*
X13419666Y26119666D01*
X13419666Y25484666D01*
X13419666Y24849666D01*
X13165666Y24849666D01*
X13165666Y25484666D01*
X13165666Y26373666D01*
X14054666Y26373666D01*
X14943666Y26373666D01*
X14943666Y26119666D01*
X14943666Y25484666D01*
G37*
G36*
X14943666Y18880666D02*
G01*
X14943666Y17991666D01*
X14054666Y17991666D01*
X13165666Y17991666D01*
X13165666Y18245666D01*
X13419666Y18245666D01*
X14054666Y18245666D01*
X14689666Y18245666D01*
X14689666Y18880666D01*
X14689666Y19515666D01*
X14054666Y19515666D01*
X13419666Y19515666D01*
X13419666Y18880666D01*
X13419666Y18245666D01*
X13165666Y18245666D01*
X13165666Y18880666D01*
X13165666Y19769666D01*
X14054666Y19769666D01*
X14943666Y19769666D01*
X14943666Y19515666D01*
X14943666Y18880666D01*
G37*
G36*
X14367894Y23310915D02*
G01*
X14435666Y23198666D01*
X14450418Y23139439D01*
X14562666Y23071666D01*
X14621894Y23056915D01*
X14689666Y22944666D01*
X14704418Y22885439D01*
X14816666Y22817666D01*
X14831969Y22816665D01*
X14899338Y22763008D01*
X14933913Y22604639D01*
X14943666Y22309666D01*
X14943666Y21801666D01*
X14689666Y21801666D01*
X14511395Y21827840D01*
X14435666Y21928666D01*
X14450418Y21987894D01*
X14562666Y22055666D01*
X14621894Y22070418D01*
X14689666Y22182666D01*
X14674915Y22241894D01*
X14562666Y22309666D01*
X14503439Y22324418D01*
X14435666Y22436666D01*
X14420915Y22495894D01*
X14308666Y22563666D01*
X14254801Y22579158D01*
X14198287Y22693544D01*
X14181666Y22944666D01*
X14186830Y23106264D01*
X14224959Y23275805D01*
X14308666Y23325666D01*
X14367894Y23310915D01*
G37*
G36*
X11827894Y18738915D02*
G01*
X11895666Y18626666D01*
X11948014Y18537531D01*
X12149666Y18499666D01*
X12327938Y18473493D01*
X12403666Y18372666D01*
X12351319Y18283531D01*
X12149666Y18245666D01*
X11971395Y18219493D01*
X11895666Y18118666D01*
X11843319Y18029531D01*
X11641666Y17991666D01*
X11463395Y18017840D01*
X11387666Y18118666D01*
X11372915Y18177894D01*
X11260666Y18245666D01*
X11201439Y18260418D01*
X11133666Y18372666D01*
X11118915Y18431894D01*
X11006666Y18499666D01*
X10947439Y18514418D01*
X10879666Y18626666D01*
X10932014Y18715802D01*
X11133666Y18753666D01*
X11267727Y18745885D01*
X11366687Y18679575D01*
X11387666Y18499666D01*
X11413840Y18321395D01*
X11514666Y18245666D01*
X11603802Y18298014D01*
X11641666Y18499666D01*
X11667840Y18677938D01*
X11768666Y18753666D01*
X11827894Y18738915D01*
G37*
G36*
X12896915Y24663439D02*
G01*
X12784666Y24595666D01*
X12725439Y24580915D01*
X12657666Y24468666D01*
X12672418Y24409439D01*
X12784666Y24341666D01*
X12843894Y24326915D01*
X12911666Y24214666D01*
X12926418Y24155439D01*
X13038666Y24087666D01*
X13097894Y24102418D01*
X13165666Y24214666D01*
X13181158Y24268532D01*
X13295544Y24325046D01*
X13546666Y24341666D01*
X13690403Y24340231D01*
X13852852Y24317831D01*
X13916622Y24243855D01*
X13927666Y24087666D01*
X13946312Y23960666D01*
X13953840Y23909395D01*
X14054666Y23833666D01*
X14143802Y23886014D01*
X14181666Y24087666D01*
X14207840Y24265938D01*
X14308666Y24341666D01*
X14367894Y24326915D01*
X14435666Y24214666D01*
X14488014Y24125531D01*
X14689666Y24087666D01*
X14867938Y24061493D01*
X14943666Y23960666D01*
X14928915Y23901439D01*
X14816666Y23833666D01*
X14757439Y23818915D01*
X14689666Y23706666D01*
X14704418Y23647439D01*
X14816666Y23579666D01*
X14905802Y23527319D01*
X14943666Y23325666D01*
X14917493Y23147395D01*
X14816666Y23071666D01*
X14727531Y23124014D01*
X14689666Y23325666D01*
X14689666Y23579666D01*
X14181666Y23579666D01*
X13673666Y23579666D01*
X13673666Y23325666D01*
X13699840Y23147395D01*
X13800666Y23071666D01*
X13859894Y23056915D01*
X13927666Y22944666D01*
X13875319Y22855531D01*
X13673666Y22817666D01*
X13495395Y22791493D01*
X13419666Y22690666D01*
X13404915Y22631439D01*
X13292666Y22563666D01*
X13233439Y22578418D01*
X13165666Y22690666D01*
X13180418Y22749894D01*
X13292666Y22817666D01*
X13351894Y22832418D01*
X13419666Y22944666D01*
X13404915Y23003894D01*
X13292666Y23071666D01*
X13233439Y23086418D01*
X13165666Y23198666D01*
X13180418Y23257894D01*
X13292666Y23325666D01*
X13351894Y23340418D01*
X13419666Y23452666D01*
X13404175Y23506532D01*
X13289789Y23563046D01*
X13038666Y23579666D01*
X12877069Y23574503D01*
X12707528Y23536374D01*
X12657666Y23452666D01*
X12642915Y23393439D01*
X12530666Y23325666D01*
X12441531Y23273319D01*
X12403666Y23071666D01*
X12377493Y22893395D01*
X12276666Y22817666D01*
X12217439Y22832418D01*
X12149666Y22944666D01*
X12134915Y23003894D01*
X12022666Y23071666D01*
X11963439Y23086418D01*
X11895666Y23198666D01*
X11880915Y23257894D01*
X11768666Y23325666D01*
X11709439Y23310915D01*
X11641666Y23198666D01*
X11656418Y23139439D01*
X11768666Y23071666D01*
X11827894Y23056915D01*
X11895666Y22944666D01*
X11880915Y22885439D01*
X11768666Y22817666D01*
X11709439Y22832418D01*
X11641666Y22944666D01*
X11626915Y23003894D01*
X11514666Y23071666D01*
X11455439Y23086418D01*
X11387666Y23198666D01*
X11372915Y23257894D01*
X11260666Y23325666D01*
X11171531Y23378014D01*
X11133666Y23579666D01*
X11152312Y23706666D01*
X11641666Y23706666D01*
X11694014Y23617531D01*
X11895666Y23579666D01*
X12073938Y23605840D01*
X12149666Y23706666D01*
X12164418Y23765894D01*
X12276666Y23833666D01*
X12335894Y23818915D01*
X12403666Y23706666D01*
X12418418Y23647439D01*
X12530666Y23579666D01*
X12589894Y23594418D01*
X12657666Y23706666D01*
X12672418Y23765894D01*
X12784666Y23833666D01*
X12843894Y23848418D01*
X12911666Y23960666D01*
X13165666Y23960666D01*
X13218014Y23871531D01*
X13419666Y23833666D01*
X13597938Y23859840D01*
X13673666Y23960666D01*
X13621319Y24049802D01*
X13419666Y24087666D01*
X13241395Y24061493D01*
X13165666Y23960666D01*
X12911666Y23960666D01*
X12896915Y24019894D01*
X12784666Y24087666D01*
X12725439Y24102418D01*
X12657666Y24214666D01*
X12605319Y24303802D01*
X12403666Y24341666D01*
X12269606Y24333885D01*
X12170646Y24267575D01*
X12149666Y24087666D01*
X12141885Y23953606D01*
X12075575Y23854646D01*
X11895666Y23833666D01*
X11717395Y23807493D01*
X11641666Y23706666D01*
X11152312Y23706666D01*
X11159840Y23757938D01*
X11260666Y23833666D01*
X11319894Y23848418D01*
X11387666Y23960666D01*
X11440014Y24049802D01*
X11641666Y24087666D01*
X11819938Y24113840D01*
X11895666Y24214666D01*
X11843319Y24303802D01*
X11641666Y24341666D01*
X11463395Y24315493D01*
X11387666Y24214666D01*
X11335319Y24125531D01*
X11133666Y24087666D01*
X10955395Y24113840D01*
X10879666Y24214666D01*
X10894418Y24273894D01*
X11006666Y24341666D01*
X11095802Y24394014D01*
X11133666Y24595666D01*
X11152312Y24722666D01*
X11387666Y24722666D01*
X11402418Y24663439D01*
X11514666Y24595666D01*
X11573894Y24610418D01*
X11641666Y24722666D01*
X11626915Y24781894D01*
X11514666Y24849666D01*
X11455439Y24834915D01*
X11387666Y24722666D01*
X11152312Y24722666D01*
X11159840Y24773938D01*
X11260666Y24849666D01*
X11319894Y24864418D01*
X11387666Y24976666D01*
X11402418Y25035894D01*
X11514666Y25103666D01*
X11573894Y25088915D01*
X11641666Y24976666D01*
X11656418Y24917439D01*
X11768666Y24849666D01*
X11827894Y24834915D01*
X11895666Y24722666D01*
X11910418Y24663439D01*
X12022666Y24595666D01*
X12076532Y24611158D01*
X12131624Y24722666D01*
X12403666Y24722666D01*
X12418418Y24663439D01*
X12530666Y24595666D01*
X12589894Y24610418D01*
X12657666Y24722666D01*
X12642915Y24781894D01*
X12530666Y24849666D01*
X12471439Y24834915D01*
X12403666Y24722666D01*
X12131624Y24722666D01*
X12133046Y24725544D01*
X12149666Y24976666D01*
X12144503Y25138264D01*
X12106374Y25307805D01*
X12022666Y25357666D01*
X11933531Y25410014D01*
X11895666Y25611666D01*
X11921840Y25789938D01*
X12022666Y25865666D01*
X12111802Y25813319D01*
X12149666Y25611666D01*
X12175840Y25433395D01*
X12276666Y25357666D01*
X12335894Y25342915D01*
X12403666Y25230666D01*
X12418418Y25171439D01*
X12530666Y25103666D01*
X12589894Y25088915D01*
X12657666Y24976666D01*
X12672418Y24917439D01*
X12784666Y24849666D01*
X12843894Y24834915D01*
X12911666Y24722666D01*
X12896915Y24663439D01*
G37*
G36*
X10874503Y23291069D02*
G01*
X10836374Y23121528D01*
X10752666Y23071666D01*
X10693439Y23056915D01*
X10625666Y22944666D01*
X10624665Y22929364D01*
X10571008Y22861995D01*
X10412639Y22827420D01*
X10117666Y22817666D01*
X10056458Y22817416D01*
X9786981Y22804002D01*
X9648680Y22764410D01*
X9609666Y22690666D01*
X9610668Y22675364D01*
X9664325Y22607995D01*
X9822694Y22573420D01*
X10117666Y22563666D01*
X10178875Y22563917D01*
X10448352Y22577331D01*
X10586653Y22616923D01*
X10625666Y22690666D01*
X10640418Y22749894D01*
X10752666Y22817666D01*
X10811894Y22802915D01*
X10879666Y22690666D01*
X10894418Y22631439D01*
X11006666Y22563666D01*
X11065894Y22578418D01*
X11133666Y22690666D01*
X11148418Y22749894D01*
X11260666Y22817666D01*
X11319894Y22802915D01*
X11387666Y22690666D01*
X11402418Y22631439D01*
X11514666Y22563666D01*
X11573894Y22548915D01*
X11641666Y22436666D01*
X11626915Y22377439D01*
X11514666Y22309666D01*
X11455439Y22324418D01*
X11387666Y22436666D01*
X11372915Y22495894D01*
X11260666Y22563666D01*
X11171531Y22511319D01*
X11133666Y22309666D01*
X11125885Y22175606D01*
X11059575Y22076646D01*
X10879666Y22055666D01*
X10701395Y22029493D01*
X10625666Y21928666D01*
X10573319Y21839531D01*
X10371666Y21801666D01*
X10193395Y21827840D01*
X10117666Y21928666D01*
X10132418Y21987894D01*
X10244666Y22055666D01*
X10303894Y22070418D01*
X10371666Y22182666D01*
X10319319Y22271802D01*
X10117666Y22309666D01*
X9983606Y22301885D01*
X9884646Y22235575D01*
X9863666Y22055666D01*
X9855885Y21921606D01*
X9789575Y21822646D01*
X9609666Y21801666D01*
X9431395Y21775493D01*
X9355666Y21674666D01*
X9370418Y21615439D01*
X9482666Y21547666D01*
X9541894Y21532915D01*
X9609666Y21420666D01*
X9624418Y21361439D01*
X9736666Y21293666D01*
X9825802Y21346014D01*
X9863666Y21547666D01*
X9889840Y21725938D01*
X9990666Y21801666D01*
X10049894Y21786915D01*
X10117666Y21674666D01*
X10170014Y21585531D01*
X10371666Y21547666D01*
X10549938Y21573840D01*
X10625666Y21674666D01*
X10626668Y21689969D01*
X10680325Y21757338D01*
X10838694Y21791913D01*
X11133666Y21801666D01*
X11194875Y21801416D01*
X11464352Y21788002D01*
X11602653Y21748410D01*
X11641666Y21674666D01*
X11626915Y21615439D01*
X11514666Y21547666D01*
X11455439Y21532915D01*
X11387666Y21420666D01*
X11372915Y21361439D01*
X11260666Y21293666D01*
X11201439Y21308418D01*
X11133666Y21420666D01*
X11081319Y21509802D01*
X10879666Y21547666D01*
X10701395Y21521493D01*
X10625666Y21420666D01*
X10678014Y21331531D01*
X10879666Y21293666D01*
X11057938Y21267493D01*
X11133666Y21166666D01*
X11081319Y21077531D01*
X10879666Y21039666D01*
X10701395Y21065840D01*
X10625666Y21166666D01*
X10573319Y21255802D01*
X10371666Y21293666D01*
X10237606Y21285885D01*
X10138646Y21219575D01*
X10117666Y21039666D01*
X10143840Y20861395D01*
X10244666Y20785666D01*
X10303894Y20770915D01*
X10371666Y20658666D01*
X10386418Y20599439D01*
X10498666Y20531666D01*
X10557894Y20546418D01*
X10625666Y20658666D01*
X11387666Y20658666D01*
X11402418Y20599439D01*
X11514666Y20531666D01*
X11573894Y20516915D01*
X11641666Y20404666D01*
X11694014Y20315531D01*
X11895666Y20277666D01*
X12073938Y20303840D01*
X12149666Y20404666D01*
X12164418Y20463894D01*
X12276666Y20531666D01*
X12335894Y20516915D01*
X12403666Y20404666D01*
X12404668Y20389364D01*
X12458325Y20321995D01*
X12616694Y20287420D01*
X12911666Y20277666D01*
X12972875Y20277917D01*
X13242352Y20291331D01*
X13380653Y20330923D01*
X13419666Y20404666D01*
X13367319Y20493802D01*
X13165666Y20531666D01*
X13031606Y20539448D01*
X12932646Y20605758D01*
X12911666Y20785666D01*
X12885493Y20963938D01*
X12784666Y21039666D01*
X12725439Y21024915D01*
X12657666Y20912666D01*
X12605319Y20823531D01*
X12403666Y20785666D01*
X12225395Y20811840D01*
X12149666Y20912666D01*
X12097319Y21001802D01*
X11895666Y21039666D01*
X11717395Y21013493D01*
X11641666Y20912666D01*
X11626915Y20853439D01*
X11514666Y20785666D01*
X11455439Y20770915D01*
X11387666Y20658666D01*
X10625666Y20658666D01*
X10678014Y20747802D01*
X10879666Y20785666D01*
X11057938Y20811840D01*
X11133666Y20912666D01*
X11148418Y20971894D01*
X11260666Y21039666D01*
X11319894Y21054418D01*
X11387666Y21166666D01*
X11388668Y21181969D01*
X11442325Y21249338D01*
X11600694Y21283913D01*
X11895666Y21293666D01*
X11956875Y21293416D01*
X12226352Y21280002D01*
X12364653Y21240410D01*
X12403666Y21166666D01*
X12418418Y21107439D01*
X12530666Y21039666D01*
X12589894Y21054418D01*
X12657666Y21166666D01*
X12672418Y21225894D01*
X12784666Y21293666D01*
X12843894Y21278915D01*
X12911666Y21166666D01*
X12926418Y21107439D01*
X13038666Y21039666D01*
X13097894Y21054418D01*
X13165666Y21166666D01*
X13180418Y21225894D01*
X13292666Y21293666D01*
X13351894Y21308418D01*
X13419666Y21420666D01*
X13404175Y21474532D01*
X13289789Y21531046D01*
X13038666Y21547666D01*
X12657666Y21547666D01*
X12657666Y22436666D01*
X12658672Y22670909D01*
X12667579Y22998368D01*
X12688944Y23198424D01*
X12726671Y23298412D01*
X12784666Y23325666D01*
X12843894Y23310915D01*
X12911666Y23198666D01*
X12926418Y23139439D01*
X13038666Y23071666D01*
X13097894Y23056915D01*
X13165666Y22944666D01*
X13150915Y22885439D01*
X13038666Y22817666D01*
X12979439Y22802915D01*
X12911666Y22690666D01*
X12926418Y22631439D01*
X13038666Y22563666D01*
X13097894Y22548915D01*
X13165666Y22436666D01*
X13180418Y22377439D01*
X13292666Y22309666D01*
X13351894Y22294915D01*
X13419666Y22182666D01*
X13404915Y22123439D01*
X13292666Y22055666D01*
X13233439Y22040915D01*
X13165666Y21928666D01*
X13180418Y21869439D01*
X13292666Y21801666D01*
X13351894Y21816418D01*
X13419666Y21928666D01*
X13434418Y21987894D01*
X13546666Y22055666D01*
X13600532Y22040175D01*
X13657046Y21925789D01*
X13673666Y21674666D01*
X13668503Y21513069D01*
X13630374Y21343528D01*
X13546666Y21293666D01*
X13487439Y21278915D01*
X13419666Y21166666D01*
X13404915Y21107439D01*
X13292666Y21039666D01*
X13233439Y21024915D01*
X13165666Y20912666D01*
X13180418Y20853439D01*
X13292666Y20785666D01*
X13351894Y20770915D01*
X13419666Y20658666D01*
X13434418Y20599439D01*
X13546666Y20531666D01*
X13605894Y20516915D01*
X13673666Y20404666D01*
X13688418Y20345439D01*
X13800666Y20277666D01*
X13859894Y20292418D01*
X13927666Y20404666D01*
X13912915Y20463894D01*
X13800666Y20531666D01*
X13746801Y20547158D01*
X13690287Y20661544D01*
X13673666Y20912666D01*
X13927666Y20912666D01*
X13942418Y20853439D01*
X14054666Y20785666D01*
X14143802Y20733319D01*
X14181666Y20531666D01*
X14189448Y20397606D01*
X14255758Y20298646D01*
X14435666Y20277666D01*
X14613938Y20303840D01*
X14689666Y20404666D01*
X14674915Y20463894D01*
X14562666Y20531666D01*
X14503439Y20546418D01*
X14435666Y20658666D01*
X14420915Y20717894D01*
X14308666Y20785666D01*
X14249439Y20800418D01*
X14181666Y20912666D01*
X14166915Y20971894D01*
X14054666Y21039666D01*
X13995439Y21024915D01*
X13927666Y20912666D01*
X13673666Y20912666D01*
X13678830Y21074264D01*
X13716959Y21243805D01*
X13800666Y21293666D01*
X13889802Y21346014D01*
X13927666Y21547666D01*
X13953840Y21725938D01*
X14054666Y21801666D01*
X14113894Y21786915D01*
X14181666Y21674666D01*
X14197158Y21620801D01*
X14311544Y21564287D01*
X14562666Y21547666D01*
X14724264Y21542503D01*
X14893805Y21504374D01*
X14943666Y21420666D01*
X14928915Y21361439D01*
X14816666Y21293666D01*
X14762801Y21278175D01*
X14706287Y21163789D01*
X14689666Y20912666D01*
X14694830Y20751069D01*
X14732959Y20581528D01*
X14816666Y20531666D01*
X14875894Y20516915D01*
X14943666Y20404666D01*
X14928915Y20345439D01*
X14816666Y20277666D01*
X14757439Y20262915D01*
X14689666Y20150666D01*
X14637319Y20061531D01*
X14435666Y20023666D01*
X14257395Y20049840D01*
X14181666Y20150666D01*
X14166915Y20209894D01*
X14054666Y20277666D01*
X13995439Y20262915D01*
X13927666Y20150666D01*
X13912915Y20091439D01*
X13800666Y20023666D01*
X13741439Y20038418D01*
X13673666Y20150666D01*
X13658915Y20209894D01*
X13546666Y20277666D01*
X13487439Y20262915D01*
X13419666Y20150666D01*
X13367319Y20061531D01*
X13165666Y20023666D01*
X12987395Y19997493D01*
X12911666Y19896666D01*
X12859319Y19807531D01*
X12657666Y19769666D01*
X12479395Y19743493D01*
X12403666Y19642666D01*
X12388915Y19583439D01*
X12276666Y19515666D01*
X12217439Y19500915D01*
X12149666Y19388666D01*
X12164418Y19329439D01*
X12276666Y19261666D01*
X12335894Y19246915D01*
X12403666Y19134666D01*
X12418418Y19075439D01*
X12530666Y19007666D01*
X12589894Y19022418D01*
X12657666Y19134666D01*
X12642915Y19193894D01*
X12530666Y19261666D01*
X12471439Y19276418D01*
X12403666Y19388666D01*
X12456014Y19477802D01*
X12657666Y19515666D01*
X12791727Y19507885D01*
X12890687Y19441575D01*
X12911666Y19261666D01*
X12885493Y19083395D01*
X12784666Y19007666D01*
X12725439Y18992915D01*
X12657666Y18880666D01*
X12672418Y18821439D01*
X12784666Y18753666D01*
X12843894Y18738915D01*
X12911666Y18626666D01*
X12896915Y18567439D01*
X12784666Y18499666D01*
X12725439Y18514418D01*
X12657666Y18626666D01*
X12642915Y18685894D01*
X12530666Y18753666D01*
X12471439Y18768418D01*
X12403666Y18880666D01*
X12388915Y18939894D01*
X12276666Y19007666D01*
X12217439Y19022418D01*
X12149666Y19134666D01*
X12134915Y19193894D01*
X12022666Y19261666D01*
X11963439Y19276418D01*
X11895666Y19388666D01*
X11910418Y19447894D01*
X12022666Y19515666D01*
X12111802Y19568014D01*
X12149666Y19769666D01*
X12141885Y19903727D01*
X12075575Y20002687D01*
X11895666Y20023666D01*
X11717395Y20049840D01*
X11641666Y20150666D01*
X11626915Y20209894D01*
X11514666Y20277666D01*
X11455439Y20292418D01*
X11387666Y20404666D01*
X11372175Y20458532D01*
X11257789Y20515046D01*
X11006666Y20531666D01*
X10845069Y20526503D01*
X10675528Y20488374D01*
X10625666Y20404666D01*
X10640418Y20345439D01*
X10752666Y20277666D01*
X10811894Y20262915D01*
X10879666Y20150666D01*
X10932014Y20061531D01*
X11133666Y20023666D01*
X11311938Y19997493D01*
X11387666Y19896666D01*
X11402418Y19837439D01*
X11514666Y19769666D01*
X11568532Y19754175D01*
X11625046Y19639789D01*
X11641666Y19388666D01*
X11636503Y19227069D01*
X11598374Y19057528D01*
X11514666Y19007666D01*
X11460801Y19023158D01*
X11404287Y19137544D01*
X11387666Y19388666D01*
X11386231Y19532403D01*
X11363831Y19694852D01*
X11289855Y19758622D01*
X11133666Y19769666D01*
X10955395Y19795840D01*
X10879666Y19896666D01*
X10864915Y19955894D01*
X10752666Y20023666D01*
X10693439Y20008915D01*
X10625666Y19896666D01*
X10573319Y19807531D01*
X10371666Y19769666D01*
X10237606Y19761885D01*
X10138646Y19695575D01*
X10132476Y19642666D01*
X10117666Y19515666D01*
X10143840Y19337395D01*
X10244666Y19261666D01*
X10303894Y19276418D01*
X10371666Y19388666D01*
X10386418Y19447894D01*
X10498666Y19515666D01*
X10557894Y19500915D01*
X10625666Y19388666D01*
X10640418Y19329439D01*
X10752666Y19261666D01*
X10811894Y19246915D01*
X10879666Y19134666D01*
X10864915Y19075439D01*
X10752666Y19007666D01*
X10693439Y18992915D01*
X10625666Y18880666D01*
X10610915Y18821439D01*
X10498666Y18753666D01*
X10439439Y18768418D01*
X10371666Y18880666D01*
X10356915Y18939894D01*
X10244666Y19007666D01*
X10155531Y18955319D01*
X10141513Y18880666D01*
X10117666Y18753666D01*
X10099020Y18626666D01*
X10091493Y18575395D01*
X9990666Y18499666D01*
X9931439Y18484915D01*
X9863666Y18372666D01*
X9916014Y18283531D01*
X10117666Y18245666D01*
X10295938Y18271840D01*
X10371666Y18372666D01*
X10386418Y18431894D01*
X10498666Y18499666D01*
X10557894Y18484915D01*
X10625666Y18372666D01*
X10640418Y18313439D01*
X10752666Y18245666D01*
X10811894Y18230915D01*
X10879666Y18118666D01*
X10864915Y18059439D01*
X10752666Y17991666D01*
X10693439Y18006418D01*
X10625666Y18118666D01*
X10610915Y18177894D01*
X10498666Y18245666D01*
X10439439Y18230915D01*
X10371666Y18118666D01*
X10370665Y18103364D01*
X10317008Y18035995D01*
X10158639Y18001420D01*
X9863666Y17991666D01*
X9802458Y17991917D01*
X9532981Y18005331D01*
X9394680Y18044923D01*
X9355666Y18118666D01*
X9340915Y18177894D01*
X9228666Y18245666D01*
X9169439Y18230915D01*
X9101666Y18118666D01*
X9101265Y18109437D01*
X9063278Y18050678D01*
X8942974Y18014679D01*
X8711416Y17996616D01*
X8339666Y17991666D01*
X8284292Y17991733D01*
X7931736Y17998065D01*
X7715739Y18018115D01*
X7607362Y18056708D01*
X7577666Y18118666D01*
X7592418Y18177894D01*
X7704666Y18245666D01*
X7763894Y18260418D01*
X7831666Y18372666D01*
X7816915Y18431894D01*
X7704666Y18499666D01*
X7645439Y18484915D01*
X7577666Y18372666D01*
X7562915Y18313439D01*
X7450666Y18245666D01*
X7391439Y18230915D01*
X7323666Y18118666D01*
X7308175Y18064801D01*
X7193789Y18008287D01*
X6942666Y17991666D01*
X6781069Y17996830D01*
X6611528Y18034959D01*
X6561666Y18118666D01*
X6576418Y18177894D01*
X6688666Y18245666D01*
X6747894Y18260418D01*
X6815666Y18372666D01*
X6800915Y18431894D01*
X6688666Y18499666D01*
X6629439Y18514418D01*
X6561666Y18626666D01*
X6576418Y18685894D01*
X6688666Y18753666D01*
X6747894Y18738915D01*
X6815666Y18626666D01*
X6830418Y18567439D01*
X6942666Y18499666D01*
X7001894Y18484915D01*
X7069666Y18372666D01*
X7084418Y18313439D01*
X7196666Y18245666D01*
X7285802Y18298014D01*
X7323666Y18499666D01*
X7297493Y18677938D01*
X7196666Y18753666D01*
X7137439Y18768418D01*
X7069666Y18880666D01*
X7054915Y18939894D01*
X6942666Y19007666D01*
X6883439Y19022418D01*
X6815666Y19134666D01*
X6800915Y19193894D01*
X6688666Y19261666D01*
X6673364Y19262668D01*
X6605995Y19316325D01*
X6590202Y19388666D01*
X6815666Y19388666D01*
X6830418Y19329439D01*
X6942666Y19261666D01*
X7001894Y19246915D01*
X7069666Y19134666D01*
X7084418Y19075439D01*
X7196666Y19007666D01*
X7255894Y18992915D01*
X7323666Y18880666D01*
X7338418Y18821439D01*
X7450666Y18753666D01*
X7504532Y18769158D01*
X7559624Y18880666D01*
X7831666Y18880666D01*
X7846418Y18821439D01*
X7958666Y18753666D01*
X8047802Y18701319D01*
X8085666Y18499666D01*
X8111840Y18321395D01*
X8212666Y18245666D01*
X8301802Y18298014D01*
X8339666Y18499666D01*
X8365840Y18677938D01*
X8466666Y18753666D01*
X8525894Y18738915D01*
X8593666Y18626666D01*
X8646014Y18537531D01*
X8847666Y18499666D01*
X9025938Y18525840D01*
X9101666Y18626666D01*
X9086915Y18685894D01*
X8974666Y18753666D01*
X8915439Y18768418D01*
X8847666Y18880666D01*
X8862418Y18939894D01*
X8974666Y19007666D01*
X9355666Y19007666D01*
X9363448Y18873606D01*
X9429758Y18774646D01*
X9609666Y18753666D01*
X9787938Y18779840D01*
X9863666Y18880666D01*
X9848915Y18939894D01*
X9736666Y19007666D01*
X9677439Y19022418D01*
X9609666Y19134666D01*
X10371666Y19134666D01*
X10386418Y19075439D01*
X10498666Y19007666D01*
X10557894Y19022418D01*
X10625666Y19134666D01*
X10610915Y19193894D01*
X10498666Y19261666D01*
X10439439Y19246915D01*
X10371666Y19134666D01*
X9609666Y19134666D01*
X9594915Y19193894D01*
X9482666Y19261666D01*
X9393531Y19209319D01*
X9355666Y19007666D01*
X8974666Y19007666D01*
X9063802Y19060014D01*
X9101666Y19261666D01*
X9075493Y19439938D01*
X8974666Y19515666D01*
X8885531Y19463319D01*
X8847666Y19261666D01*
X8847666Y19134666D01*
X8847666Y19007666D01*
X8339666Y19007666D01*
X8278458Y19007416D01*
X8008981Y18994002D01*
X7870680Y18954410D01*
X7831666Y18880666D01*
X7559624Y18880666D01*
X7561046Y18883544D01*
X7577666Y19134666D01*
X7573608Y19261666D01*
X7831666Y19261666D01*
X8212666Y19261666D01*
X8593666Y19261666D01*
X8593666Y19642666D01*
X8593666Y20023666D01*
X8212666Y20023666D01*
X7831666Y20023666D01*
X7831666Y19642666D01*
X7831666Y19261666D01*
X7573608Y19261666D01*
X7572503Y19296264D01*
X7534374Y19465805D01*
X7450666Y19515666D01*
X7391439Y19530418D01*
X7323666Y19642666D01*
X7338418Y19701894D01*
X7450666Y19769666D01*
X7504532Y19785158D01*
X7561046Y19899544D01*
X7577666Y20150666D01*
X7576231Y20294403D01*
X7553831Y20456852D01*
X7479855Y20520622D01*
X7323666Y20531666D01*
X7145395Y20505493D01*
X7069666Y20404666D01*
X7054915Y20345439D01*
X6942666Y20277666D01*
X6883439Y20262915D01*
X6815666Y20150666D01*
X6830418Y20091439D01*
X6942666Y20023666D01*
X7031802Y19971319D01*
X7069666Y19769666D01*
X7043493Y19591395D01*
X6942666Y19515666D01*
X6883439Y19500915D01*
X6815666Y19388666D01*
X6590202Y19388666D01*
X6571420Y19474694D01*
X6561666Y19769666D01*
X6561917Y19830875D01*
X6575331Y20100352D01*
X6614923Y20238653D01*
X6688666Y20277666D01*
X6747894Y20292418D01*
X6815666Y20404666D01*
X6800915Y20463894D01*
X6688666Y20531666D01*
X6599531Y20584014D01*
X6561666Y20785666D01*
X6569448Y20919727D01*
X6635758Y21018687D01*
X6815666Y21039666D01*
X6993938Y21013493D01*
X7069666Y20912666D01*
X7054915Y20853439D01*
X6942666Y20785666D01*
X6883439Y20770915D01*
X6815666Y20658666D01*
X6830418Y20599439D01*
X6942666Y20531666D01*
X7001894Y20546418D01*
X7069666Y20658666D01*
X7084418Y20717894D01*
X7196666Y20785666D01*
X7285802Y20838014D01*
X7323666Y21039666D01*
X7577666Y21039666D01*
X7579820Y20943842D01*
X7613420Y20835543D01*
X7724384Y20793030D01*
X7958666Y20785666D01*
X8120264Y20780503D01*
X8289805Y20742374D01*
X8339666Y20658666D01*
X8324915Y20599439D01*
X8212666Y20531666D01*
X8153439Y20516915D01*
X8085666Y20404666D01*
X8100418Y20345439D01*
X8212666Y20277666D01*
X8271894Y20292418D01*
X8339666Y20404666D01*
X8847666Y20404666D01*
X8862418Y20345439D01*
X8974666Y20277666D01*
X9033894Y20262915D01*
X9101666Y20150666D01*
X9086915Y20091439D01*
X8974666Y20023666D01*
X8915439Y20008915D01*
X8847666Y19896666D01*
X8900014Y19807531D01*
X9101666Y19769666D01*
X9279938Y19743493D01*
X9355666Y19642666D01*
X9408014Y19553531D01*
X9609666Y19515666D01*
X9787938Y19541840D01*
X9863666Y19642666D01*
X9811319Y19731802D01*
X9609666Y19769666D01*
X9355666Y19769666D01*
X9355666Y20150666D01*
X9609666Y20150666D01*
X9624418Y20091439D01*
X9736666Y20023666D01*
X9795894Y20038418D01*
X9863666Y20150666D01*
X9916014Y20239802D01*
X10117666Y20277666D01*
X10295938Y20251493D01*
X10371666Y20150666D01*
X10386418Y20091439D01*
X10498666Y20023666D01*
X10557894Y20038418D01*
X10625666Y20150666D01*
X10610915Y20209894D01*
X10498666Y20277666D01*
X10439439Y20292418D01*
X10371666Y20404666D01*
X10356915Y20463894D01*
X10244666Y20531666D01*
X10185439Y20546418D01*
X10117666Y20658666D01*
X10102915Y20717894D01*
X9990666Y20785666D01*
X9901531Y20733319D01*
X9863666Y20531666D01*
X9837493Y20353395D01*
X9736666Y20277666D01*
X9677439Y20262915D01*
X9609666Y20150666D01*
X9355666Y20150666D01*
X9355666Y20277666D01*
X9355917Y20338875D01*
X9369331Y20608352D01*
X9408923Y20746653D01*
X9482666Y20785666D01*
X9541894Y20800418D01*
X9609666Y20912666D01*
X9594915Y20971894D01*
X9482666Y21039666D01*
X9423439Y21024915D01*
X9355666Y20912666D01*
X9340915Y20853439D01*
X9228666Y20785666D01*
X9169439Y20770915D01*
X9101666Y20658666D01*
X9086915Y20599439D01*
X8974666Y20531666D01*
X8915439Y20516915D01*
X8847666Y20404666D01*
X8339666Y20404666D01*
X8354418Y20463894D01*
X8466666Y20531666D01*
X8520532Y20547158D01*
X8577046Y20661544D01*
X8593666Y20912666D01*
X8598830Y21074264D01*
X8636959Y21243805D01*
X8720666Y21293666D01*
X8779894Y21278915D01*
X8847666Y21166666D01*
X8862418Y21107439D01*
X8974666Y21039666D01*
X9033894Y21054418D01*
X9101666Y21166666D01*
X9116418Y21225894D01*
X9228666Y21293666D01*
X9287894Y21308418D01*
X9355666Y21420666D01*
X9340915Y21479894D01*
X9228666Y21547666D01*
X9169439Y21562418D01*
X9101666Y21674666D01*
X9116418Y21733894D01*
X9228666Y21801666D01*
X9287894Y21816418D01*
X9355666Y21928666D01*
X9303319Y22017802D01*
X9101666Y22055666D01*
X8967606Y22063448D01*
X8868646Y22129758D01*
X8847666Y22309666D01*
X8855448Y22443727D01*
X8921758Y22542687D01*
X9101666Y22563666D01*
X9279938Y22589840D01*
X9355666Y22690666D01*
X9370418Y22749894D01*
X9482666Y22817666D01*
X9541894Y22832418D01*
X9609666Y22944666D01*
X9624418Y23003894D01*
X9736666Y23071666D01*
X9795894Y23086418D01*
X9863666Y23198666D01*
X9878418Y23257894D01*
X9990666Y23325666D01*
X10049894Y23340418D01*
X10117666Y23452666D01*
X10132418Y23511894D01*
X10244666Y23579666D01*
X10303894Y23564915D01*
X10371666Y23452666D01*
X10386418Y23393439D01*
X10498666Y23325666D01*
X10557894Y23340418D01*
X10625666Y23452666D01*
X10610915Y23511894D01*
X10498666Y23579666D01*
X10439439Y23594418D01*
X10371666Y23706666D01*
X10356915Y23765894D01*
X10244666Y23833666D01*
X10185439Y23848418D01*
X10117666Y23960666D01*
X10116665Y23975969D01*
X10063008Y24043338D01*
X9904639Y24077913D01*
X9609666Y24087666D01*
X9548458Y24087917D01*
X9278981Y24101331D01*
X9140680Y24140923D01*
X9101666Y24214666D01*
X9086915Y24273894D01*
X8974666Y24341666D01*
X8885531Y24289319D01*
X8847666Y24087666D01*
X8821493Y23909395D01*
X8720666Y23833666D01*
X8661439Y23848418D01*
X8593666Y23960666D01*
X8578915Y24019894D01*
X8466666Y24087666D01*
X8407439Y24072915D01*
X8339666Y23960666D01*
X8354418Y23901439D01*
X8466666Y23833666D01*
X8525894Y23818915D01*
X8593666Y23706666D01*
X8646014Y23617531D01*
X8847666Y23579666D01*
X9025938Y23553493D01*
X9101666Y23452666D01*
X9049319Y23363531D01*
X8847666Y23325666D01*
X8593666Y23325666D01*
X8593666Y22563666D01*
X8593600Y22508292D01*
X8587268Y22155736D01*
X8567218Y21939739D01*
X8528625Y21831362D01*
X8466666Y21801666D01*
X8407439Y21786915D01*
X8339666Y21674666D01*
X8324915Y21615439D01*
X8212666Y21547666D01*
X8153439Y21532915D01*
X8085666Y21420666D01*
X8100418Y21361439D01*
X8212666Y21293666D01*
X8271894Y21278915D01*
X8339666Y21166666D01*
X8324915Y21107439D01*
X8212666Y21039666D01*
X8153439Y21054418D01*
X8085666Y21166666D01*
X8033319Y21255802D01*
X7831666Y21293666D01*
X7697606Y21285885D01*
X7598646Y21219575D01*
X7577666Y21039666D01*
X7323666Y21039666D01*
X7349840Y21217938D01*
X7450666Y21293666D01*
X7539802Y21346014D01*
X7577666Y21547666D01*
X7551493Y21725938D01*
X7450666Y21801666D01*
X7391439Y21786915D01*
X7323666Y21674666D01*
X7308175Y21620801D01*
X7193789Y21564287D01*
X6942666Y21547666D01*
X6798930Y21549102D01*
X6636481Y21571502D01*
X6572711Y21645478D01*
X6561666Y21801666D01*
X6587840Y21979938D01*
X6688666Y22055666D01*
X6777802Y22108014D01*
X6815666Y22309666D01*
X6789493Y22487938D01*
X6688666Y22563666D01*
X6634801Y22579158D01*
X6578287Y22693544D01*
X6561666Y22944666D01*
X6566830Y23106264D01*
X6604959Y23275805D01*
X6688666Y23325666D01*
X6747894Y23340418D01*
X6815666Y23452666D01*
X6800915Y23511894D01*
X6688666Y23579666D01*
X6634801Y23595158D01*
X6578287Y23709544D01*
X6561666Y23960666D01*
X6566830Y24122264D01*
X6604959Y24291805D01*
X6688666Y24341666D01*
X6747894Y24326915D01*
X6815666Y24214666D01*
X6868014Y24125531D01*
X7069666Y24087666D01*
X7247938Y24113840D01*
X7323666Y24214666D01*
X7338418Y24273894D01*
X7450666Y24341666D01*
X7509894Y24326915D01*
X7577666Y24214666D01*
X7562915Y24155439D01*
X7450666Y24087666D01*
X7391439Y24072915D01*
X7323666Y23960666D01*
X7308915Y23901439D01*
X7196666Y23833666D01*
X7142801Y23818175D01*
X7086287Y23703789D01*
X7069666Y23452666D01*
X7074830Y23291069D01*
X7112959Y23121528D01*
X7196666Y23071666D01*
X7255894Y23056915D01*
X7323666Y22944666D01*
X7308915Y22885439D01*
X7196666Y22817666D01*
X7142801Y22802175D01*
X7086287Y22687789D01*
X7069666Y22436666D01*
X7071102Y22292930D01*
X7093502Y22130481D01*
X7167478Y22066711D01*
X7323666Y22055666D01*
X7501938Y22029493D01*
X7577666Y21928666D01*
X7630014Y21839531D01*
X7831666Y21801666D01*
X8009938Y21827840D01*
X8085666Y21928666D01*
X8070915Y21987894D01*
X7958666Y22055666D01*
X7899439Y22070418D01*
X7831666Y22182666D01*
X7779319Y22271802D01*
X7577666Y22309666D01*
X7443606Y22317448D01*
X7344646Y22383758D01*
X7323666Y22563666D01*
X7349840Y22741938D01*
X7450666Y22817666D01*
X7539802Y22870014D01*
X7577666Y23071666D01*
X7603840Y23249938D01*
X7704666Y23325666D01*
X7793802Y23273319D01*
X7831666Y23071666D01*
X7805493Y22893395D01*
X7704666Y22817666D01*
X7645439Y22802915D01*
X7577666Y22690666D01*
X7592418Y22631439D01*
X7704666Y22563666D01*
X7763894Y22548915D01*
X7831666Y22436666D01*
X7884014Y22347531D01*
X8085666Y22309666D01*
X8263938Y22335840D01*
X8339666Y22436666D01*
X8324915Y22495894D01*
X8212666Y22563666D01*
X8158801Y22579158D01*
X8102287Y22693544D01*
X8085666Y22944666D01*
X8090830Y23106264D01*
X8128959Y23275805D01*
X8212666Y23325666D01*
X8271894Y23340418D01*
X8339666Y23452666D01*
X8324915Y23511894D01*
X8212666Y23579666D01*
X8123531Y23632014D01*
X8085666Y23833666D01*
X8111840Y24011938D01*
X8212666Y24087666D01*
X8271894Y24102418D01*
X8339666Y24214666D01*
X8392014Y24303802D01*
X8593666Y24341666D01*
X8771938Y24367840D01*
X8847666Y24468666D01*
X8832915Y24527894D01*
X8720666Y24595666D01*
X8671914Y24610216D01*
X8624360Y24699112D01*
X8600319Y24895721D01*
X8593666Y25230666D01*
X8596576Y25474428D01*
X8614356Y25712198D01*
X8653677Y25832403D01*
X8720666Y25865666D01*
X8779894Y25880418D01*
X8847666Y25992666D01*
X8832915Y26051894D01*
X8720666Y26119666D01*
X8661439Y26134418D01*
X8593666Y26246666D01*
X8609158Y26300532D01*
X8723544Y26357046D01*
X8974666Y26373666D01*
X9136264Y26368503D01*
X9305805Y26330374D01*
X9355666Y26246666D01*
X9370418Y26187439D01*
X9482666Y26119666D01*
X9541894Y26134418D01*
X9609666Y26246666D01*
X9624418Y26305894D01*
X9736666Y26373666D01*
X9795894Y26358915D01*
X9863666Y26246666D01*
X9848915Y26187439D01*
X9736666Y26119666D01*
X9677439Y26104915D01*
X9609666Y25992666D01*
X9594915Y25933439D01*
X9482666Y25865666D01*
X9423439Y25880418D01*
X9355666Y25992666D01*
X9340915Y26051894D01*
X9228666Y26119666D01*
X9139531Y26067319D01*
X9101666Y25865666D01*
X9075493Y25687395D01*
X8974666Y25611666D01*
X8885531Y25559319D01*
X8847666Y25357666D01*
X8873840Y25179395D01*
X8974666Y25103666D01*
X9033894Y25088915D01*
X9101666Y24976666D01*
X9116418Y24917439D01*
X9228666Y24849666D01*
X9287894Y24834915D01*
X9355666Y24722666D01*
X9340915Y24663439D01*
X9228666Y24595666D01*
X9169439Y24610418D01*
X9101666Y24722666D01*
X9086915Y24781894D01*
X8974666Y24849666D01*
X8915439Y24834915D01*
X8847666Y24722666D01*
X8862418Y24663439D01*
X8974666Y24595666D01*
X9033894Y24580915D01*
X9101666Y24468666D01*
X9116418Y24409439D01*
X9228666Y24341666D01*
X9287894Y24356418D01*
X9355666Y24468666D01*
X9370418Y24527894D01*
X9482666Y24595666D01*
X9571802Y24648014D01*
X9609666Y24849666D01*
X9635840Y25027938D01*
X9736666Y25103666D01*
X9795894Y25118418D01*
X9863666Y25230666D01*
X9848915Y25289894D01*
X9736666Y25357666D01*
X9677439Y25372418D01*
X9609666Y25484666D01*
X9624418Y25543894D01*
X9736666Y25611666D01*
X9795894Y25596915D01*
X9863666Y25484666D01*
X9878418Y25425439D01*
X9990666Y25357666D01*
X10079802Y25410014D01*
X10117666Y25611666D01*
X10143840Y25789938D01*
X10244666Y25865666D01*
X10333802Y25813319D01*
X10371666Y25611666D01*
X10397840Y25433395D01*
X10498666Y25357666D01*
X10587802Y25410014D01*
X10625666Y25611666D01*
X10651840Y25789938D01*
X10752666Y25865666D01*
X10811894Y25880418D01*
X10879666Y25992666D01*
X10864915Y26051894D01*
X10752666Y26119666D01*
X10693439Y26134418D01*
X10625666Y26246666D01*
X10640216Y26295419D01*
X10729112Y26342973D01*
X10925721Y26367014D01*
X11260666Y26373666D01*
X11504428Y26370757D01*
X11742198Y26352977D01*
X11862403Y26313656D01*
X11895666Y26246666D01*
X11880175Y26192801D01*
X11765789Y26136287D01*
X11514666Y26119666D01*
X11353069Y26114503D01*
X11183528Y26076374D01*
X11133666Y25992666D01*
X11118915Y25933439D01*
X11006666Y25865666D01*
X10952801Y25850175D01*
X10896287Y25735789D01*
X10879666Y25484666D01*
X10874503Y25323069D01*
X10836374Y25153528D01*
X10752666Y25103666D01*
X10693439Y25088915D01*
X10625666Y24976666D01*
X10610915Y24917439D01*
X10498666Y24849666D01*
X10439439Y24834915D01*
X10371666Y24722666D01*
X10386418Y24663439D01*
X10498666Y24595666D01*
X10557894Y24610418D01*
X10625666Y24722666D01*
X10640418Y24781894D01*
X10752666Y24849666D01*
X10811894Y24834915D01*
X10879666Y24722666D01*
X10864915Y24663439D01*
X10752666Y24595666D01*
X10693439Y24580915D01*
X10625666Y24468666D01*
X10610915Y24409439D01*
X10498666Y24341666D01*
X10439439Y24356418D01*
X10371666Y24468666D01*
X10356915Y24527894D01*
X10244666Y24595666D01*
X10155531Y24648014D01*
X10117666Y24849666D01*
X10091493Y25027938D01*
X9990666Y25103666D01*
X9901531Y25051319D01*
X9863666Y24849666D01*
X9889840Y24671395D01*
X9990666Y24595666D01*
X10079802Y24543319D01*
X10117666Y24341666D01*
X10143840Y24163395D01*
X10244666Y24087666D01*
X10303894Y24072915D01*
X10371666Y23960666D01*
X10424014Y23871531D01*
X10625666Y23833666D01*
X10721491Y23831513D01*
X10829790Y23797913D01*
X10872303Y23686949D01*
X10879666Y23452666D01*
X10874503Y23291069D01*
G37*
%TD*%
M02*
